{"asset":{"version":"2.0","generator":"Blockbench 4.11.2 glTF exporter"},"scenes":[{"nodes":[17],"name":"blockbench_export"}],"scene":0,"nodes":[{"rotation":[0.07782838788448732,-0.9212198336973714,0.2904594978560804,0.24684011049074409],"name":"Leaf","mesh":0},{"name":"Stem","mesh":1},{"name":"Leaf","mesh":2},{"rotation":[0,0.573576436351046,0,0.8191520442889918],"name":"Leaf","mesh":3},{"rotation":[0.02946883096621572,-0.7365756121527618,0.03215958575000494,0.6749471954365445],"name":"Leaf","mesh":4},{"rotation":[0,-0.9807852804032304,0,0.19509032201612833],"name":"Leaf","mesh":5},{"rotation":[0,0.9063077870366499,0,0.42261826174069944],"name":"Leaf","mesh":6},{"rotation":[0.059492360744426674,0.2818905260325947,0.018594055779544857,0.957419788512745],"name":"Leaf","mesh":7},{"rotation":[0.0812298380940046,-0.3610588521249966,0.03158855642662018,0.9284612979593085],"name":"Leaf","mesh":8},{"rotation":[0.14863262549712733,0.9656816740703468,-0.1141639994538659,0.1798160955844083],"name":"Leaf","mesh":9},{"rotation":[0.1689531748984535,0.4903926402016166,-0.09754516100806446,0.8493849684870407],"name":"Leaf","mesh":10},{"rotation":[0.27675727758919144,-0.00874360750643186,0.047885752772402417,0.9597061598794774],"name":"Leaf","mesh":11},{"rotation":[0.19000378080108976,0.7558676008520935,-0.13501576035142215,0.6118279804978839],"name":"Leaf","mesh":12},{"rotation":[0.38302222155948884,-0.5566703992264193,0.32139380484326974,0.6634139481689385],"name":"Leaf","mesh":13},{"rotation":[0.4800249271929647,0.2423390348667897,-0.1399145070154953,0.8314275627977658],"name":"Leaf","mesh":14},{"rotation":[0.058749514341587865,-0.8379880045966518,0.5298336769417189,0.11662278291640715],"name":"Leaf","mesh":15},{"name":"Agave","children":[0,1,2,3,4,5,6,7,8,9,10,11,12,13,14,15]},{"children":[16]}],"bufferViews":[{"buffer":0,"byteOffset":0,"byteLength":1008,"target":34962,"byteStride":12},{"buffer":0,"byteOffset":1008,"byteLength":1008,"target":34962,"byteStride":12},{"buffer":0,"byteOffset":2016,"byteLength":672,"target":34962,"byteStride":8},{"buffer":0,"byteOffset":2688,"byteLength":240,"target":34963},{"buffer":0,"byteOffset":2928,"byteLength":600,"target":34962,"byteStride":12},{"buffer":0,"byteOffset":3528,"byteLength":600,"target":34962,"byteStride":12},{"buffer":0,"byteOffset":4128,"byteLength":400,"target":34962,"byteStride":8},{"buffer":0,"byteOffset":4528,"byteLength":120,"target":34963},{"buffer":0,"byteOffset":4648,"byteLength":768,"target":34962,"byteStride":12},{"buffer":0,"byteOffset":5416,"byteLength":768,"target":34962,"byteStride":12},{"buffer":0,"byteOffset":6184,"byteLength":512,"target":34962,"byteStride":8},{"buffer":0,"byteOffset":6696,"byteLength":192,"target":34963},{"buffer":0,"byteOffset":6888,"byteLength":768,"target":34962,"byteStride":12},{"buffer":0,"byteOffset":7656,"byteLength":768,"target":34962,"byteStride":12},{"buffer":0,"byteOffset":8424,"byteLength":512,"target":34962,"byteStride":8},{"buffer":0,"byteOffset":8936,"byteLength":192,"target":34963},{"buffer":0,"byteOffset":9128,"byteLength":768,"target":34962,"byteStride":12},{"buffer":0,"byteOffset":9896,"byteLength":768,"target":34962,"byteStride":12},{"buffer":0,"byteOffset":10664,"byteLength":512,"target":34962,"byteStride":8},{"buffer":0,"byteOffset":11176,"byteLength":192,"target":34963},{"buffer":0,"byteOffset":11368,"byteLength":768,"target":34962,"byteStride":12},{"buffer":0,"byteOffset":12136,"byteLength":768,"target":34962,"byteStride":12},{"buffer":0,"byteOffset":12904,"byteLength":512,"target":34962,"byteStride":8},{"buffer":0,"byteOffset":13416,"byteLength":192,"target":34963},{"buffer":0,"byteOffset":13608,"byteLength":1008,"target":34962,"byteStride":12},{"buffer":0,"byteOffset":14616,"byteLength":1008,"target":34962,"byteStride":12},{"buffer":0,"byteOffset":15624,"byteLength":672,"target":34962,"byteStride":8},{"buffer":0,"byteOffset":16296,"byteLength":240,"target":34963},{"buffer":0,"byteOffset":16536,"byteLength":768,"target":34962,"byteStride":12},{"buffer":0,"byteOffset":17304,"byteLength":768,"target":34962,"byteStride":12},{"buffer":0,"byteOffset":18072,"byteLength":512,"target":34962,"byteStride":8},{"buffer":0,"byteOffset":18584,"byteLength":192,"target":34963},{"buffer":0,"byteOffset":18776,"byteLength":1008,"target":34962,"byteStride":12},{"buffer":0,"byteOffset":19784,"byteLength":1008,"target":34962,"byteStride":12},{"buffer":0,"byteOffset":20792,"byteLength":672,"target":34962,"byteStride":8},{"buffer":0,"byteOffset":21464,"byteLength":240,"target":34963},{"buffer":0,"byteOffset":21704,"byteLength":768,"target":34962,"byteStride":12},{"buffer":0,"byteOffset":22472,"byteLength":768,"target":34962,"byteStride":12},{"buffer":0,"byteOffset":23240,"byteLength":512,"target":34962,"byteStride":8},{"buffer":0,"byteOffset":23752,"byteLength":192,"target":34963},{"buffer":0,"byteOffset":23944,"byteLength":768,"target":34962,"byteStride":12},{"buffer":0,"byteOffset":24712,"byteLength":768,"target":34962,"byteStride":12},{"buffer":0,"byteOffset":25480,"byteLength":512,"target":34962,"byteStride":8},{"buffer":0,"byteOffset":25992,"byteLength":192,"target":34963},{"buffer":0,"byteOffset":26184,"byteLength":768,"target":34962,"byteStride":12},{"buffer":0,"byteOffset":26952,"byteLength":768,"target":34962,"byteStride":12},{"buffer":0,"byteOffset":27720,"byteLength":512,"target":34962,"byteStride":8},{"buffer":0,"byteOffset":28232,"byteLength":192,"target":34963},{"buffer":0,"byteOffset":28424,"byteLength":768,"target":34962,"byteStride":12},{"buffer":0,"byteOffset":29192,"byteLength":768,"target":34962,"byteStride":12},{"buffer":0,"byteOffset":29960,"byteLength":512,"target":34962,"byteStride":8},{"buffer":0,"byteOffset":30472,"byteLength":192,"target":34963},{"buffer":0,"byteOffset":30664,"byteLength":768,"target":34962,"byteStride":12},{"buffer":0,"byteOffset":31432,"byteLength":768,"target":34962,"byteStride":12},{"buffer":0,"byteOffset":32200,"byteLength":512,"target":34962,"byteStride":8},{"buffer":0,"byteOffset":32712,"byteLength":192,"target":34963},{"buffer":0,"byteOffset":32904,"byteLength":1008,"target":34962,"byteStride":12},{"buffer":0,"byteOffset":33912,"byteLength":1008,"target":34962,"byteStride":12},{"buffer":0,"byteOffset":34920,"byteLength":672,"target":34962,"byteStride":8},{"buffer":0,"byteOffset":35592,"byteLength":240,"target":34963},{"buffer":0,"byteOffset":35832,"byteLength":1008,"target":34962,"byteStride":12},{"buffer":0,"byteOffset":36840,"byteLength":1008,"target":34962,"byteStride":12},{"buffer":0,"byteOffset":37848,"byteLength":672,"target":34962,"byteStride":8},{"buffer":0,"byteOffset":38520,"byteLength":240,"target":34963}],"buffers":[{"byteLength":38760,"uri":"data:application/octet-stream;base64,"}],"accessors":[{"bufferView":0,"componentType":5126,"count":84,"max":[0.0625,0.15988261997699738,0.012500000186264515],"min":[-0.0625,-0.06133194640278816,-0.529761016368866],"type":"VEC3"},{"bufferView":1,"componentType":5126,"count":84,"max":[0.46575018763542175,0.9302694797515869,0.7838171124458313],"min":[-0.48879602551460266,0.5483042001724243,-0.5223808288574219],"type":"VEC3"},{"bufferView":2,"componentType":5126,"count":84,"max":[0.5127195715904236,0.3389925956726074],"min":[0,0],"type":"VEC2"},{"bufferView":3,"componentType":5123,"count":120,"max":[83],"min":[0],"type":"SCALAR"},{"bufferView":4,"componentType":5126,"count":50,"max":[0.0636296197772026,0.08749999850988388,0.05412658676505089],"min":[-0.0636296197772026,-0.0062500000931322575,-0.06690414249897003],"type":"VEC3"},{"bufferView":5,"componentType":5126,"count":50,"max":[0.8952014446258545,0.739124059677124,0.9284766912460327],"min":[-0.8973143100738525,-1,-0.7724084854125977],"type":"VEC3"},{"bufferView":6,"componentType":5126,"count":50,"max":[0.4317062497138977,0.465248703956604],"min":[0.007530604023486376,0.09474307298660278],"type":"VEC2"},{"bufferView":7,"componentType":5123,"count":60,"max":[49],"min":[0],"type":"SCALAR"},{"bufferView":8,"componentType":5126,"count":64,"max":[0.0625,0.05624999850988388,0],"min":[-0.0625,0,-0.5625],"type":"VEC3"},{"bufferView":9,"componentType":5126,"count":64,"max":[0.16435950994491577,0.9947940111160278,0.1995866745710373],"min":[-0.24247927963733673,0.9699171185493469,0.021553346887230873],"type":"VEC3"},{"bufferView":10,"componentType":5126,"count":64,"max":[0.4502360224723816,0.4203695058822632],"min":[0.2723729908466339,0.28125],"type":"VEC2"},{"bufferView":11,"componentType":5123,"count":96,"max":[63],"min":[0],"type":"SCALAR"},{"bufferView":12,"componentType":5126,"count":64,"max":[0.08124999701976776,0.05624999850988388,0],"min":[-0.08124999701976776,0,-0.5625],"type":"VEC3"},{"bufferView":13,"componentType":5126,"count":64,"max":[0.12713344395160675,0.9968098402023315,0.200065478682518],"min":[-0.18880245089530945,0.9762232899665833,0.0218167994171381],"type":"VEC3"},{"bufferView":14,"componentType":5126,"count":64,"max":[0.24373522400856018,0.43872135877609253],"min":[0.09681910276412964,0.265625],"type":"VEC2"},{"bufferView":15,"componentType":5123,"count":96,"max":[63],"min":[0],"type":"SCALAR"},{"bufferView":16,"componentType":5126,"count":64,"max":[0.0625,0.16209568083286285,0],"min":[-0.0625,0,-0.5717602968215942],"type":"VEC3"},{"bufferView":17,"componentType":5126,"count":64,"max":[0.13118046522140503,0.9947940111160278,0.6027374267578125],"min":[-0.3689630925655365,0.737926185131073,0.02208104357123375],"type":"VEC3"},{"bufferView":18,"componentType":5126,"count":64,"max":[0.15419508516788483,0.06979697942733765],"min":[0.0020549213513731956,0],"type":"VEC2"},{"bufferView":19,"componentType":5123,"count":96,"max":[63],"min":[0],"type":"SCALAR"},{"bufferView":20,"componentType":5126,"count":64,"max":[0.0625,0.05624999850988388,0],"min":[-0.0625,0,-0.5625],"type":"VEC3"},{"bufferView":21,"componentType":5126,"count":64,"max":[0.16435950994491577,0.9947940111160278,0.1995866745710373],"min":[-0.24247927963733673,0.9699171185493469,0.021553346887230873],"type":"VEC3"},{"bufferView":22,"componentType":5126,"count":64,"max":[0.1495020091533661,0.4359945058822632],"min":[0.0028889814857393503,0.34375],"type":"VEC2"},{"bufferView":23,"componentType":5123,"count":96,"max":[63],"min":[0],"type":"SCALAR"},{"bufferView":24,"componentType":5126,"count":84,"max":[0.08124999701976776,0.05988261476159096,5.204170427930421e-18],"min":[-0.08124999701976776,0,-0.5485110282897949],"type":"VEC3"},{"bufferView":25,"componentType":5126,"count":84,"max":[0.41379472613334656,0.9966260194778442,0.26089659333229065],"min":[-0.4133418798446655,0.9093521237373352,0.006304377224296331],"type":"VEC3"},{"bufferView":26,"componentType":5126,"count":84,"max":[0.3256346881389618,0.28654181957244873],"min":[0.001906762016005814,0.203125],"type":"VEC2"},{"bufferView":27,"componentType":5123,"count":120,"max":[83],"min":[0],"type":"SCALAR"},{"bufferView":28,"componentType":5126,"count":64,"max":[0.04374999925494194,0.13084568083286285,-0.01875000074505806],"min":[-0.04374999925494194,-0.0062500000931322575,-0.5530102849006653],"type":"VEC3"},{"bufferView":29,"componentType":5126,"count":64,"max":[0.15302613377571106,0.9938610196113586,0.5267247557640076],"min":[-0.421308308839798,0.7673553228378296,0.01814272068440914],"type":"VEC3"},{"bufferView":30,"componentType":5126,"count":64,"max":[0.4214748442173004,0.18552905321121216],"min":[0.2816501557826996,0.140625],"type":"VEC2"},{"bufferView":31,"componentType":5123,"count":96,"max":[63],"min":[0],"type":"SCALAR"},{"bufferView":32,"componentType":5126,"count":84,"max":[0.0625,0.15988261997699738,0.012500000186264515],"min":[-0.0625,-0.0039139073342084885,-0.529761016368866],"type":"VEC3"},{"bufferView":33,"componentType":5126,"count":84,"max":[0.17749683558940887,0.9992327094078064,0.7460808753967285],"min":[-0.14644774794578552,0.6629672050476074,0.011776422150433064],"type":"VEC3"},{"bufferView":34,"componentType":5126,"count":84,"max":[0.34291380643844604,0.4750685691833496],"min":[0.05126240476965904,0.078125],"type":"VEC2"},{"bufferView":35,"componentType":5123,"count":120,"max":[83],"min":[0],"type":"SCALAR"},{"bufferView":36,"componentType":5126,"count":64,"max":[0.0625,0.16209568083286285,0],"min":[-0.0625,-0.0062500000931322575,-0.5717602968215942],"type":"VEC3"},{"bufferView":37,"componentType":5126,"count":64,"max":[0.13118046522140503,0.9947940111160278,0.6027374267578125],"min":[-0.3689630925655365,0.737926185131073,0.02208104357123375],"type":"VEC3"},{"bufferView":38,"componentType":5126,"count":64,"max":[0.21669508516788483,0.1305883526802063],"min":[0.06455492228269577,0.0625],"type":"VEC2"},{"bufferView":39,"componentType":5123,"count":96,"max":[63],"min":[0],"type":"SCALAR"},{"bufferView":40,"componentType":5126,"count":64,"max":[0.03750000149011612,0.06875000149011612,-0.0062500000931322575],"min":[-0.03750000149011612,-0.012500000186264515,-0.518750011920929],"type":"VEC3"},{"bufferView":41,"componentType":5126,"count":64,"max":[0.4986472427845001,0.9433093070983887,0.4383421242237091],"min":[-0.6533029079437256,0.7427022457122803,0.0013256324455142021],"type":"VEC3"},{"bufferView":42,"componentType":5126,"count":64,"max":[0.4795897305011749,0.2637842893600464],"min":[0.33299410343170166,0.109375],"type":"VEC2"},{"bufferView":43,"componentType":5123,"count":96,"max":[63],"min":[0],"type":"SCALAR"},{"bufferView":44,"componentType":5126,"count":64,"max":[0.06312499940395355,0.16209568083286285,-0.0062500000931322575],"min":[-0.06312499940395355,-0.01093748677521944,-0.5030102729797363],"type":"VEC3"},{"bufferView":45,"componentType":5126,"count":64,"max":[0.23414075374603271,0.9901090264320374,0.6644266843795776],"min":[-0.3810059428215027,0.6858106851577759,-0.08707182109355927],"type":"VEC3"},{"bufferView":46,"componentType":5126,"count":64,"max":[0.203125,0.47602134943008423],"min":[0.01467612199485302,0.125],"type":"VEC2"},{"bufferView":47,"componentType":5123,"count":96,"max":[63],"min":[0],"type":"SCALAR"},{"bufferView":48,"componentType":5126,"count":64,"max":[0.04374999925494194,0.29653140902519226,-0.01875000074505806],"min":[-0.04374999925494194,-0.012500000186264515,-0.44406309723854065],"type":"VEC3"},{"bufferView":49,"componentType":5126,"count":64,"max":[0.5970097780227661,0.9693792462348938,0.8505985736846924],"min":[-0.2702476978302002,0.3863743841648102,0.01759713515639305],"type":"VEC3"},{"bufferView":50,"componentType":5126,"count":64,"max":[0.508807361125946,0.48077094554901123],"min":[0.17754331231117249,0.28125],"type":"VEC2"},{"bufferView":51,"componentType":5123,"count":96,"max":[63],"min":[0],"type":"SCALAR"},{"bufferView":52,"componentType":5126,"count":64,"max":[0.05000000074505806,0.08124999701976776,-0.01875000074505806],"min":[-0.05000000074505806,-0.02500000037252903,-0.543749988079071],"type":"VEC3"},{"bufferView":53,"componentType":5126,"count":64,"max":[0.36586523056030273,0.9723086357116699,0.3723345696926117],"min":[-0.5079454779624939,0.8605194091796875,0.03869995102286339],"type":"VEC3"},{"bufferView":54,"componentType":5126,"count":64,"max":[0.4339583218097687,0.37937498092651367],"min":[0.17537765204906464,0],"type":"VEC2"},{"bufferView":55,"componentType":5123,"count":96,"max":[63],"min":[0],"type":"SCALAR"},{"bufferView":56,"componentType":5126,"count":84,"max":[0.0625,0.05988261476159096,-0.012500000186264515],"min":[-0.0625,-0.012500000186264515,-0.511011004447937],"type":"VEC3"},{"bufferView":57,"componentType":5126,"count":84,"max":[0.8707942962646484,0.9573664665222168,0.2845115661621094],"min":[-0.8697866201400757,0.49064889550209045,-0.02056376449763775],"type":"VEC3"},{"bufferView":58,"componentType":5126,"count":84,"max":[0.4928610920906067,0.41506481170654297],"min":[0.2257002741098404,0.0625],"type":"VEC2"},{"bufferView":59,"componentType":5123,"count":120,"max":[83],"min":[0],"type":"SCALAR"},{"bufferView":60,"componentType":5126,"count":84,"max":[0.04374999925494194,0.08488261699676514,-0.012500000186264515],"min":[-0.04374999925494194,-0.03750000149011612,-0.511011004447937],"type":"VEC3"},{"bufferView":61,"componentType":5126,"count":84,"max":[0.9736694097518921,0.8089640140533447,0.38092610239982605],"min":[-0.9729787111282349,0.2272343635559082,-0.016095208004117012],"type":"VEC3"},{"bufferView":62,"componentType":5126,"count":84,"max":[0.47735005617141724,0.37117111682891846],"min":[0.3348933458328247,0.203125],"type":"VEC2"},{"bufferView":63,"componentType":5123,"count":120,"max":[83],"min":[0],"type":"SCALAR"}],"materials":[{"pbrMetallicRoughness":{"metallicFactor":0,"roughnessFactor":1,"baseColorTexture":{"index":0}},"alphaMode":"MASK","alphaCutoff":0.05,"doubleSided":true}],"textures":[{"sampler":0,"source":0,"name":"Agave"}],"samplers":[{"magFilter":9728,"minFilter":9728,"wrapS":33071,"wrapT":33071}],"images":[{"mimeType":"image/png","uri":"data:image/png;base64,"}],"meshes":[{"primitives":[{"mode":4,"attributes":{"POSITION":0,"NORMAL":1,"TEXCOORD_0":2},"indices":3,"material":0}]},{"primitives":[{"mode":4,"attributes":{"POSITION":4,"NORMAL":5,"TEXCOORD_0":6},"indices":7,"material":0}]},{"primitives":[{"mode":4,"attributes":{"POSITION":8,"NORMAL":9,"TEXCOORD_0":10},"indices":11,"material":0}]},{"primitives":[{"mode":4,"attributes":{"POSITION":12,"NORMAL":13,"TEXCOORD_0":14},"indices":15,"material":0}]},{"primitives":[{"mode":4,"attributes":{"POSITION":16,"NORMAL":17,"TEXCOORD_0":18},"indices":19,"material":0}]},{"primitives":[{"mode":4,"attributes":{"POSITION":20,"NORMAL":21,"TEXCOORD_0":22},"indices":23,"material":0}]},{"primitives":[{"mode":4,"attributes":{"POSITION":24,"NORMAL":25,"TEXCOORD_0":26},"indices":27,"material":0}]},{"primitives":[{"mode":4,"attributes":{"POSITION":28,"NORMAL":29,"TEXCOORD_0":30},"indices":31,"material":0}]},{"primitives":[{"mode":4,"attributes":{"POSITION":32,"NORMAL":33,"TEXCOORD_0":34},"indices":35,"material":0}]},{"primitives":[{"mode":4,"attributes":{"POSITION":36,"NORMAL":37,"TEXCOORD_0":38},"indices":39,"material":0}]},{"primitives":[{"mode":4,"attributes":{"POSITION":40,"NORMAL":41,"TEXCOORD_0":42},"indices":43,"material":0}]},{"primitives":[{"mode":4,"attributes":{"POSITION":44,"NORMAL":45,"TEXCOORD_0":46},"indices":47,"material":0}]},{"primitives":[{"mode":4,"attributes":{"POSITION":48,"NORMAL":49,"TEXCOORD_0":50},"indices":51,"material":0}]},{"primitives":[{"mode":4,"attributes":{"POSITION":52,"NORMAL":53,"TEXCOORD_0":54},"indices":55,"material":0}]},{"primitives":[{"mode":4,"attributes":{"POSITION":56,"NORMAL":57,"TEXCOORD_0":58},"indices":59,"material":0}]},{"primitives":[{"mode":4,"attributes":{"POSITION":60,"NORMAL":61,"TEXCOORD_0":62},"indices":63,"material":0}]}]}