{"asset":{"version":"2.0","generator":"Blockbench 4.11.2 glTF exporter"},"scenes":[{"nodes":[4],"name":"blockbench_export"}],"scene":0,"nodes":[{"translation":[2.0625,0,0],"name":"leaf","mesh":0},{"translation":[2.0625,0,0],"name":"leaf","mesh":1},{"translation":[2.0625,0,0],"name":"stem","mesh":2},{"name":"GrassTuft","children":[0,1,2]},{"children":[3]}],"bufferViews":[{"buffer":0,"byteOffset":0,"byteLength":48,"target":34962,"byteStride":12},{"buffer":0,"byteOffset":48,"byteLength":48,"target":34962,"byteStride":12},{"buffer":0,"byteOffset":96,"byteLength":32,"target":34962,"byteStride":8},{"buffer":0,"byteOffset":128,"byteLength":12,"target":34963},{"buffer":0,"byteOffset":140,"byteLength":48,"target":34962,"byteStride":12},{"buffer":0,"byteOffset":188,"byteLength":48,"target":34962,"byteStride":12},{"buffer":0,"byteOffset":236,"byteLength":32,"target":34962,"byteStride":8},{"buffer":0,"byteOffset":268,"byteLength":12,"target":34963},{"buffer":0,"byteOffset":280,"byteLength":1044,"target":34962,"byteStride":12},{"buffer":0,"byteOffset":1324,"byteLength":1044,"target":34962,"byteStride":12},{"buffer":0,"byteOffset":2368,"byteLength":696,"target":34962,"byteStride":8},{"buffer":0,"byteOffset":3064,"byteLength":260,"target":34963}],"buffers":[{"byteLength":3324,"uri":"data:application/octet-stream;base64,"}],"accessors":[{"bufferView":0,"componentType":5126,"count":4,"max":[-2.0625,0.625,0.3125],"min":[-2.0625,2.4424906541753444e-15,-0.3125],"type":"VEC3"},{"bufferView":1,"componentType":5126,"count":4,"max":[-1,-7.10542746348012e-16,0],"min":[-1,-7.10542746348012e-16,0],"type":"VEC3"},{"bufferView":2,"componentType":5126,"count":4,"max":[0.5,1],"min":[0,0.4375],"type":"VEC2"},{"bufferView":3,"componentType":5123,"count":6,"max":[3],"min":[0],"type":"SCALAR"},{"bufferView":4,"componentType":5126,"count":4,"max":[-1.75,0.625,7.862634154864878e-16],"min":[-2.375,2.4424906541753444e-15,-4.106957829375091e-16],"type":"VEC3"},{"bufferView":5,"componentType":5126,"count":4,"max":[-6.536437845722372e-16,-8.562595183300638e-16,-1],"min":[-6.536437845722372e-16,-8.562595183300638e-16,-1],"type":"VEC3"},{"bufferView":6,"componentType":5126,"count":4,"max":[1,1],"min":[0.5,0.4375],"type":"VEC2"},{"bufferView":7,"componentType":5123,"count":6,"max":[3],"min":[0],"type":"SCALAR"},{"bufferView":8,"componentType":5126,"count":87,"max":[-1.8132166862487793,0.5745226740837097,0.3238102197647095],"min":[-2.099236488342285,0,-0.038627125322818756],"type":"VEC3"},{"bufferView":9,"componentType":5126,"count":87,"max":[0.8746139407157898,0.8964915871620178,1],"min":[-0.9825331568717957,-0.9594008922576904,-0.8147596120834351],"type":"VEC3"},{"bufferView":10,"componentType":5126,"count":87,"max":[0.981229841709137,0.4055371880531311],"min":[0.012850326485931873,0.0037429332733154297],"type":"VEC2"},{"bufferView":11,"componentType":5123,"count":129,"max":[86],"min":[0],"type":"SCALAR"}],"materials":[{"pbrMetallicRoughness":{"metallicFactor":0,"roughnessFactor":1,"baseColorTexture":{"index":0}},"alphaMode":"MASK","alphaCutoff":0.05,"doubleSided":true}],"textures":[{"sampler":0,"source":0,"name":"Plant.png"}],"samplers":[{"magFilter":9728,"minFilter":9728,"wrapS":33071,"wrapT":33071}],"images":[{"mimeType":"image/png","uri":"data:image/png;base64,"}],"meshes":[{"primitives":[{"mode":4,"attributes":{"POSITION":0,"NORMAL":1,"TEXCOORD_0":2},"indices":3,"material":0}]},{"primitives":[{"mode":4,"attributes":{"POSITION":4,"NORMAL":5,"TEXCOORD_0":6},"indices":7,"material":0}]},{"primitives":[{"mode":4,"attributes":{"POSITION":8,"NORMAL":9,"TEXCOORD_0":10},"indices":11,"material":0}]}]}