{"asset":{"version":"2.0","generator":"Blockbench 4.11.2 glTF exporter"},"scenes":[{"nodes":[1],"name":"blockbench_export"}],"scene":0,"nodes":[{"name":"Grass","mesh":0},{"children":[0]}],"bufferViews":[{"buffer":0,"byteOffset":0,"byteLength":96,"target":34962,"byteStride":12},{"buffer":0,"byteOffset":96,"byteLength":96,"target":34962,"byteStride":12},{"buffer":0,"byteOffset":192,"byteLength":64,"target":34962,"byteStride":8},{"buffer":0,"byteOffset":256,"byteLength":24,"target":34963}],"buffers":[{"byteLength":280,"uri":"data:application/octet-stream;base64,"}],"accessors":[{"bufferView":0,"componentType":5126,"count":8,"max":[0.375,0.5,0.375],"min":[-0.375,-4.996003610813204e-16,-0.375],"type":"VEC3"},{"bufferView":1,"componentType":5126,"count":8,"max":[1,-8.326672684688674e-16,1],"min":[0,-1.3322676295501878e-15,2.220446049250313e-16],"type":"VEC3"},{"bufferView":2,"componentType":5126,"count":8,"max":[0.75,0.5],"min":[0,0],"type":"VEC2"},{"bufferView":3,"componentType":5123,"count":12,"max":[7],"min":[0],"type":"SCALAR"}],"materials":[{"pbrMetallicRoughness":{"metallicFactor":0,"roughnessFactor":1,"baseColorTexture":{"index":0}},"alphaMode":"MASK","alphaCutoff":0.05,"doubleSided":true}],"textures":[{"sampler":0,"source":0,"name":"Grass.png"}],"samplers":[{"magFilter":9728,"minFilter":9728,"wrapS":33071,"wrapT":33071}],"images":[{"mimeType":"image/png","uri":"data:image/png;base64,"}],"meshes":[{"primitives":[{"mode":4,"attributes":{"POSITION":0,"NORMAL":1,"TEXCOORD_0":2},"indices":3,"material":0}]}]}