{"asset":{"version":"2.0","generator":"Blockbench 4.11.2 glTF exporter"},"scenes":[{"nodes":[25],"name":"blockbench_export"}],"scene":0,"nodes":[{"translation":[0.0625,1.6875,-0.5],"name":"7625c4e6-7b9c-adc2-0599-c8b53cd8d952"},{"rotation":[-0.7071067594678665,3.0181424575705114e-8,-2.9423224463635825e-8,0.7071068029052267],"translation":[0.25,1.6124999999999998,-3.2959746043559335e-17],"name":"LeftBolt","mesh":0},{"rotation":[-0.7071067594678665,3.0181424575705114e-8,-2.9423224463635825e-8,0.7071068029052267],"translation":[-0.25,1.6124999999999998,-3.2959746043559335e-17],"name":"RightBolt","mesh":1},{"translation":[0.03125,0.375,0.03125000000000001],"name":"Stand","mesh":2},{"rotation":[-0.3826834323650898,0,0,0.9238795325112867],"translation":[-0.031249999999999997,-0.08749999999999969,-0.09375],"name":"FwdLeg2"},{"translation":[0,-2.220446049250313e-16,-2.7755575615628914e-17],"name":"Leg","mesh":3},{"rotation":[-0.3826834323650898,0,0,0.9238795325112867],"translation":[0,-0.02499999999999969,-0.06250000000000001],"name":"FwdLeg","children":[5]},{"translation":[0,-2.220446049250313e-16,-2.7755575615628914e-17],"name":"Leg","mesh":4},{"rotation":[-0.3826834323650898,0,0,0.9238795325112867],"translation":[0,-0.02499999999999969,-0.06250000000000001],"name":"RightLeg","children":[7]},{"rotation":[0,-0.8660254037844386,0,0.5000000000000001],"name":"RightLegPivot","children":[8]},{"translation":[0,-2.220446049250313e-16,-2.7755575615628914e-17],"name":"Leg","mesh":5},{"rotation":[-0.3826834323650898,0,0,0.9238795325112867],"translation":[0,-0.02499999999999969,-0.06250000000000001],"name":"LeftLeg","children":[10]},{"rotation":[0,0.8660254037844386,0,0.5000000000000001],"name":"LeftLegPivot","children":[11]},{"translation":[3.469446951953614e-18,0.3125,1.0408340855860843e-17],"name":"Legs","children":[4,6,9,12]},{"translation":[0,0,-0.09375],"name":"Attachment","mesh":6},{"translation":[0.375,0,-0.5],"name":"RightLamp","mesh":7},{"rotation":[-0.7071067811865475,0,0,0.7071067811865476],"translation":[0,0.06875000000000009,-0.05625],"name":"Grid","mesh":8},{"translation":[0,0.0625,0],"name":"RightLamp","children":[15,16]},{"translation":[-0.25,1.625,0],"name":"RightLampSconce","children":[14,17]},{"translation":[0,0,-0.09375],"name":"Attachment","mesh":9},{"translation":[-0.375,0,-0.5],"name":"LeftLamp","mesh":10},{"rotation":[-0.7071067811865475,0,0,0.7071067811865476],"translation":[0,0.06875000000000009,-0.05625],"name":"Grid","mesh":11},{"translation":[0,0.0625,0],"name":"LeftLamp","children":[20,21]},{"translation":[0.25,1.625,0],"name":"LeftLampSconce","children":[19,22]},{"name":"ConstructionLamp","children":[0,1,2,3,13,18,23]},{"children":[24]}],"bufferViews":[{"buffer":0,"byteOffset":0,"byteLength":864,"target":34962,"byteStride":12},{"buffer":0,"byteOffset":864,"byteLength":864,"target":34962,"byteStride":12},{"buffer":0,"byteOffset":1728,"byteLength":576,"target":34962,"byteStride":8},{"buffer":0,"byteOffset":2304,"byteLength":216,"target":34963},{"buffer":0,"byteOffset":2520,"byteLength":864,"target":34962,"byteStride":12},{"buffer":0,"byteOffset":3384,"byteLength":864,"target":34962,"byteStride":12},{"buffer":0,"byteOffset":4248,"byteLength":576,"target":34962,"byteStride":8},{"buffer":0,"byteOffset":4824,"byteLength":216,"target":34963},{"buffer":0,"byteOffset":5040,"byteLength":2592,"target":34962,"byteStride":12},{"buffer":0,"byteOffset":7632,"byteLength":2592,"target":34962,"byteStride":12},{"buffer":0,"byteOffset":10224,"byteLength":1728,"target":34962,"byteStride":8},{"buffer":0,"byteOffset":11952,"byteLength":600,"target":34963},{"buffer":0,"byteOffset":12552,"byteLength":864,"target":34962,"byteStride":12},{"buffer":0,"byteOffset":13416,"byteLength":864,"target":34962,"byteStride":12},{"buffer":0,"byteOffset":14280,"byteLength":576,"target":34962,"byteStride":8},{"buffer":0,"byteOffset":14856,"byteLength":216,"target":34963},{"buffer":0,"byteOffset":15072,"byteLength":864,"target":34962,"byteStride":12},{"buffer":0,"byteOffset":15936,"byteLength":864,"target":34962,"byteStride":12},{"buffer":0,"byteOffset":16800,"byteLength":576,"target":34962,"byteStride":8},{"buffer":0,"byteOffset":17376,"byteLength":216,"target":34963},{"buffer":0,"byteOffset":17592,"byteLength":864,"target":34962,"byteStride":12},{"buffer":0,"byteOffset":18456,"byteLength":864,"target":34962,"byteStride":12},{"buffer":0,"byteOffset":19320,"byteLength":576,"target":34962,"byteStride":8},{"buffer":0,"byteOffset":19896,"byteLength":216,"target":34963},{"buffer":0,"byteOffset":20112,"byteLength":144,"target":34962,"byteStride":12},{"buffer":0,"byteOffset":20256,"byteLength":144,"target":34962,"byteStride":12},{"buffer":0,"byteOffset":20400,"byteLength":96,"target":34962,"byteStride":8},{"buffer":0,"byteOffset":20496,"byteLength":36,"target":34963},{"buffer":0,"byteOffset":20532,"byteLength":672,"target":34962,"byteStride":12},{"buffer":0,"byteOffset":21204,"byteLength":672,"target":34962,"byteStride":12},{"buffer":0,"byteOffset":21876,"byteLength":448,"target":34962,"byteStride":8},{"buffer":0,"byteOffset":22324,"byteLength":168,"target":34963},{"buffer":0,"byteOffset":22492,"byteLength":336,"target":34962,"byteStride":12},{"buffer":0,"byteOffset":22828,"byteLength":336,"target":34962,"byteStride":12},{"buffer":0,"byteOffset":23164,"byteLength":224,"target":34962,"byteStride":8},{"buffer":0,"byteOffset":23388,"byteLength":60,"target":34963},{"buffer":0,"byteOffset":23448,"byteLength":144,"target":34962,"byteStride":12},{"buffer":0,"byteOffset":23592,"byteLength":144,"target":34962,"byteStride":12},{"buffer":0,"byteOffset":23736,"byteLength":96,"target":34962,"byteStride":8},{"buffer":0,"byteOffset":23832,"byteLength":36,"target":34963},{"buffer":0,"byteOffset":23868,"byteLength":672,"target":34962,"byteStride":12},{"buffer":0,"byteOffset":24540,"byteLength":672,"target":34962,"byteStride":12},{"buffer":0,"byteOffset":25212,"byteLength":448,"target":34962,"byteStride":8},{"buffer":0,"byteOffset":25660,"byteLength":168,"target":34963},{"buffer":0,"byteOffset":25828,"byteLength":336,"target":34962,"byteStride":12},{"buffer":0,"byteOffset":26164,"byteLength":336,"target":34962,"byteStride":12},{"buffer":0,"byteOffset":26500,"byteLength":224,"target":34962,"byteStride":8},{"buffer":0,"byteOffset":26724,"byteLength":60,"target":34963}],"buffers":[{"byteLength":26784,"uri":"data:application/octet-stream;base64,"}],"accessors":[{"bufferView":0,"componentType":5126,"count":72,"max":[0.00937500037252903,0.00937500037252903,0.03750000149011612],"min":[-0.00937500037252903,-0.00937500037252903,-0.03750000149011612],"type":"VEC3"},{"bufferView":1,"componentType":5126,"count":72,"max":[1,1,1],"min":[-1,-1,-1],"type":"VEC3"},{"bufferView":2,"componentType":5126,"count":72,"max":[0.11815312504768372,0.11406248807907104],"min":[0.015625,0.015625],"type":"VEC2"},{"bufferView":3,"componentType":5123,"count":108,"max":[71],"min":[0],"type":"SCALAR"},{"bufferView":4,"componentType":5126,"count":72,"max":[0.00937500037252903,0.00937500037252903,0.03750000149011612],"min":[-0.00937500037252903,-0.00937500037252903,-0.03750000149011612],"type":"VEC3"},{"bufferView":5,"componentType":5126,"count":72,"max":[1,1,1],"min":[-1,-1,-1],"type":"VEC3"},{"bufferView":6,"componentType":5126,"count":72,"max":[0.109375,0.109375],"min":[0,0.015625],"type":"VEC2"},{"bufferView":7,"componentType":5123,"count":108,"max":[71],"min":[0],"type":"SCALAR"},{"bufferView":8,"componentType":5126,"count":216,"max":[0.3125,1.25,0.03125],"min":[-0.375,-0.11249999701976776,-0.109375],"type":"VEC3"},{"bufferView":9,"componentType":5126,"count":216,"max":[1,1,1],"min":[-1,-1,-1],"type":"VEC3"},{"bufferView":10,"componentType":5126,"count":216,"max":[0.796875,0.5136952996253967],"min":[0,0],"type":"VEC2"},{"bufferView":11,"componentType":5123,"count":300,"max":[215],"min":[0],"type":"SCALAR"},{"bufferView":12,"componentType":5126,"count":72,"max":[0.02812499925494194,0.02500000037252903,2.7755575615628914e-17],"min":[-0.02812499925494194,-0.02500000037252903,-0.38749998807907104],"type":"VEC3"},{"bufferView":13,"componentType":5126,"count":72,"max":[1,1,1],"min":[-1,-1,-1],"type":"VEC3"},{"bufferView":14,"componentType":5126,"count":72,"max":[0.5239080190658569,0.5],"min":[0.25,0.09375],"type":"VEC2"},{"bufferView":15,"componentType":5123,"count":108,"max":[71],"min":[0],"type":"SCALAR"},{"bufferView":16,"componentType":5126,"count":72,"max":[0.02812499925494194,0.02500000037252903,2.7755575615628914e-17],"min":[-0.02812499925494194,-0.02500000037252903,-0.38749998807907104],"type":"VEC3"},{"bufferView":17,"componentType":5126,"count":72,"max":[1,1,1],"min":[-1,-1,-1],"type":"VEC3"},{"bufferView":18,"componentType":5126,"count":72,"max":[0.5239080190658569,0.515625],"min":[0.0007812500116415322,0.125],"type":"VEC2"},{"bufferView":19,"componentType":5123,"count":108,"max":[71],"min":[0],"type":"SCALAR"},{"bufferView":20,"componentType":5126,"count":72,"max":[0.02812499925494194,0.02500000037252903,2.7755575615628914e-17],"min":[-0.02812499925494194,-0.02500000037252903,-0.38749998807907104],"type":"VEC3"},{"bufferView":21,"componentType":5126,"count":72,"max":[1,1,1],"min":[-1,-1,-1],"type":"VEC3"},{"bufferView":22,"componentType":5126,"count":72,"max":[0.515625,0.5132381916046143],"min":[0,0],"type":"VEC2"},{"bufferView":23,"componentType":5123,"count":108,"max":[71],"min":[0],"type":"SCALAR"},{"bufferView":24,"componentType":5126,"count":12,"max":[0.0625,0.11249999701976776,0.125],"min":[-0.0625,0.0062500000931322575,0.0625],"type":"VEC3"},{"bufferView":25,"componentType":5126,"count":12,"max":[1,1,0],"min":[-1,0,0],"type":"VEC3"},{"bufferView":26,"componentType":5126,"count":12,"max":[0.21875,0.484375],"min":[0.125,0.453125],"type":"VEC2"},{"bufferView":27,"componentType":5123,"count":18,"max":[11],"min":[0],"type":"SCALAR"},{"bufferView":28,"componentType":5126,"count":56,"max":[-0.25,0.19374999403953552,0.625],"min":[-0.5,0.0062500000931322575,0.4375],"type":"VEC3"},{"bufferView":29,"componentType":5126,"count":56,"max":[1,1,1],"min":[-1,-1,-1],"type":"VEC3"},{"bufferView":30,"componentType":5126,"count":56,"max":[0.453125,0.421875],"min":[0.0625,0.03125],"type":"VEC2"},{"bufferView":31,"componentType":5123,"count":84,"max":[55],"min":[0],"type":"SCALAR"},{"bufferView":32,"componentType":5126,"count":28,"max":[0.125,0.06875000149011612,0.125],"min":[-0.125,0.0062500000931322575,-0.0625],"type":"VEC3"},{"bufferView":33,"componentType":5126,"count":28,"max":[0.7071067690849304,1,0.800000011920929],"min":[-0.7071067690849304,0.6000000238418579,-0.800000011920929],"type":"VEC3"},{"bufferView":34,"componentType":5126,"count":28,"max":[0.23043297231197357,0.7670180201530457],"min":[0.09762047231197357,0.7201430201530457],"type":"VEC2"},{"bufferView":35,"componentType":5123,"count":30,"max":[27],"min":[0],"type":"SCALAR"},{"bufferView":36,"componentType":5126,"count":12,"max":[0.06250312179327011,0.11249999701976776,0.125],"min":[-0.0625,0.0062500000931322575,0.0625],"type":"VEC3"},{"bufferView":37,"componentType":5126,"count":12,"max":[1,1,0],"min":[-1,-0.000029411765353870578,0],"type":"VEC3"},{"bufferView":38,"componentType":5126,"count":12,"max":[0.46875,0.484375],"min":[0.234375,0.3125],"type":"VEC2"},{"bufferView":39,"componentType":5123,"count":18,"max":[11],"min":[0],"type":"SCALAR"},{"bufferView":40,"componentType":5126,"count":56,"max":[0.5,0.19374999403953552,0.625],"min":[0.25,0.0062500000931322575,0.4375],"type":"VEC3"},{"bufferView":41,"componentType":5126,"count":56,"max":[1,1,1],"min":[-1,-1,-1],"type":"VEC3"},{"bufferView":42,"componentType":5126,"count":56,"max":[0.484375,0.5],"min":[0.0625,0.07599997520446777],"type":"VEC2"},{"bufferView":43,"componentType":5123,"count":84,"max":[55],"min":[0],"type":"SCALAR"},{"bufferView":44,"componentType":5126,"count":28,"max":[0.125,0.06875000149011612,0.125],"min":[-0.125,0.0062500000931322575,-0.0625],"type":"VEC3"},{"bufferView":45,"componentType":5126,"count":28,"max":[0.7071067690849304,1,0.800000011920929],"min":[-0.7071067690849304,0.6000000238418579,-0.800000011920929],"type":"VEC3"},{"bufferView":46,"componentType":5126,"count":28,"max":[0.2313319444656372,0.7659673690795898],"min":[0.09695693850517273,0.7206548452377319],"type":"VEC2"},{"bufferView":47,"componentType":5123,"count":30,"max":[27],"min":[0],"type":"SCALAR"}],"materials":[{"pbrMetallicRoughness":{"metallicFactor":0,"roughnessFactor":1,"baseColorTexture":{"index":0}},"alphaMode":"MASK","alphaCutoff":0.05,"doubleSided":true}],"textures":[{"sampler":0,"source":0,"name":"ConstructionLamp"}],"samplers":[{"magFilter":9728,"minFilter":9728,"wrapS":33071,"wrapT":33071}],"images":[{"mimeType":"image/png","uri":"data:image/png;base64,"}],"meshes":[{"primitives":[{"mode":4,"attributes":{"POSITION":0,"NORMAL":1,"TEXCOORD_0":2},"indices":3,"material":0}]},{"primitives":[{"mode":4,"attributes":{"POSITION":4,"NORMAL":5,"TEXCOORD_0":6},"indices":7,"material":0}]},{"primitives":[{"mode":4,"attributes":{"POSITION":8,"NORMAL":9,"TEXCOORD_0":10},"indices":11,"material":0}]},{"primitives":[{"mode":4,"attributes":{"POSITION":12,"NORMAL":13,"TEXCOORD_0":14},"indices":15,"material":0}]},{"primitives":[{"mode":4,"attributes":{"POSITION":16,"NORMAL":17,"TEXCOORD_0":18},"indices":19,"material":0}]},{"primitives":[{"mode":4,"attributes":{"POSITION":20,"NORMAL":21,"TEXCOORD_0":22},"indices":23,"material":0}]},{"primitives":[{"mode":4,"attributes":{"POSITION":24,"NORMAL":25,"TEXCOORD_0":26},"indices":27,"material":0}]},{"primitives":[{"mode":4,"attributes":{"POSITION":28,"NORMAL":29,"TEXCOORD_0":30},"indices":31,"material":0}]},{"primitives":[{"mode":4,"attributes":{"POSITION":32,"NORMAL":33,"TEXCOORD_0":34},"indices":35,"material":0}]},{"primitives":[{"mode":4,"attributes":{"POSITION":36,"NORMAL":37,"TEXCOORD_0":38},"indices":39,"material":0}]},{"primitives":[{"mode":4,"attributes":{"POSITION":40,"NORMAL":41,"TEXCOORD_0":42},"indices":43,"material":0}]},{"primitives":[{"mode":4,"attributes":{"POSITION":44,"NORMAL":45,"TEXCOORD_0":46},"indices":47,"material":0}]}]}