{"asset":{"version":"2.0","generator":"Blockbench 4.11.2 glTF exporter"},"scenes":[{"nodes":[8],"name":"blockbench_export"}],"scene":0,"nodes":[{"translation":[1.5625,-0.03945210635426477,-0.4932848079542132],"name":"Door","mesh":0},{"rotation":[-0.25038000405444144,0,0,0.9681476403781077],"translation":[-0.6875,-0.019533626830378736,0.0032199398734604756],"name":"DoorRight","children":[0]},{"translation":[0,1.93125,0.46875],"name":"DoorRightPivot","children":[1]},{"translation":[0.125,-0.03945210635426477,-0.4932848079542132],"name":"Door","mesh":1},{"rotation":[-0.25038000405444144,0,0,0.9681476403781077],"translation":[0.75,-0.019533626830376516,0.0032199398734604756],"name":"DoorLeft","children":[3]},{"translation":[0,1.9312499999999977,0.46875],"name":"DoorLeftPivot","children":[4]},{"name":"Body","mesh":2},{"name":"Dumpster","children":[2,5,6]},{"children":[7]}],"bufferViews":[{"buffer":0,"byteOffset":0,"byteLength":960,"target":34962,"byteStride":12},{"buffer":0,"byteOffset":960,"byteLength":960,"target":34962,"byteStride":12},{"buffer":0,"byteOffset":1920,"byteLength":640,"target":34962,"byteStride":8},{"buffer":0,"byteOffset":2560,"byteLength":240,"target":34963},{"buffer":0,"byteOffset":2800,"byteLength":960,"target":34962,"byteStride":12},{"buffer":0,"byteOffset":3760,"byteLength":960,"target":34962,"byteStride":12},{"buffer":0,"byteOffset":4720,"byteLength":640,"target":34962,"byteStride":8},{"buffer":0,"byteOffset":5360,"byteLength":240,"target":34963},{"buffer":0,"byteOffset":5600,"byteLength":9288,"target":34962,"byteStride":12},{"buffer":0,"byteOffset":14888,"byteLength":9288,"target":34962,"byteStride":12},{"buffer":0,"byteOffset":24176,"byteLength":6192,"target":34962,"byteStride":8},{"buffer":0,"byteOffset":30368,"byteLength":2304,"target":34963}],"buffers":[{"byteLength":32672,"uri":"data:application/octet-stream;base64,"}],"accessors":[{"bufferView":0,"componentType":5126,"count":80,"max":[-0.887499988079071,0.12281250208616257,0.5702923536300659],"min":[-2.2750000953674316,-0.012500000186264515,-1.3125],"type":"VEC3"},{"bufferView":1,"componentType":5126,"count":80,"max":[1,1,0.9397934079170227],"min":[-1,-1,-1],"type":"VEC3"},{"bufferView":2,"componentType":5126,"count":80,"max":[0.5373529195785522,0.4846242070198059],"min":[0.0015625000232830644,0.0703125],"type":"VEC2"},{"bufferView":3,"componentType":5123,"count":120,"max":[79],"min":[0],"type":"SCALAR"},{"bufferView":4,"componentType":5126,"count":80,"max":[0.518750011920929,0.12281250208616257,0.5702923536300659],"min":[-0.8687499761581421,-0.012500000186264515,-1.3125],"type":"VEC3"},{"bufferView":5,"componentType":5126,"count":80,"max":[1,1,0.9397934079170227],"min":[-1,-1,-1],"type":"VEC3"},{"bufferView":6,"componentType":5126,"count":80,"max":[0.5373529195785522,0.4846242070198059],"min":[0.0013310547219589353,0.11033517122268677],"type":"VEC2"},{"bufferView":7,"componentType":5123,"count":120,"max":[79],"min":[0],"type":"SCALAR"},{"bufferView":8,"componentType":5126,"count":774,"max":[1.5625,1.928347110748291,1.0625],"min":[-1.5625,0,-1.125],"type":"VEC3"},{"bufferView":9,"componentType":5126,"count":774,"max":[1,1,1],"min":[-1,-1,-1],"type":"VEC3"},{"bufferView":10,"componentType":5126,"count":774,"max":[0.600401759147644,0.5039917826652527],"min":[0,0],"type":"VEC2"},{"bufferView":11,"componentType":5123,"count":1152,"max":[773],"min":[0],"type":"SCALAR"}],"materials":[{"pbrMetallicRoughness":{"metallicFactor":0,"roughnessFactor":1,"baseColorTexture":{"index":0}},"alphaMode":"MASK","alphaCutoff":0.05,"doubleSided":true}],"textures":[{"sampler":0,"source":0,"name":"Dumpster.png"}],"samplers":[{"magFilter":9728,"minFilter":9728,"wrapS":33071,"wrapT":33071}],"images":[{"mimeType":"image/png","uri":"data:image/png;base64,"}],"meshes":[{"primitives":[{"mode":4,"attributes":{"POSITION":0,"NORMAL":1,"TEXCOORD_0":2},"indices":3,"material":0}]},{"primitives":[{"mode":4,"attributes":{"POSITION":4,"NORMAL":5,"TEXCOORD_0":6},"indices":7,"material":0}]},{"primitives":[{"mode":4,"attributes":{"POSITION":8,"NORMAL":9,"TEXCOORD_0":10},"indices":11,"material":0}]}]}