{"asset":{"version":"2.0","generator":"Blockbench 4.11.2 glTF exporter"},"scenes":[{"nodes":[7],"name":"blockbench_export"}],"scene":0,"nodes":[{"rotation":[0,0,-0.5555702330196022,0.8314696123025452],"translation":[0.125,0.8125,0],"name":"cuboid","mesh":0},{"rotation":[0,0,-0.5555702330196022,0.8314696123025452],"translation":[0.125,0.8125,0],"name":"cuboid","mesh":1},{"rotation":[0,0,-0.5555702330196022,0.8314696123025452],"translation":[0.125,0.8125,0],"name":"cuboid","mesh":2},{"rotation":[0,0,0.5555702330196022,0.8314696123025452],"translation":[-0.125,0.8125,0],"name":"cuboid","mesh":3},{"rotation":[0,0,0.5555702330196022,0.8314696123025452],"translation":[-0.125,0.8125,0],"name":"cuboid","mesh":4},{"rotation":[0,0,0.5555702330196022,0.8314696123025452],"translation":[-0.125,0.8125,0],"name":"cuboid","mesh":5},{"name":"Blockade","children":[0,1,2,3,4,5]},{"children":[6]}],"bufferViews":[{"buffer":0,"byteOffset":0,"byteLength":288,"target":34962,"byteStride":12},{"buffer":0,"byteOffset":288,"byteLength":288,"target":34962,"byteStride":12},{"buffer":0,"byteOffset":576,"byteLength":192,"target":34962,"byteStride":8},{"buffer":0,"byteOffset":768,"byteLength":72,"target":34963},{"buffer":0,"byteOffset":840,"byteLength":288,"target":34962,"byteStride":12},{"buffer":0,"byteOffset":1128,"byteLength":288,"target":34962,"byteStride":12},{"buffer":0,"byteOffset":1416,"byteLength":192,"target":34962,"byteStride":8},{"buffer":0,"byteOffset":1608,"byteLength":72,"target":34963},{"buffer":0,"byteOffset":1680,"byteLength":768,"target":34962,"byteStride":12},{"buffer":0,"byteOffset":2448,"byteLength":768,"target":34962,"byteStride":12},{"buffer":0,"byteOffset":3216,"byteLength":512,"target":34962,"byteStride":8},{"buffer":0,"byteOffset":3728,"byteLength":192,"target":34963},{"buffer":0,"byteOffset":3920,"byteLength":288,"target":34962,"byteStride":12},{"buffer":0,"byteOffset":4208,"byteLength":288,"target":34962,"byteStride":12},{"buffer":0,"byteOffset":4496,"byteLength":192,"target":34962,"byteStride":8},{"buffer":0,"byteOffset":4688,"byteLength":72,"target":34963},{"buffer":0,"byteOffset":4760,"byteLength":288,"target":34962,"byteStride":12},{"buffer":0,"byteOffset":5048,"byteLength":288,"target":34962,"byteStride":12},{"buffer":0,"byteOffset":5336,"byteLength":192,"target":34962,"byteStride":8},{"buffer":0,"byteOffset":5528,"byteLength":72,"target":34963},{"buffer":0,"byteOffset":5600,"byteLength":672,"target":34962,"byteStride":12},{"buffer":0,"byteOffset":6272,"byteLength":672,"target":34962,"byteStride":12},{"buffer":0,"byteOffset":6944,"byteLength":448,"target":34962,"byteStride":8},{"buffer":0,"byteOffset":7392,"byteLength":168,"target":34963}],"buffers":[{"byteLength":7560,"uri":"data:application/octet-stream;base64,"}],"accessors":[{"bufferView":0,"componentType":5126,"count":24,"max":[0.08118237555027008,0.02056603692471981,0.5],"min":[-0.16881762444972992,-0.01693396270275116,-0.5],"type":"VEC3"},{"bufferView":1,"componentType":5126,"count":24,"max":[1,1,1],"min":[-1,-1,-1],"type":"VEC3"},{"bufferView":2,"componentType":5126,"count":24,"max":[0.78125,0.46875],"min":[0,0.0625],"type":"VEC2"},{"bufferView":3,"componentType":5123,"count":36,"max":[23],"min":[0],"type":"SCALAR"},{"bufferView":4,"componentType":5126,"count":24,"max":[0.5811823606491089,0.02056603692471981,0.5],"min":[0.3311823606491089,-0.01693396270275116,-0.5],"type":"VEC3"},{"bufferView":5,"componentType":5126,"count":24,"max":[1,1,1],"min":[-1,-1,-1],"type":"VEC3"},{"bufferView":6,"componentType":5126,"count":24,"max":[0.78125,0.46875],"min":[0,0.03125],"type":"VEC2"},{"bufferView":7,"componentType":5123,"count":36,"max":[23],"min":[0],"type":"SCALAR"},{"bufferView":8,"componentType":5126,"count":64,"max":[0.8436823487281799,-0.01693396270275116,0.48124998807907104],"min":[-0.21627925336360931,-0.815569281578064,0.41874998807907104],"type":"VEC3"},{"bufferView":9,"componentType":5126,"count":64,"max":[1,1,1],"min":[-0.9238795042037964,-0.9999823570251465,-1],"type":"VEC3"},{"bufferView":10,"componentType":5126,"count":64,"max":[0.7929603457450867,0.734375],"min":[0,0],"type":"VEC2"},{"bufferView":11,"componentType":5123,"count":96,"max":[63],"min":[0],"type":"SCALAR"},{"bufferView":12,"componentType":5126,"count":24,"max":[0.16881762444972992,0.02056603692471981,0.5],"min":[-0.08118237555027008,-0.01693396270275116,-0.5],"type":"VEC3"},{"bufferView":13,"componentType":5126,"count":24,"max":[1,1,1],"min":[-1,-1,-1],"type":"VEC3"},{"bufferView":14,"componentType":5126,"count":24,"max":[0.78125,0.46875],"min":[0,0.078125],"type":"VEC2"},{"bufferView":15,"componentType":5123,"count":36,"max":[23],"min":[0],"type":"SCALAR"},{"bufferView":16,"componentType":5126,"count":24,"max":[-0.3311823606491089,0.02056603692471981,0.5],"min":[-0.5811823606491089,-0.01693396270275116,-0.5],"type":"VEC3"},{"bufferView":17,"componentType":5126,"count":24,"max":[1,1,1],"min":[-1,-1,-1],"type":"VEC3"},{"bufferView":18,"componentType":5126,"count":24,"max":[0.78125,0.46875],"min":[0,0.03125],"type":"VEC2"},{"bufferView":19,"componentType":5123,"count":36,"max":[23],"min":[0],"type":"SCALAR"},{"bufferView":20,"componentType":5126,"count":56,"max":[0.21627925336360931,-0.01693396270275116,-0.41874998807907104],"min":[-0.8436823487281799,-0.815569281578064,-0.48124998807907104],"type":"VEC3"},{"bufferView":21,"componentType":5126,"count":56,"max":[0.9238795042037964,1,1],"min":[-1,-0.9999823570251465,-1],"type":"VEC3"},{"bufferView":22,"componentType":5126,"count":56,"max":[0.78125,0.734375],"min":[0.109375,0],"type":"VEC2"},{"bufferView":23,"componentType":5123,"count":84,"max":[55],"min":[0],"type":"SCALAR"}],"materials":[{"pbrMetallicRoughness":{"metallicFactor":0,"roughnessFactor":1,"baseColorTexture":{"index":0}},"alphaMode":"MASK","alphaCutoff":0.05,"doubleSided":true}],"textures":[{"sampler":0,"source":0,"name":"RoadBlock.png"}],"samplers":[{"magFilter":9728,"minFilter":9728,"wrapS":33071,"wrapT":33071}],"images":[{"mimeType":"image/png","uri":"data:image/png;base64,"}],"meshes":[{"primitives":[{"mode":4,"attributes":{"POSITION":0,"NORMAL":1,"TEXCOORD_0":2},"indices":3,"material":0}]},{"primitives":[{"mode":4,"attributes":{"POSITION":4,"NORMAL":5,"TEXCOORD_0":6},"indices":7,"material":0}]},{"primitives":[{"mode":4,"attributes":{"POSITION":8,"NORMAL":9,"TEXCOORD_0":10},"indices":11,"material":0}]},{"primitives":[{"mode":4,"attributes":{"POSITION":12,"NORMAL":13,"TEXCOORD_0":14},"indices":15,"material":0}]},{"primitives":[{"mode":4,"attributes":{"POSITION":16,"NORMAL":17,"TEXCOORD_0":18},"indices":19,"material":0}]},{"primitives":[{"mode":4,"attributes":{"POSITION":20,"NORMAL":21,"TEXCOORD_0":22},"indices":23,"material":0}]}]}