{"asset":{"version":"2.0","generator":"Blockbench 4.11.2 glTF exporter"},"scenes":[{"nodes":[10],"name":"blockbench_export"}],"scene":0,"nodes":[{"name":"Container","mesh":0},{"translation":[0.4375,0.006249999999999978,0.5000000000000003],"name":"Door","mesh":1},{"translation":[3.5,0.10625000000000001,-1.2062500000000003],"name":"FrontRightDoor","children":[1]},{"translation":[0.4375,0.006249999999999978,-0.5000000000000003],"name":"Door","mesh":2},{"translation":[3.5,0.10625000000000001,1.2062500000000003],"name":"FrontLeftDoor","children":[3]},{"translation":[-0.4375,0.006249999999999978,0.5000000000000003],"name":"Door","mesh":3},{"translation":[-3.5,0.10625000000000001,-1.2062500000000003],"name":"BackLeftDoor","children":[5]},{"translation":[-0.4375,0.006249999999999978,-0.5000000000000003],"name":"Door","mesh":4},{"translation":[-3.5,0.10625000000000001,1.2062500000000003],"name":"BackRightDoor","children":[7]},{"translation":[0,0.0625,0],"name":"ShippingContainer","children":[0,2,4,6,8]},{"children":[9]}],"bufferViews":[{"buffer":0,"byteOffset":0,"byteLength":3696,"target":34962,"byteStride":12},{"buffer":0,"byteOffset":3696,"byteLength":3696,"target":34962,"byteStride":12},{"buffer":0,"byteOffset":7392,"byteLength":2464,"target":34962,"byteStride":8},{"buffer":0,"byteOffset":9856,"byteLength":912,"target":34963},{"buffer":0,"byteOffset":10768,"byteLength":2208,"target":34962,"byteStride":12},{"buffer":0,"byteOffset":12976,"byteLength":2208,"target":34962,"byteStride":12},{"buffer":0,"byteOffset":15184,"byteLength":1472,"target":34962,"byteStride":8},{"buffer":0,"byteOffset":16656,"byteLength":552,"target":34963},{"buffer":0,"byteOffset":17208,"byteLength":2208,"target":34962,"byteStride":12},{"buffer":0,"byteOffset":19416,"byteLength":2208,"target":34962,"byteStride":12},{"buffer":0,"byteOffset":21624,"byteLength":1472,"target":34962,"byteStride":8},{"buffer":0,"byteOffset":23096,"byteLength":552,"target":34963},{"buffer":0,"byteOffset":23648,"byteLength":2208,"target":34962,"byteStride":12},{"buffer":0,"byteOffset":25856,"byteLength":2208,"target":34962,"byteStride":12},{"buffer":0,"byteOffset":28064,"byteLength":1472,"target":34962,"byteStride":8},{"buffer":0,"byteOffset":29536,"byteLength":552,"target":34963},{"buffer":0,"byteOffset":30088,"byteLength":2208,"target":34962,"byteStride":12},{"buffer":0,"byteOffset":32296,"byteLength":2208,"target":34962,"byteStride":12},{"buffer":0,"byteOffset":34504,"byteLength":1472,"target":34962,"byteStride":8},{"buffer":0,"byteOffset":35976,"byteLength":552,"target":34963}],"buffers":[{"byteLength":36528,"uri":"data:application/octet-stream;base64,"}],"accessors":[{"bufferView":0,"componentType":5126,"count":308,"max":[3.5,2.9375,1.25],"min":[-3.5,-0.0625,-1.25],"type":"VEC3"},{"bufferView":1,"componentType":5126,"count":308,"max":[1,1,1],"min":[-1,-1,-1],"type":"VEC3"},{"bufferView":2,"componentType":5126,"count":308,"max":[0.439453125,0.6614843606948853],"min":[0,0],"type":"VEC2"},{"bufferView":3,"componentType":5123,"count":456,"max":[307],"min":[0],"type":"SCALAR"},{"bufferView":4,"componentType":5126,"count":184,"max":[-0.375,2.7750000953674316,0.706250011920929],"min":[-0.5,-0.05000000074505806,-0.5],"type":"VEC3"},{"bufferView":5,"componentType":5126,"count":184,"max":[1,1,1],"min":[-1,-1,-1],"type":"VEC3"},{"bufferView":6,"componentType":5126,"count":184,"max":[0.421875,0.5082031488418579],"min":[0.0006835937383584678,0.326171875],"type":"VEC2"},{"bufferView":7,"componentType":5123,"count":276,"max":[183],"min":[0],"type":"SCALAR"},{"bufferView":8,"componentType":5126,"count":184,"max":[-0.375,2.7750000953674316,0.5],"min":[-0.5,-0.05000000074505806,-0.706250011920929],"type":"VEC3"},{"bufferView":9,"componentType":5126,"count":184,"max":[1,1,1],"min":[-1,-1,-1],"type":"VEC3"},{"bufferView":10,"componentType":5126,"count":184,"max":[0.39453125,0.5121093988418579],"min":[0.04169921949505806,0.349609375],"type":"VEC2"},{"bufferView":11,"componentType":5123,"count":276,"max":[183],"min":[0],"type":"SCALAR"},{"bufferView":12,"componentType":5126,"count":184,"max":[0.5,2.7750000953674316,0.706250011920929],"min":[0.375,-0.05000000074505806,-0.5],"type":"VEC3"},{"bufferView":13,"componentType":5126,"count":184,"max":[1,1,1],"min":[-1,-1,-1],"type":"VEC3"},{"bufferView":14,"componentType":5126,"count":184,"max":[0.42578125,0.5121093988418579],"min":[0.08271484076976776,0.326171875],"type":"VEC2"},{"bufferView":15,"componentType":5123,"count":276,"max":[183],"min":[0],"type":"SCALAR"},{"bufferView":16,"componentType":5126,"count":184,"max":[0.5,2.7750000953674316,0.5],"min":[0.375,-0.05000000074505806,-0.706250011920929],"type":"VEC3"},{"bufferView":17,"componentType":5126,"count":184,"max":[1,1,1],"min":[-1,-1,-1],"type":"VEC3"},{"bufferView":18,"componentType":5126,"count":184,"max":[0.42578125,0.5121093988418579],"min":[0.12373046576976776,0.326171875],"type":"VEC2"},{"bufferView":19,"componentType":5123,"count":276,"max":[183],"min":[0],"type":"SCALAR"}],"materials":[{"pbrMetallicRoughness":{"metallicFactor":0,"roughnessFactor":1,"baseColorTexture":{"index":0}},"alphaMode":"MASK","alphaCutoff":0.05,"doubleSided":true}],"textures":[{"sampler":0,"source":0,"name":"ShippingContainer.png"}],"samplers":[{"magFilter":9728,"minFilter":9728,"wrapS":33071,"wrapT":33071}],"images":[{"mimeType":"image/png","uri":"data:image/png;base64,"}],"meshes":[{"primitives":[{"mode":4,"attributes":{"POSITION":0,"NORMAL":1,"TEXCOORD_0":2},"indices":3,"material":0}]},{"primitives":[{"mode":4,"attributes":{"POSITION":4,"NORMAL":5,"TEXCOORD_0":6},"indices":7,"material":0}]},{"primitives":[{"mode":4,"attributes":{"POSITION":8,"NORMAL":9,"TEXCOORD_0":10},"indices":11,"material":0}]},{"primitives":[{"mode":4,"attributes":{"POSITION":12,"NORMAL":13,"TEXCOORD_0":14},"indices":15,"material":0}]},{"primitives":[{"mode":4,"attributes":{"POSITION":16,"NORMAL":17,"TEXCOORD_0":18},"indices":19,"material":0}]}]}