{"asset":{"version":"2.0","generator":"Blockbench 4.11.2 glTF exporter"},"scenes":[{"nodes":[9],"name":"blockbench_export"}],"scene":0,"nodes":[{"translation":[0,0.0625,0],"name":"ShelfFloor","mesh":0},{"translation":[0,0.9375,0],"name":"ShelfFloor","mesh":1},{"translation":[0,1.8125,0],"name":"ShelfFloor","mesh":2},{"translation":[0.125,0.0625,1.75],"name":"Leg","mesh":3},{"translation":[-0.9375,0.0625,1.75],"name":"Leg","mesh":4},{"translation":[-0.9375,0.0625,-0.0625],"name":"Leg","mesh":5},{"translation":[0.125,0.0625,-0.0625],"name":"Leg","mesh":6},{"rotation":[0,0,-0.7071067811865475,0.7071067811865476],"translation":[-0.50625,1,0],"name":"Backbrace","mesh":7},{"name":"Shelf","children":[0,1,2,3,4,5,6,7]},{"children":[8]}],"bufferViews":[{"buffer":0,"byteOffset":0,"byteLength":240,"target":34962,"byteStride":12},{"buffer":0,"byteOffset":240,"byteLength":240,"target":34962,"byteStride":12},{"buffer":0,"byteOffset":480,"byteLength":160,"target":34962,"byteStride":8},{"buffer":0,"byteOffset":640,"byteLength":60,"target":34963},{"buffer":0,"byteOffset":700,"byteLength":240,"target":34962,"byteStride":12},{"buffer":0,"byteOffset":940,"byteLength":240,"target":34962,"byteStride":12},{"buffer":0,"byteOffset":1180,"byteLength":160,"target":34962,"byteStride":8},{"buffer":0,"byteOffset":1340,"byteLength":60,"target":34963},{"buffer":0,"byteOffset":1400,"byteLength":240,"target":34962,"byteStride":12},{"buffer":0,"byteOffset":1640,"byteLength":240,"target":34962,"byteStride":12},{"buffer":0,"byteOffset":1880,"byteLength":160,"target":34962,"byteStride":8},{"buffer":0,"byteOffset":2040,"byteLength":60,"target":34963},{"buffer":0,"byteOffset":2100,"byteLength":288,"target":34962,"byteStride":12},{"buffer":0,"byteOffset":2388,"byteLength":288,"target":34962,"byteStride":12},{"buffer":0,"byteOffset":2676,"byteLength":192,"target":34962,"byteStride":8},{"buffer":0,"byteOffset":2868,"byteLength":72,"target":34963},{"buffer":0,"byteOffset":2940,"byteLength":288,"target":34962,"byteStride":12},{"buffer":0,"byteOffset":3228,"byteLength":288,"target":34962,"byteStride":12},{"buffer":0,"byteOffset":3516,"byteLength":192,"target":34962,"byteStride":8},{"buffer":0,"byteOffset":3708,"byteLength":72,"target":34963},{"buffer":0,"byteOffset":3780,"byteLength":288,"target":34962,"byteStride":12},{"buffer":0,"byteOffset":4068,"byteLength":288,"target":34962,"byteStride":12},{"buffer":0,"byteOffset":4356,"byteLength":192,"target":34962,"byteStride":8},{"buffer":0,"byteOffset":4548,"byteLength":72,"target":34963},{"buffer":0,"byteOffset":4620,"byteLength":288,"target":34962,"byteStride":12},{"buffer":0,"byteOffset":4908,"byteLength":288,"target":34962,"byteStride":12},{"buffer":0,"byteOffset":5196,"byteLength":192,"target":34962,"byteStride":8},{"buffer":0,"byteOffset":5388,"byteLength":72,"target":34963},{"buffer":0,"byteOffset":5460,"byteLength":48,"target":34962,"byteStride":12},{"buffer":0,"byteOffset":5508,"byteLength":48,"target":34962,"byteStride":12},{"buffer":0,"byteOffset":5556,"byteLength":32,"target":34962,"byteStride":8},{"buffer":0,"byteOffset":5588,"byteLength":12,"target":34963}],"buffers":[{"byteLength":5600,"uri":"data:application/octet-stream;base64,"}],"accessors":[{"bufferView":0,"componentType":5126,"count":20,"max":[0.5,0.0625,0.9375],"min":[-0.5,0,-0.9375],"type":"VEC3"},{"bufferView":1,"componentType":5126,"count":20,"max":[1,1,1],"min":[-1,0,-1],"type":"VEC3"},{"bufferView":2,"componentType":5126,"count":20,"max":[0.7109375,0.234375],"min":[0.2109375,0],"type":"VEC2"},{"bufferView":3,"componentType":5123,"count":30,"max":[19],"min":[0],"type":"SCALAR"},{"bufferView":4,"componentType":5126,"count":20,"max":[0.5,0.0625,0.9375],"min":[-0.5,0,-0.9375],"type":"VEC3"},{"bufferView":5,"componentType":5126,"count":20,"max":[1,1,1],"min":[-1,0,-1],"type":"VEC3"},{"bufferView":6,"componentType":5126,"count":20,"max":[0.7109375,0.234375],"min":[0.2109375,0],"type":"VEC2"},{"bufferView":7,"componentType":5123,"count":30,"max":[19],"min":[0],"type":"SCALAR"},{"bufferView":8,"componentType":5126,"count":20,"max":[0.5,0.0625,0.9375],"min":[-0.5,0,-0.9375],"type":"VEC3"},{"bufferView":9,"componentType":5126,"count":20,"max":[1,1,1],"min":[-1,0,-1],"type":"VEC3"},{"bufferView":10,"componentType":5126,"count":20,"max":[0.7109375,0.234375],"min":[0.2109375,0],"type":"VEC2"},{"bufferView":11,"componentType":5123,"count":30,"max":[19],"min":[0],"type":"SCALAR"},{"bufferView":12,"componentType":5126,"count":24,"max":[0.4375,1.875,-0.75],"min":[0.375,-0.0625,-0.9375],"type":"VEC3"},{"bufferView":13,"componentType":5126,"count":24,"max":[1,1,1],"min":[-1,-1,-1],"type":"VEC3"},{"bufferView":14,"componentType":5126,"count":24,"max":[0.484375,0.484375],"min":[0,0.1875],"type":"VEC2"},{"bufferView":15,"componentType":5123,"count":36,"max":[23],"min":[0],"type":"SCALAR"},{"bufferView":16,"componentType":5126,"count":24,"max":[0.4375,1.875,-0.75],"min":[0.375,-0.0625,-0.9375],"type":"VEC3"},{"bufferView":17,"componentType":5126,"count":24,"max":[1,1,1],"min":[-1,-1,-1],"type":"VEC3"},{"bufferView":18,"componentType":5126,"count":24,"max":[0.4140625,0.484375],"min":[0.0625,0.2421875],"type":"VEC2"},{"bufferView":19,"componentType":5123,"count":36,"max":[23],"min":[0],"type":"SCALAR"},{"bufferView":20,"componentType":5126,"count":24,"max":[0.4375,1.875,-0.75],"min":[0.375,-0.0625,-0.9375],"type":"VEC3"},{"bufferView":21,"componentType":5126,"count":24,"max":[1,1,1],"min":[-1,-1,-1],"type":"VEC3"},{"bufferView":22,"componentType":5126,"count":24,"max":[0.4453125,0.484375],"min":[0.125,0.2421875],"type":"VEC2"},{"bufferView":23,"componentType":5123,"count":36,"max":[23],"min":[0],"type":"SCALAR"},{"bufferView":24,"componentType":5126,"count":24,"max":[0.4375,1.875,-0.75],"min":[0.375,-0.0625,-0.9375],"type":"VEC3"},{"bufferView":25,"componentType":5126,"count":24,"max":[1,1,1],"min":[-1,-1,-1],"type":"VEC3"},{"bufferView":26,"componentType":5126,"count":24,"max":[0.4765625,0.484375],"min":[0.1875,0.2421875],"type":"VEC2"},{"bufferView":27,"componentType":5123,"count":36,"max":[23],"min":[0],"type":"SCALAR"},{"bufferView":28,"componentType":5126,"count":4,"max":[0.9375,8.326672684688674e-17,0.8125],"min":[-0.875,-9.71445146547012e-17,-0.8125],"type":"VEC3"},{"bufferView":29,"componentType":5126,"count":4,"max":[9.953723714690679e-17,1,0],"min":[9.953723714690679e-17,1,0],"type":"VEC3"},{"bufferView":30,"componentType":5126,"count":4,"max":[0.203125,0.2265625],"min":[0,0],"type":"VEC2"},{"bufferView":31,"componentType":5123,"count":6,"max":[3],"min":[0],"type":"SCALAR"}],"materials":[{"pbrMetallicRoughness":{"metallicFactor":0,"roughnessFactor":1,"baseColorTexture":{"index":0}},"alphaMode":"MASK","alphaCutoff":0.05,"doubleSided":true}],"textures":[{"sampler":0,"source":0,"name":"StorageShelf.png"}],"samplers":[{"magFilter":9728,"minFilter":9728,"wrapS":33071,"wrapT":33071}],"images":[{"mimeType":"image/png","uri":"data:image/png;base64,"}],"meshes":[{"primitives":[{"mode":4,"attributes":{"POSITION":0,"NORMAL":1,"TEXCOORD_0":2},"indices":3,"material":0}]},{"primitives":[{"mode":4,"attributes":{"POSITION":4,"NORMAL":5,"TEXCOORD_0":6},"indices":7,"material":0}]},{"primitives":[{"mode":4,"attributes":{"POSITION":8,"NORMAL":9,"TEXCOORD_0":10},"indices":11,"material":0}]},{"primitives":[{"mode":4,"attributes":{"POSITION":12,"NORMAL":13,"TEXCOORD_0":14},"indices":15,"material":0}]},{"primitives":[{"mode":4,"attributes":{"POSITION":16,"NORMAL":17,"TEXCOORD_0":18},"indices":19,"material":0}]},{"primitives":[{"mode":4,"attributes":{"POSITION":20,"NORMAL":21,"TEXCOORD_0":22},"indices":23,"material":0}]},{"primitives":[{"mode":4,"attributes":{"POSITION":24,"NORMAL":25,"TEXCOORD_0":26},"indices":27,"material":0}]},{"primitives":[{"mode":4,"attributes":{"POSITION":28,"NORMAL":29,"TEXCOORD_0":30},"indices":31,"material":0}]}]}