{"asset":{"version":"2.0","generator":"Blockbench 4.11.2 glTF exporter"},"scenes":[{"nodes":[2],"name":"blockbench_export"}],"scene":0,"nodes":[{"name":"Box","mesh":0},{"name":"Box","children":[0]},{"children":[1]}],"bufferViews":[{"buffer":0,"byteOffset":0,"byteLength":1824,"target":34962,"byteStride":12},{"buffer":0,"byteOffset":1824,"byteLength":1824,"target":34962,"byteStride":12},{"buffer":0,"byteOffset":3648,"byteLength":1216,"target":34962,"byteStride":8},{"buffer":0,"byteOffset":4864,"byteLength":432,"target":34963}],"buffers":[{"byteLength":5296,"uri":"data:application/octet-stream;base64,"}],"accessors":[{"bufferView":0,"componentType":5126,"count":152,"max":[0.40625,0.78125,0.40625],"min":[-0.40625,-1.0755285551056204e-16,-0.40625],"type":"VEC3"},{"bufferView":1,"componentType":5126,"count":152,"max":[1,1,1],"min":[-1,0,-1],"type":"VEC3"},{"bufferView":2,"componentType":5126,"count":152,"max":[0.78125,0.59375],"min":[0,0],"type":"VEC2"},{"bufferView":3,"componentType":5123,"count":216,"max":[151],"min":[0],"type":"SCALAR"}],"materials":[{"pbrMetallicRoughness":{"metallicFactor":0,"roughnessFactor":1,"baseColorTexture":{"index":0}},"alphaMode":"MASK","alphaCutoff":0.05,"doubleSided":true}],"textures":[{"sampler":0,"source":0,"name":"StorageBox.png"}],"samplers":[{"magFilter":9728,"minFilter":9728,"wrapS":33071,"wrapT":33071}],"images":[{"mimeType":"image/png","uri":"data:image/png;base64,"}],"meshes":[{"primitives":[{"mode":4,"attributes":{"POSITION":0,"NORMAL":1,"TEXCOORD_0":2},"indices":3,"material":0}]}]}