{"asset":{"version":"2.0","generator":"Blockbench 4.11.2 glTF exporter"},"scenes":[{"nodes":[2],"name":"blockbench_export"}],"scene":0,"nodes":[{"name":"Trashbag","mesh":0},{"name":"TrashBag","children":[0]},{"children":[1]}],"bufferViews":[{"buffer":0,"byteOffset":0,"byteLength":5508,"target":34962,"byteStride":12},{"buffer":0,"byteOffset":5508,"byteLength":5508,"target":34962,"byteStride":12},{"buffer":0,"byteOffset":11016,"byteLength":3672,"target":34962,"byteStride":8},{"buffer":0,"byteOffset":14688,"byteLength":1304,"target":34963}],"buffers":[{"byteLength":15992,"uri":"data:application/octet-stream;base64,"}],"accessors":[{"bufferView":0,"componentType":5126,"count":459,"max":[0.6499999761581421,1.0826826095581055,0.4705126881599426],"min":[-0.606249988079071,-0.0017627018969506025,-0.41874998807907104],"type":"VEC3"},{"bufferView":1,"componentType":5126,"count":459,"max":[0.9917942881584167,0.9872521758079529,0.9951157569885254],"min":[-0.9659258127212524,-0.9999293684959412,-0.9711509346961975],"type":"VEC3"},{"bufferView":2,"componentType":5126,"count":459,"max":[0.6644119024276733,0.617475688457489],"min":[0,0],"type":"VEC2"},{"bufferView":3,"componentType":5123,"count":651,"max":[458],"min":[0],"type":"SCALAR"}],"materials":[{"pbrMetallicRoughness":{"metallicFactor":0,"roughnessFactor":1,"baseColorTexture":{"index":0}},"alphaMode":"MASK","alphaCutoff":0.05,"doubleSided":true}],"textures":[{"sampler":0,"source":0,"name":"Trashbag.png"}],"samplers":[{"magFilter":9728,"minFilter":9728,"wrapS":33071,"wrapT":33071}],"images":[{"mimeType":"image/png","uri":"data:image/png;base64,"}],"meshes":[{"primitives":[{"mode":4,"attributes":{"POSITION":0,"NORMAL":1,"TEXCOORD_0":2},"indices":3,"material":0}]}]}