{"asset":{"version":"2.0","generator":"Blockbench 4.11.2 glTF exporter"},"scenes":[{"nodes":[7],"name":"blockbench_export"}],"scene":0,"nodes":[{"translation":[0,0,-2.9375],"name":"Fencepost","mesh":0},{"translation":[0,0,-2.9375],"name":"Fencepost","mesh":1},{"rotation":[0,0,-0.7071067811865475,0.7071067811865476],"translation":[0,0.0625,-1.5],"name":"Wire","mesh":2},{"rotation":[0,0,-0.9238795325112867,0.38268343236508984],"translation":[-1.1875,2.1875,-1.5],"name":"Fence","mesh":3},{"rotation":[-0.9238795325112872,0.3826834323650888,-7.04569389013909e-16,1.5598163461772917e-15],"translation":[0.13832521472477677,2.7178300858899096,-1.5],"name":"BarbBillboard","mesh":4},{"rotation":[0,0,0.9238795325112867,0.38268343236508984],"translation":[0.13832521472477677,2.7178300858899096,-1.5],"name":"BarbBillboard","mesh":5},{"translation":[0,0,1.5],"name":"Fence","children":[0,1,2,3,4,5]},{"children":[6]}],"bufferViews":[{"buffer":0,"byteOffset":0,"byteLength":480,"target":34962,"byteStride":12},{"buffer":0,"byteOffset":480,"byteLength":480,"target":34962,"byteStride":12},{"buffer":0,"byteOffset":960,"byteLength":320,"target":34962,"byteStride":8},{"buffer":0,"byteOffset":1280,"byteLength":120,"target":34963},{"buffer":0,"byteOffset":1400,"byteLength":480,"target":34962,"byteStride":12},{"buffer":0,"byteOffset":1880,"byteLength":480,"target":34962,"byteStride":12},{"buffer":0,"byteOffset":2360,"byteLength":320,"target":34962,"byteStride":8},{"buffer":0,"byteOffset":2680,"byteLength":120,"target":34963},{"buffer":0,"byteOffset":2800,"byteLength":48,"target":34962,"byteStride":12},{"buffer":0,"byteOffset":2848,"byteLength":48,"target":34962,"byteStride":12},{"buffer":0,"byteOffset":2896,"byteLength":32,"target":34962,"byteStride":8},{"buffer":0,"byteOffset":2928,"byteLength":12,"target":34963},{"buffer":0,"byteOffset":2940,"byteLength":48,"target":34962,"byteStride":12},{"buffer":0,"byteOffset":2988,"byteLength":48,"target":34962,"byteStride":12},{"buffer":0,"byteOffset":3036,"byteLength":32,"target":34962,"byteStride":8},{"buffer":0,"byteOffset":3068,"byteLength":12,"target":34963},{"buffer":0,"byteOffset":3080,"byteLength":48,"target":34962,"byteStride":12},{"buffer":0,"byteOffset":3128,"byteLength":48,"target":34962,"byteStride":12},{"buffer":0,"byteOffset":3176,"byteLength":32,"target":34962,"byteStride":8},{"buffer":0,"byteOffset":3208,"byteLength":12,"target":34963},{"buffer":0,"byteOffset":3220,"byteLength":48,"target":34962,"byteStride":12},{"buffer":0,"byteOffset":3268,"byteLength":48,"target":34962,"byteStride":12},{"buffer":0,"byteOffset":3316,"byteLength":32,"target":34962,"byteStride":8},{"buffer":0,"byteOffset":3348,"byteLength":12,"target":34963}],"buffers":[{"byteLength":3360,"uri":"data:application/octet-stream;base64,"}],"accessors":[{"bufferView":0,"componentType":5126,"count":40,"max":[0.3535533845424652,2.959101438522339,1.6479873021779667e-17],"min":[-0.0625,0,-0.0625],"type":"VEC3"},{"bufferView":1,"componentType":5126,"count":40,"max":[1,0.6799681186676025,1],"min":[-1,-1,-1],"type":"VEC3"},{"bufferView":2,"componentType":5126,"count":40,"max":[0.44129520654678345,0.7578125],"min":[0.015625,0.109375],"type":"VEC2"},{"bufferView":3,"componentType":5123,"count":60,"max":[39],"min":[0],"type":"SCALAR"},{"bufferView":4,"componentType":5126,"count":40,"max":[0.3535533845424652,2.959101438522339,2.9375],"min":[-0.0625,0,2.875],"type":"VEC3"},{"bufferView":5,"componentType":5126,"count":40,"max":[1,0.6799681186676025,1],"min":[-1,-1,-1],"type":"VEC3"},{"bufferView":6,"componentType":5126,"count":40,"max":[0.4375,0.7265625],"min":[0.0625,0],"type":"VEC2"},{"bufferView":7,"componentType":5123,"count":60,"max":[39],"min":[0],"type":"SCALAR"},{"bufferView":8,"componentType":5126,"count":4,"max":[0.0625,5.412337245047638e-16,1.4375],"min":[-2.5,0,-1.4375],"type":"VEC3"},{"bufferView":9,"componentType":5126,"count":4,"max":[2.1121315787712714e-16,1,0],"min":[2.1121315787712714e-16,1,0],"type":"VEC3"},{"bufferView":10,"componentType":5126,"count":4,"max":[0.359375,0.3203125],"min":[0,0],"type":"VEC2"},{"bufferView":11,"componentType":5123,"count":6,"max":[3],"min":[0],"type":"SCALAR"},{"bufferView":12,"componentType":5126,"count":4,"max":[-1.125,0.5625,1.4375],"min":[-1.5625,0.5625,-1.4375],"type":"VEC3"},{"bufferView":13,"componentType":5126,"count":4,"max":[1.0150610964626224e-15,1,0],"min":[1.0150610964626224e-15,1,0],"type":"VEC3"},{"bufferView":14,"componentType":5126,"count":4,"max":[0.359375,0.98828125],"min":[0,0.93359375],"type":"VEC2"},{"bufferView":15,"componentType":5123,"count":6,"max":[3],"min":[0],"type":"SCALAR"},{"bufferView":16,"componentType":5126,"count":4,"max":[0.21875,0.0625,1.4375],"min":[-0.21875,0.0625,-1.4375],"type":"VEC3"},{"bufferView":17,"componentType":5126,"count":4,"max":[1.0150610964626224e-15,1,0],"min":[1.0150610964626224e-15,1,0],"type":"VEC3"},{"bufferView":18,"componentType":5126,"count":4,"max":[0.359375,0.875],"min":[0,0.8203125],"type":"VEC2"},{"bufferView":19,"componentType":5123,"count":6,"max":[3],"min":[0],"type":"SCALAR"},{"bufferView":20,"componentType":5126,"count":4,"max":[0.21875,-0.125,1.4375],"min":[-0.21875,-0.125,-1.4375],"type":"VEC3"},{"bufferView":21,"componentType":5126,"count":4,"max":[1.0150610964626224e-15,1,0],"min":[1.0150610964626224e-15,1,0],"type":"VEC3"},{"bufferView":22,"componentType":5126,"count":4,"max":[0.359375,0.875],"min":[0,0.8203125],"type":"VEC2"},{"bufferView":23,"componentType":5123,"count":6,"max":[3],"min":[0],"type":"SCALAR"}],"materials":[{"pbrMetallicRoughness":{"metallicFactor":0,"roughnessFactor":1,"baseColorTexture":{"index":0}},"alphaMode":"MASK","alphaCutoff":0.05,"doubleSided":true}],"textures":[{"sampler":0,"source":0,"name":"Fence"}],"samplers":[{"magFilter":9728,"minFilter":9728,"wrapS":33071,"wrapT":33071}],"images":[{"mimeType":"image/png","uri":"data:image/png;base64,"}],"meshes":[{"primitives":[{"mode":4,"attributes":{"POSITION":0,"NORMAL":1,"TEXCOORD_0":2},"indices":3,"material":0}]},{"primitives":[{"mode":4,"attributes":{"POSITION":4,"NORMAL":5,"TEXCOORD_0":6},"indices":7,"material":0}]},{"primitives":[{"mode":4,"attributes":{"POSITION":8,"NORMAL":9,"TEXCOORD_0":10},"indices":11,"material":0}]},{"primitives":[{"mode":4,"attributes":{"POSITION":12,"NORMAL":13,"TEXCOORD_0":14},"indices":15,"material":0}]},{"primitives":[{"mode":4,"attributes":{"POSITION":16,"NORMAL":17,"TEXCOORD_0":18},"indices":19,"material":0}]},{"primitives":[{"mode":4,"attributes":{"POSITION":20,"NORMAL":21,"TEXCOORD_0":22},"indices":23,"material":0}]}]}