{"asset":{"version":"2.0","generator":"Blockbench 4.12.2 glTF exporter"},"scenes":[{"nodes":[3],"name":"blockbench_export"}],"scene":0,"nodes":[{"name":"LampBody","mesh":0},{"name":"LampGlass","mesh":1},{"translation":[0,-0.25,0.125],"name":"Lamp","children":[0,1]},{"children":[2]}],"bufferViews":[{"buffer":0,"byteOffset":0,"byteLength":6912,"target":34962,"byteStride":12},{"buffer":0,"byteOffset":6912,"byteLength":6912,"target":34962,"byteStride":12},{"buffer":0,"byteOffset":13824,"byteLength":4608,"target":34962,"byteStride":8},{"buffer":0,"byteOffset":18432,"byteLength":1728,"target":34963},{"buffer":0,"byteOffset":20160,"byteLength":1248,"target":34962,"byteStride":12},{"buffer":0,"byteOffset":21408,"byteLength":1248,"target":34962,"byteStride":12},{"buffer":0,"byteOffset":22656,"byteLength":832,"target":34962,"byteStride":8},{"buffer":0,"byteOffset":23488,"byteLength":312,"target":34963}],"buffers":[{"byteLength":23800,"uri":"data:application/octet-stream;base64,"}],"accessors":[{"bufferView":0,"componentType":5126,"count":576,"max":[0.13750000298023224,0.512499988079071,0.07500000298023224],"min":[-0.13750000298023224,-0.012500000186264515,-0.125],"type":"VEC3"},{"bufferView":1,"componentType":5126,"count":576,"max":[1,1,1],"min":[-1,-1,-1],"type":"VEC3"},{"bufferView":2,"componentType":5126,"count":576,"max":[0.8431718945503235,0.8125],"min":[0,0],"type":"VEC2"},{"bufferView":3,"componentType":5123,"count":864,"max":[575],"min":[0],"type":"SCALAR"},{"bufferView":4,"componentType":5126,"count":104,"max":[0.11249999701976776,0.48750001192092896,0.0625],"min":[-0.11249999701976776,0.012500000186264515,-0.0625],"type":"VEC3"},{"bufferView":5,"componentType":5126,"count":104,"max":[1,1,1],"min":[-1,-1,0],"type":"VEC3"},{"bufferView":6,"componentType":5126,"count":104,"max":[0.71875,0.75],"min":[0.125,0],"type":"VEC2"},{"bufferView":7,"componentType":5123,"count":156,"max":[103],"min":[0],"type":"SCALAR"}],"materials":[{"pbrMetallicRoughness":{"metallicFactor":0,"roughnessFactor":1,"baseColorTexture":{"index":0}},"alphaMode":"MASK","alphaCutoff":0.05,"doubleSided":true}],"textures":[{"sampler":0,"source":0,"name":"IndustrialWallLamp.png"}],"samplers":[{"magFilter":9728,"minFilter":9728,"wrapS":33071,"wrapT":33071}],"images":[{"mimeType":"image/png","uri":"data:image/png;base64,"}],"meshes":[{"primitives":[{"mode":4,"attributes":{"POSITION":0,"NORMAL":1,"TEXCOORD_0":2},"indices":3,"material":0}]},{"primitives":[{"mode":4,"attributes":{"POSITION":4,"NORMAL":5,"TEXCOORD_0":6},"indices":7,"material":0}]}]}