{"asset":{"version":"2.0","generator":"Blockbench 4.11.2 glTF exporter"},"scenes":[{"nodes":[27],"name":"blockbench_export"}],"scene":0,"nodes":[{"translation":[0,-0.06250000000000008,-0.0625],"name":"LowerLeg","mesh":0},{"translation":[0,0,-0.2500000000000001],"name":"FrontRight_LowerLegBone","children":[0]},{"translation":[0,-0.03125000000000003,0],"name":"UpperLeg","mesh":1},{"rotation":[-0.1604299972043604,-0.37686961114246326,-0.06645228065352375,0.9098437264664095],"translation":[0.04374999999999998,0.03125,-0.04374999999999998],"name":"FrontRight_UpperLegBone","children":[1,2]},{"translation":[0.0625,0.33125000000000004,-0.0625],"name":"FrontRightPivot","children":[3]},{"translation":[0,-0.06250000000000008,-0.0625],"name":"LowerLeg","mesh":2},{"translation":[0,0,-0.2500000000000001],"name":"FrontLeft_LowerLegBone","children":[5]},{"translation":[0,-0.03125000000000003,0],"name":"UpperLeg","mesh":3},{"rotation":[-0.1604299972043604,0.37686961114246326,0.06645228065352375,0.9098437264664095],"translation":[-0.04374999999999998,0.03125,-0.04374999999999998],"name":"FrontLeft_UpperLegBone","children":[6,7]},{"translation":[-0.0625,0.33125000000000004,-0.0625],"name":"FrontLeftPivot","children":[8]},{"translation":[0,-0.06250000000000008,0.0625],"name":"LowerLeg","mesh":4},{"translation":[0,0,0.2500000000000001],"name":"BackLeft_LowerLegBone","children":[10]},{"translation":[0,-0.03125000000000003,0],"name":"UpperLeg","mesh":5},{"rotation":[0.1604299972043604,-0.37686961114246326,0.06645228065352375,0.9098437264664095],"translation":[-0.04374999999999998,0.03125,0.04374999999999998],"name":"BackLeft_UpperLegBone","children":[11,12]},{"translation":[-0.0625,0.33125000000000004,0.0625],"name":"BackLeftPivot","children":[13]},{"translation":[0,-0.06250000000000008,0.0625],"name":"LowerLeg","mesh":6},{"translation":[0,0,0.2500000000000001],"name":"BackRight_LowerLegBone","children":[15]},{"translation":[0,-0.03125000000000003,0],"name":"UpperLeg","mesh":7},{"rotation":[0.1604299972043604,0.37686961114246326,-0.06645228065352375,0.9098437264664095],"translation":[0.04374999999999998,0.03125,0.04374999999999998],"name":"BackRight_UpperLegBone","children":[16,17]},{"translation":[0.0625,0.33125000000000004,0.0625],"name":"BackRightPivot","children":[18]},{"name":"Hip","children":[4,9,14,19]},{"rotation":[0,-1,0,6.123233995736766e-17],"translation":[-0.12992435016273532,0.11451137917179183,-0.17467712965909396],"name":"FrontLights","mesh":8},{"translation":[-0.004924350162735335,0.4686780458384583,0.006572870340905885],"name":"Body","mesh":9},{"translation":[-0.4424243501627357,0.3145113791717915,0.03782287034090589],"name":"Gun","mesh":10},{"translation":[0,0.4604166666666667,-0.03125],"name":"Head","children":[21,22,23]},{"translation":[0,0.3125,0],"name":"Hip","mesh":11},{"translation":[0,-0.08125000000000002,0],"name":"SmallRobot","children":[20,24,25]},{"children":[26]}],"bufferViews":[{"buffer":0,"byteOffset":0,"byteLength":288,"target":34962,"byteStride":12},{"buffer":0,"byteOffset":288,"byteLength":288,"target":34962,"byteStride":12},{"buffer":0,"byteOffset":576,"byteLength":192,"target":34962,"byteStride":8},{"buffer":0,"byteOffset":768,"byteLength":72,"target":34963},{"buffer":0,"byteOffset":840,"byteLength":288,"target":34962,"byteStride":12},{"buffer":0,"byteOffset":1128,"byteLength":288,"target":34962,"byteStride":12},{"buffer":0,"byteOffset":1416,"byteLength":192,"target":34962,"byteStride":8},{"buffer":0,"byteOffset":1608,"byteLength":72,"target":34963},{"buffer":0,"byteOffset":1680,"byteLength":288,"target":34962,"byteStride":12},{"buffer":0,"byteOffset":1968,"byteLength":288,"target":34962,"byteStride":12},{"buffer":0,"byteOffset":2256,"byteLength":192,"target":34962,"byteStride":8},{"buffer":0,"byteOffset":2448,"byteLength":72,"target":34963},{"buffer":0,"byteOffset":2520,"byteLength":288,"target":34962,"byteStride":12},{"buffer":0,"byteOffset":2808,"byteLength":288,"target":34962,"byteStride":12},{"buffer":0,"byteOffset":3096,"byteLength":192,"target":34962,"byteStride":8},{"buffer":0,"byteOffset":3288,"byteLength":72,"target":34963},{"buffer":0,"byteOffset":3360,"byteLength":288,"target":34962,"byteStride":12},{"buffer":0,"byteOffset":3648,"byteLength":288,"target":34962,"byteStride":12},{"buffer":0,"byteOffset":3936,"byteLength":192,"target":34962,"byteStride":8},{"buffer":0,"byteOffset":4128,"byteLength":72,"target":34963},{"buffer":0,"byteOffset":4200,"byteLength":288,"target":34962,"byteStride":12},{"buffer":0,"byteOffset":4488,"byteLength":288,"target":34962,"byteStride":12},{"buffer":0,"byteOffset":4776,"byteLength":192,"target":34962,"byteStride":8},{"buffer":0,"byteOffset":4968,"byteLength":72,"target":34963},{"buffer":0,"byteOffset":5040,"byteLength":288,"target":34962,"byteStride":12},{"buffer":0,"byteOffset":5328,"byteLength":288,"target":34962,"byteStride":12},{"buffer":0,"byteOffset":5616,"byteLength":192,"target":34962,"byteStride":8},{"buffer":0,"byteOffset":5808,"byteLength":72,"target":34963},{"buffer":0,"byteOffset":5880,"byteLength":288,"target":34962,"byteStride":12},{"buffer":0,"byteOffset":6168,"byteLength":288,"target":34962,"byteStride":12},{"buffer":0,"byteOffset":6456,"byteLength":192,"target":34962,"byteStride":8},{"buffer":0,"byteOffset":6648,"byteLength":72,"target":34963},{"buffer":0,"byteOffset":6720,"byteLength":1056,"target":34962,"byteStride":12},{"buffer":0,"byteOffset":7776,"byteLength":1056,"target":34962,"byteStride":12},{"buffer":0,"byteOffset":8832,"byteLength":704,"target":34962,"byteStride":8},{"buffer":0,"byteOffset":9536,"byteLength":264,"target":34963},{"buffer":0,"byteOffset":9800,"byteLength":2112,"target":34962,"byteStride":12},{"buffer":0,"byteOffset":11912,"byteLength":2112,"target":34962,"byteStride":12},{"buffer":0,"byteOffset":14024,"byteLength":1408,"target":34962,"byteStride":8},{"buffer":0,"byteOffset":15432,"byteLength":528,"target":34963},{"buffer":0,"byteOffset":15960,"byteLength":1608,"target":34962,"byteStride":12},{"buffer":0,"byteOffset":17568,"byteLength":1608,"target":34962,"byteStride":12},{"buffer":0,"byteOffset":19176,"byteLength":1072,"target":34962,"byteStride":8},{"buffer":0,"byteOffset":20248,"byteLength":384,"target":34963},{"buffer":0,"byteOffset":20632,"byteLength":960,"target":34962,"byteStride":12},{"buffer":0,"byteOffset":21592,"byteLength":960,"target":34962,"byteStride":12},{"buffer":0,"byteOffset":22552,"byteLength":640,"target":34962,"byteStride":8},{"buffer":0,"byteOffset":23192,"byteLength":192,"target":34963},{"buffer":0,"byteOffset":23384,"byteLength":4},{"buffer":0,"byteOffset":23388,"byteLength":16},{"buffer":0,"byteOffset":23404,"byteLength":36},{"buffer":0,"byteOffset":23440,"byteLength":144},{"buffer":0,"byteOffset":23584,"byteLength":32},{"buffer":0,"byteOffset":23616,"byteLength":128},{"buffer":0,"byteOffset":23744,"byteLength":32},{"buffer":0,"byteOffset":23776,"byteLength":96},{"buffer":0,"byteOffset":23872,"byteLength":44},{"buffer":0,"byteOffset":23916,"byteLength":176},{"buffer":0,"byteOffset":24092,"byteLength":44},{"buffer":0,"byteOffset":24136,"byteLength":176},{"buffer":0,"byteOffset":24312,"byteLength":12},{"buffer":0,"byteOffset":24324,"byteLength":36},{"buffer":0,"byteOffset":24360,"byteLength":24},{"buffer":0,"byteOffset":24384,"byteLength":96},{"buffer":0,"byteOffset":24480,"byteLength":64},{"buffer":0,"byteOffset":24544,"byteLength":256},{"buffer":0,"byteOffset":24800,"byteLength":20},{"buffer":0,"byteOffset":24820,"byteLength":80},{"buffer":0,"byteOffset":24900,"byteLength":68},{"buffer":0,"byteOffset":24968,"byteLength":272},{"buffer":0,"byteOffset":25240,"byteLength":12},{"buffer":0,"byteOffset":25252,"byteLength":48},{"buffer":0,"byteOffset":25300,"byteLength":64},{"buffer":0,"byteOffset":25364,"byteLength":256},{"buffer":0,"byteOffset":25620,"byteLength":68},{"buffer":0,"byteOffset":25688,"byteLength":272},{"buffer":0,"byteOffset":25960,"byteLength":64},{"buffer":0,"byteOffset":26024,"byteLength":256},{"buffer":0,"byteOffset":26280,"byteLength":20},{"buffer":0,"byteOffset":26300,"byteLength":80}],"buffers":[{"byteLength":26380,"uri":"data:application/octet-stream;base64,"}],"accessors":[{"bufferView":0,"componentType":5126,"count":24,"max":[0.0625,0.15625,0.09375],"min":[-0.0625,-0.14261923730373383,0],"type":"VEC3"},{"bufferView":1,"componentType":5126,"count":24,"max":[0.952883243560791,0.9486833214759827,0.9921531081199646],"min":[-0.952883243560791,-0.9540333151817322,-1],"type":"VEC3"},{"bufferView":2,"componentType":5126,"count":24,"max":[0.625,0.640625],"min":[0.15633340179920197,0.0024123787879943848],"type":"VEC2"},{"bufferView":3,"componentType":5123,"count":36,"max":[23],"min":[0],"type":"SCALAR"},{"bufferView":4,"componentType":5126,"count":24,"max":[0.03125,0.0625,0.03125],"min":[-0.03125,0,-0.25],"type":"VEC3"},{"bufferView":5,"componentType":5126,"count":24,"max":[1,1,1],"min":[-1,-1,-1],"type":"VEC3"},{"bufferView":6,"componentType":5126,"count":24,"max":[0.640625,0.546875],"min":[0.375,0.34375],"type":"VEC2"},{"bufferView":7,"componentType":5123,"count":36,"max":[23],"min":[0],"type":"SCALAR"},{"bufferView":8,"componentType":5126,"count":24,"max":[0.0625,0.15625,0.09375],"min":[-0.0625,-0.14261923730373383,0],"type":"VEC3"},{"bufferView":9,"componentType":5126,"count":24,"max":[0.952883243560791,0.9486833214759827,0.9921531081199646],"min":[-0.952883243560791,-0.9540333151817322,-1],"type":"VEC3"},{"bufferView":10,"componentType":5126,"count":24,"max":[0.5625,0.640625],"min":[0.3774123787879944,0.1883007287979126],"type":"VEC2"},{"bufferView":11,"componentType":5123,"count":36,"max":[23],"min":[0],"type":"SCALAR"},{"bufferView":12,"componentType":5126,"count":24,"max":[0.03125,0.0625,0.03125],"min":[-0.03125,0,-0.25],"type":"VEC3"},{"bufferView":13,"componentType":5126,"count":24,"max":[1,1,1],"min":[-1,-1,-1],"type":"VEC3"},{"bufferView":14,"componentType":5126,"count":24,"max":[0.640625,0.640625],"min":[0.109375,0.3125],"type":"VEC2"},{"bufferView":15,"componentType":5123,"count":36,"max":[23],"min":[0],"type":"SCALAR"},{"bufferView":16,"componentType":5126,"count":24,"max":[0.0625,0.15625,0],"min":[-0.0625,-0.14261923730373383,-0.09375],"type":"VEC3"},{"bufferView":17,"componentType":5126,"count":24,"max":[0.952883243560791,0.9486833214759827,1],"min":[-0.952883243560791,-0.9540333151817322,-0.9921531081199646],"type":"VEC3"},{"bufferView":18,"componentType":5126,"count":24,"max":[0.640625,0.65625],"min":[0.109375,0.09616237878799438],"type":"VEC2"},{"bufferView":19,"componentType":5123,"count":36,"max":[23],"min":[0],"type":"SCALAR"},{"bufferView":20,"componentType":5126,"count":24,"max":[0.03125,0.0625,0.25],"min":[-0.03125,0,-0.03125],"type":"VEC3"},{"bufferView":21,"componentType":5126,"count":24,"max":[1,1,1],"min":[-1,-1,-1],"type":"VEC3"},{"bufferView":22,"componentType":5126,"count":24,"max":[0.640625,0.640625],"min":[0.078125,0.15625],"type":"VEC2"},{"bufferView":23,"componentType":5123,"count":36,"max":[23],"min":[0],"type":"SCALAR"},{"bufferView":24,"componentType":5126,"count":24,"max":[0.0625,0.15625,0],"min":[-0.0625,-0.14261923730373383,-0.09375],"type":"VEC3"},{"bufferView":25,"componentType":5126,"count":24,"max":[0.952883243560791,0.9486833214759827,1],"min":[-0.952883243560791,-0.9540333151817322,-0.9921531081199646],"type":"VEC3"},{"bufferView":26,"componentType":5126,"count":24,"max":[0.4920044243335724,0.59375],"min":[0,0.046875],"type":"VEC2"},{"bufferView":27,"componentType":5123,"count":36,"max":[23],"min":[0],"type":"SCALAR"},{"bufferView":28,"componentType":5126,"count":24,"max":[0.03125,0.0625,0.25],"min":[-0.03125,0,-0.03125],"type":"VEC3"},{"bufferView":29,"componentType":5126,"count":24,"max":[1,1,1],"min":[-1,-1,-1],"type":"VEC3"},{"bufferView":30,"componentType":5126,"count":24,"max":[0.640625,0.640625],"min":[0.046875,0],"type":"VEC2"},{"bufferView":31,"componentType":5123,"count":36,"max":[23],"min":[0],"type":"SCALAR"},{"bufferView":32,"componentType":5126,"count":88,"max":[0.09375,0.03125,0.0625],"min":[-0.09375,-0.03125,-0.09375],"type":"VEC3"},{"bufferView":33,"componentType":5126,"count":88,"max":[1,1,1],"min":[-1,-1,-1],"type":"VEC3"},{"bufferView":34,"componentType":5126,"count":88,"max":[0.671875,0.640625],"min":[0.0625,0.03125],"type":"VEC2"},{"bufferView":35,"componentType":5123,"count":132,"max":[87],"min":[0],"type":"SCALAR"},{"bufferView":36,"componentType":5126,"count":176,"max":[0.25,0.2708333432674408,0.34375],"min":[-0.4691941738128662,-0.4791666567325592,-0.21875],"type":"VEC3"},{"bufferView":37,"componentType":5126,"count":176,"max":[1,1,1],"min":[-0.9999990463256836,-1,-1],"type":"VEC3"},{"bufferView":38,"componentType":5126,"count":176,"max":[0.671875,0.640625],"min":[0,0],"type":"VEC2"},{"bufferView":39,"componentType":5123,"count":264,"max":[175],"min":[0],"type":"SCALAR"},{"bufferView":40,"componentType":5126,"count":134,"max":[0.09375,0.125,0.1875],"min":[-0.09375,0,-0.375],"type":"VEC3"},{"bufferView":41,"componentType":5126,"count":134,"max":[1,1,1],"min":[-1,-1,-1],"type":"VEC3"},{"bufferView":42,"componentType":5126,"count":134,"max":[0.6564937233924866,0.6421874761581421],"min":[0,0],"type":"VEC2"},{"bufferView":43,"componentType":5123,"count":192,"max":[133],"min":[0],"type":"SCALAR"},{"bufferView":44,"componentType":5126,"count":80,"max":[0.15625,0.15625,0.15625],"min":[-0.15625,0,-0.15625],"type":"VEC3"},{"bufferView":45,"componentType":5126,"count":80,"max":[0.9968152642250061,1,0.9968152642250061],"min":[-0.9968152642250061,-1,-0.9968152642250061],"type":"VEC3"},{"bufferView":46,"componentType":5126,"count":80,"max":[0.6104843616485596,0.609375],"min":[0.14788281917572021,0.0625],"type":"VEC2"},{"bufferView":47,"componentType":5123,"count":96,"max":[79],"min":[0],"type":"SCALAR"},{"bufferView":48,"componentType":5126,"count":1,"max":[0],"min":[0],"type":"SCALAR"},{"bufferView":49,"componentType":5126,"count":1,"max":[-0.16042999923229218,0.3768696188926697,0.0664522796869278,0.9098437428474426],"min":[-0.16042999923229218,0.3768696188926697,0.0664522796869278,0.9098437428474426],"type":"VEC4"},{"bufferView":50,"componentType":5126,"count":9,"max":[1],"min":[0],"type":"SCALAR"},{"bufferView":51,"componentType":5126,"count":9,"max":[0.020154325291514397,0.3826334774494171,0.0664522796869278,0.9237589240074158],"min":[-0.16042999923229218,0.3768696188926697,-0.008348194882273674,0.9098437428474426],"type":"VEC4"},{"bufferView":52,"componentType":5126,"count":8,"max":[1],"min":[0],"type":"SCALAR"},{"bufferView":53,"componentType":5126,"count":8,"max":[0,0,0,1],"min":[-0.2164396196603775,0,0,0.9762960076332092],"type":"VEC4"},{"bufferView":54,"componentType":5126,"count":8,"max":[1],"min":[0],"type":"SCALAR"},{"bufferView":55,"componentType":5126,"count":8,"max":[0,0.011471932753920555,-0.24503564834594727],"min":[-7.589415207398531e-19,0,-0.25],"type":"VEC3"},{"bufferView":56,"componentType":5126,"count":11,"max":[1],"min":[0],"type":"SCALAR"},{"bufferView":57,"componentType":5126,"count":11,"max":[0.020154325291514397,-0.3768696188926697,0.008348194882273674,0.9238792061805725],"min":[-0.16042999923229218,-0.38268330693244934,-0.0664522796869278,0.9098437428474426],"type":"VEC4"},{"bufferView":58,"componentType":5126,"count":11,"max":[1],"min":[0],"type":"SCALAR"},{"bufferView":59,"componentType":5126,"count":11,"max":[0,0,0,1],"min":[-0.2164396196603775,0,0,0.9762960076332092],"type":"VEC4"},{"bufferView":60,"componentType":5126,"count":3,"max":[1],"min":[0],"type":"SCALAR"},{"bufferView":61,"componentType":5126,"count":3,"max":[0,0,-0.25],"min":[0,0,-0.25],"type":"VEC3"},{"bufferView":62,"componentType":5126,"count":6,"max":[1],"min":[0],"type":"SCALAR"},{"bufferView":63,"componentType":5126,"count":6,"max":[0.16042999923229218,0.3825923502445221,-0.008348194882273674,0.9236596822738647],"min":[0.020154325291514397,0.3768696188926697,-0.0664522796869278,0.9098437428474426],"type":"VEC4"},{"bufferView":64,"componentType":5126,"count":16,"max":[1],"min":[0],"type":"SCALAR"},{"bufferView":65,"componentType":5126,"count":16,"max":[0.08796066045761108,0,0,1],"min":[-0.2164396196603775,0,0,0.9762960076332092],"type":"VEC4"},{"bufferView":66,"componentType":5126,"count":5,"max":[1],"min":[0],"type":"SCALAR"},{"bufferView":67,"componentType":5126,"count":5,"max":[0.16042999923229218,-0.3768696188926697,0.0664522796869278,0.9236596822738647],"min":[0.020154325291514397,-0.3825923502445221,0.008348194882273674,0.9098437428474426],"type":"VEC4"},{"bufferView":68,"componentType":5126,"count":17,"max":[1],"min":[0],"type":"SCALAR"},{"bufferView":69,"componentType":5126,"count":17,"max":[0.09681086987257004,0,0,1],"min":[-0.2164396196603775,0,0,0.9762960076332092],"type":"VEC4"},{"bufferView":70,"componentType":5126,"count":3,"max":[1],"min":[0],"type":"SCALAR"},{"bufferView":71,"componentType":5126,"count":3,"max":[0,0,0,1],"min":[0,-0.258819043636322,0,0.9659258127212524],"type":"VEC4"},{"bufferView":72,"componentType":5126,"count":16,"max":[1],"min":[0],"type":"SCALAR"},{"bufferView":73,"componentType":5126,"count":16,"max":[0,0.258819043636322,0,1],"min":[0,0,0,0.9659258127212524],"type":"VEC4"},{"bufferView":74,"componentType":5126,"count":17,"max":[1],"min":[0],"type":"SCALAR"},{"bufferView":75,"componentType":5126,"count":17,"max":[0,0.1736481785774231,0,1],"min":[0,-0.0006060170708224177,0,0.9848077297210693],"type":"VEC4"},{"bufferView":76,"componentType":5126,"count":16,"max":[1],"min":[0],"type":"SCALAR"},{"bufferView":77,"componentType":5126,"count":16,"max":[0,0,0,1],"min":[0,-0.1736481785774231,0,0.9848077297210693],"type":"VEC4"},{"bufferView":78,"componentType":5126,"count":5,"max":[1],"min":[0],"type":"SCALAR"},{"bufferView":79,"componentType":5126,"count":5,"max":[0,0.000940654135774821,0.00305762211792171,1],"min":[-0.0034935392905026674,-0.000940654135774821,-0.00305762211792171,0.9999887943267822],"type":"VEC4"}],"materials":[{"pbrMetallicRoughness":{"metallicFactor":0,"roughnessFactor":1,"baseColorTexture":{"index":0}},"alphaMode":"MASK","alphaCutoff":0.05,"doubleSided":true}],"textures":[{"sampler":0,"source":0,"name":"SmallRobot.png"}],"samplers":[{"magFilter":9728,"minFilter":9728,"wrapS":33071,"wrapT":33071}],"images":[{"mimeType":"image/png","uri":"data:image/png;base64,"}],"meshes":[{"primitives":[{"mode":4,"attributes":{"POSITION":0,"NORMAL":1,"TEXCOORD_0":2},"indices":3,"material":0}]},{"primitives":[{"mode":4,"attributes":{"POSITION":4,"NORMAL":5,"TEXCOORD_0":6},"indices":7,"material":0}]},{"primitives":[{"mode":4,"attributes":{"POSITION":8,"NORMAL":9,"TEXCOORD_0":10},"indices":11,"material":0}]},{"primitives":[{"mode":4,"attributes":{"POSITION":12,"NORMAL":13,"TEXCOORD_0":14},"indices":15,"material":0}]},{"primitives":[{"mode":4,"attributes":{"POSITION":16,"NORMAL":17,"TEXCOORD_0":18},"indices":19,"material":0}]},{"primitives":[{"mode":4,"attributes":{"POSITION":20,"NORMAL":21,"TEXCOORD_0":22},"indices":23,"material":0}]},{"primitives":[{"mode":4,"attributes":{"POSITION":24,"NORMAL":25,"TEXCOORD_0":26},"indices":27,"material":0}]},{"primitives":[{"mode":4,"attributes":{"POSITION":28,"NORMAL":29,"TEXCOORD_0":30},"indices":31,"material":0}]},{"primitives":[{"mode":4,"attributes":{"POSITION":32,"NORMAL":33,"TEXCOORD_0":34},"indices":35,"material":0}]},{"primitives":[{"mode":4,"attributes":{"POSITION":36,"NORMAL":37,"TEXCOORD_0":38},"indices":39,"material":0}]},{"primitives":[{"mode":4,"attributes":{"POSITION":40,"NORMAL":41,"TEXCOORD_0":42},"indices":43,"material":0}]},{"primitives":[{"mode":4,"attributes":{"POSITION":44,"NORMAL":45,"TEXCOORD_0":46},"indices":47,"material":0}]}],"animations":[{"name":"default","samplers":[{"input":48,"output":49,"interpolation":"LINEAR"}],"channels":[{"sampler":0,"target":{"node":8,"path":"rotation"}}]},{"name":"walk_forward","samplers":[{"input":50,"output":51,"interpolation":"LINEAR"},{"input":52,"output":53,"interpolation":"LINEAR"},{"input":54,"output":55,"interpolation":"LINEAR"},{"input":56,"output":57,"interpolation":"LINEAR"},{"input":58,"output":59,"interpolation":"LINEAR"},{"input":60,"output":61,"interpolation":"LINEAR"},{"input":62,"output":63,"interpolation":"LINEAR"},{"input":64,"output":65,"interpolation":"LINEAR"},{"input":66,"output":67,"interpolation":"LINEAR"},{"input":68,"output":69,"interpolation":"LINEAR"},{"input":70,"output":71,"interpolation":"LINEAR"},{"input":72,"output":73,"interpolation":"LINEAR"},{"input":74,"output":75,"interpolation":"LINEAR"},{"input":76,"output":77,"interpolation":"LINEAR"},{"input":78,"output":79,"interpolation":"LINEAR"}],"channels":[{"sampler":0,"target":{"node":8,"path":"rotation"}},{"sampler":1,"target":{"node":6,"path":"rotation"}},{"sampler":2,"target":{"node":6,"path":"translation"}},{"sampler":3,"target":{"node":3,"path":"rotation"}},{"sampler":4,"target":{"node":1,"path":"rotation"}},{"sampler":5,"target":{"node":1,"path":"translation"}},{"sampler":6,"target":{"node":18,"path":"rotation"}},{"sampler":7,"target":{"node":16,"path":"rotation"}},{"sampler":8,"target":{"node":13,"path":"rotation"}},{"sampler":9,"target":{"node":11,"path":"rotation"}},{"sampler":10,"target":{"node":4,"path":"rotation"}},{"sampler":11,"target":{"node":9,"path":"rotation"}},{"sampler":12,"target":{"node":14,"path":"rotation"}},{"sampler":13,"target":{"node":19,"path":"rotation"}},{"sampler":14,"target":{"node":24,"path":"rotation"}}]}]}