{"asset":{"version":"2.0","generator":"Blockbench 4.11.2 glTF exporter"},"scenes":[{"nodes":[18],"name":"blockbench_export"}],"scene":0,"nodes":[{"translation":[4,1.0625,0],"name":"Hitch","mesh":0},{"rotation":[0.7071067811865475,0,0,0.7071067811865476],"name":"Wheel","mesh":1},{"translation":[-1.1875,0.625,0.625],"name":"FrontRightWheel","children":[1]},{"rotation":[-0.7071067811865475,0,0,0.7071067811865476],"name":"Wheel","mesh":2},{"translation":[-1.1875,0.625,-0.625],"name":"FrontLeftWheel","children":[3]},{"rotation":[0.7071067811865475,0,0,0.7071067811865476],"name":"Wheel","mesh":3},{"translation":[-2.625,0.625,0.625],"name":"BackRightWheel","children":[5]},{"rotation":[-0.7071067811865475,0,0,0.7071067811865476],"name":"Wheel","mesh":4},{"translation":[-2.625,0.625,-0.625],"name":"BackLeftWheel","children":[7]},{"translation":[5.71875,-1.25,-0.5937499999999999],"name":"Stand","mesh":5},{"translation":[-5.75,1.0625,0],"name":"LeftStand","children":[9]},{"translation":[5.71875,-1.25,0.5937499999999999],"name":"Stand","mesh":6},{"translation":[-5.75,1.0625,0],"name":"RightStand","children":[11]},{"translation":[2.3125,0.25,0],"name":"TrailerStands","children":[10,12]},{"name":"CargoPivot"},{"rotation":[-0.7071067811865475,0,0,0.7071067811865476],"translation":[-2.625,-0.8125,0],"name":"MainBody","mesh":7},{"translation":[0,1.4375,0],"name":"MainBody","children":[14,15]},{"name":"Trailer","children":[0,2,4,6,8,13,16]},{"children":[17]}],"bufferViews":[{"buffer":0,"byteOffset":0,"byteLength":960,"target":34962,"byteStride":12},{"buffer":0,"byteOffset":960,"byteLength":960,"target":34962,"byteStride":12},{"buffer":0,"byteOffset":1920,"byteLength":640,"target":34962,"byteStride":8},{"buffer":0,"byteOffset":2560,"byteLength":192,"target":34963},{"buffer":0,"byteOffset":2752,"byteLength":4896,"target":34962,"byteStride":12},{"buffer":0,"byteOffset":7648,"byteLength":4896,"target":34962,"byteStride":12},{"buffer":0,"byteOffset":12544,"byteLength":3264,"target":34962,"byteStride":8},{"buffer":0,"byteOffset":15808,"byteLength":1152,"target":34963},{"buffer":0,"byteOffset":16960,"byteLength":4896,"target":34962,"byteStride":12},{"buffer":0,"byteOffset":21856,"byteLength":4896,"target":34962,"byteStride":12},{"buffer":0,"byteOffset":26752,"byteLength":3264,"target":34962,"byteStride":8},{"buffer":0,"byteOffset":30016,"byteLength":1152,"target":34963},{"buffer":0,"byteOffset":31168,"byteLength":4896,"target":34962,"byteStride":12},{"buffer":0,"byteOffset":36064,"byteLength":4896,"target":34962,"byteStride":12},{"buffer":0,"byteOffset":40960,"byteLength":3264,"target":34962,"byteStride":8},{"buffer":0,"byteOffset":44224,"byteLength":1152,"target":34963},{"buffer":0,"byteOffset":45376,"byteLength":4896,"target":34962,"byteStride":12},{"buffer":0,"byteOffset":50272,"byteLength":4896,"target":34962,"byteStride":12},{"buffer":0,"byteOffset":55168,"byteLength":3264,"target":34962,"byteStride":8},{"buffer":0,"byteOffset":58432,"byteLength":1152,"target":34963},{"buffer":0,"byteOffset":59584,"byteLength":480,"target":34962,"byteStride":12},{"buffer":0,"byteOffset":60064,"byteLength":480,"target":34962,"byteStride":12},{"buffer":0,"byteOffset":60544,"byteLength":320,"target":34962,"byteStride":8},{"buffer":0,"byteOffset":60864,"byteLength":120,"target":34963},{"buffer":0,"byteOffset":60984,"byteLength":480,"target":34962,"byteStride":12},{"buffer":0,"byteOffset":61464,"byteLength":480,"target":34962,"byteStride":12},{"buffer":0,"byteOffset":61944,"byteLength":320,"target":34962,"byteStride":8},{"buffer":0,"byteOffset":62264,"byteLength":120,"target":34963},{"buffer":0,"byteOffset":62384,"byteLength":20688,"target":34962,"byteStride":12},{"buffer":0,"byteOffset":83072,"byteLength":20688,"target":34962,"byteStride":12},{"buffer":0,"byteOffset":103760,"byteLength":13792,"target":34962,"byteStride":8},{"buffer":0,"byteOffset":117552,"byteLength":4896,"target":34963}],"buffers":[{"byteLength":122448,"uri":"data:application/octet-stream;base64,"}],"accessors":[{"bufferView":0,"componentType":5126,"count":80,"max":[0.09375,0.125,0.09375],"min":[-0.09375,-0.0625,-0.09375],"type":"VEC3"},{"bufferView":1,"componentType":5126,"count":80,"max":[1,1,1],"min":[-1,-1,-1],"type":"VEC3"},{"bufferView":2,"componentType":5126,"count":80,"max":[0.5078125,0.44140625],"min":[0,0.03515625],"type":"VEC2"},{"bufferView":3,"componentType":5123,"count":96,"max":[79],"min":[0],"type":"SCALAR"},{"bufferView":4,"componentType":5126,"count":408,"max":[0.625,0.5,0.625],"min":[-0.625,0,-0.625],"type":"VEC3"},{"bufferView":5,"componentType":5126,"count":408,"max":[1,1,1],"min":[-1,-1,-1],"type":"VEC3"},{"bufferView":6,"componentType":5126,"count":408,"max":[0.513741135597229,0.44921875],"min":[0.03305273503065109,0],"type":"VEC2"},{"bufferView":7,"componentType":5123,"count":576,"max":[407],"min":[0],"type":"SCALAR"},{"bufferView":8,"componentType":5126,"count":408,"max":[0.625,0.5,0.625],"min":[-0.625,0,-0.625],"type":"VEC3"},{"bufferView":9,"componentType":5126,"count":408,"max":[1,1,1],"min":[-1,-1,-1],"type":"VEC3"},{"bufferView":10,"componentType":5126,"count":408,"max":[0.521553635597229,0.5237812399864197],"min":[0.0018027343321591616,0.03515625],"type":"VEC2"},{"bufferView":11,"componentType":5123,"count":576,"max":[407],"min":[0],"type":"SCALAR"},{"bufferView":12,"componentType":5126,"count":408,"max":[0.625,0.5,0.625],"min":[-0.625,0,-0.625],"type":"VEC3"},{"bufferView":13,"componentType":5126,"count":408,"max":[1,1,1],"min":[-1,-1,-1],"type":"VEC3"},{"bufferView":14,"componentType":5126,"count":408,"max":[0.521553635597229,0.46875],"min":[0.0011924318969249725,0],"type":"VEC2"},{"bufferView":15,"componentType":5123,"count":576,"max":[407],"min":[0],"type":"SCALAR"},{"bufferView":16,"componentType":5126,"count":408,"max":[0.625,0.5,0.625],"min":[-0.625,0,-0.625],"type":"VEC3"},{"bufferView":17,"componentType":5126,"count":408,"max":[1,1,1],"min":[-1,-1,-1],"type":"VEC3"},{"bufferView":18,"componentType":5126,"count":408,"max":[0.4245140552520752,0.5237812399864197],"min":[0,0.015625],"type":"VEC2"},{"bufferView":19,"componentType":5123,"count":576,"max":[407],"min":[0],"type":"SCALAR"},{"bufferView":20,"componentType":5126,"count":40,"max":[0.125,0.6875,0.125],"min":[-0.125,-0.0625,-0.125],"type":"VEC3"},{"bufferView":21,"componentType":5126,"count":40,"max":[1,1,1],"min":[-1,-1,-1],"type":"VEC3"},{"bufferView":22,"componentType":5126,"count":40,"max":[0.4921875,0.5234375],"min":[0.2421875,0],"type":"VEC2"},{"bufferView":23,"componentType":5123,"count":60,"max":[39],"min":[0],"type":"SCALAR"},{"bufferView":24,"componentType":5126,"count":40,"max":[0.125,0.6875,0.125],"min":[-0.125,-0.0625,-0.125],"type":"VEC3"},{"bufferView":25,"componentType":5126,"count":40,"max":[1,1,1],"min":[-1,-1,-1],"type":"VEC3"},{"bufferView":26,"componentType":5126,"count":40,"max":[0.49609375,0.53125],"min":[0.15234375,0.08984375],"type":"VEC2"},{"bufferView":27,"componentType":5123,"count":60,"max":[39],"min":[0],"type":"SCALAR"},{"bufferView":28,"componentType":5126,"count":1724,"max":[6.8125,1.25,0.8125],"min":[-0.875,-1.25,-0.0625],"type":"VEC3"},{"bufferView":29,"componentType":5126,"count":1724,"max":[1,1,1],"min":[-1,-1,-1],"type":"VEC3"},{"bufferView":30,"componentType":5126,"count":1724,"max":[0.59375,0.61328125],"min":[0,0],"type":"VEC2"},{"bufferView":31,"componentType":5123,"count":2448,"max":[1723],"min":[0],"type":"SCALAR"}],"materials":[{"pbrMetallicRoughness":{"metallicFactor":0,"roughnessFactor":1,"baseColorTexture":{"index":0}},"alphaMode":"MASK","alphaCutoff":0.05,"doubleSided":true}],"textures":[{"sampler":0,"source":0,"name":"ContainerTrailer"}],"samplers":[{"magFilter":9728,"minFilter":9728,"wrapS":33071,"wrapT":33071}],"images":[{"mimeType":"image/png","uri":"data:image/png;base64,"}],"meshes":[{"primitives":[{"mode":4,"attributes":{"POSITION":0,"NORMAL":1,"TEXCOORD_0":2},"indices":3,"material":0}]},{"primitives":[{"mode":4,"attributes":{"POSITION":4,"NORMAL":5,"TEXCOORD_0":6},"indices":7,"material":0}]},{"primitives":[{"mode":4,"attributes":{"POSITION":8,"NORMAL":9,"TEXCOORD_0":10},"indices":11,"material":0}]},{"primitives":[{"mode":4,"attributes":{"POSITION":12,"NORMAL":13,"TEXCOORD_0":14},"indices":15,"material":0}]},{"primitives":[{"mode":4,"attributes":{"POSITION":16,"NORMAL":17,"TEXCOORD_0":18},"indices":19,"material":0}]},{"primitives":[{"mode":4,"attributes":{"POSITION":20,"NORMAL":21,"TEXCOORD_0":22},"indices":23,"material":0}]},{"primitives":[{"mode":4,"attributes":{"POSITION":24,"NORMAL":25,"TEXCOORD_0":26},"indices":27,"material":0}]},{"primitives":[{"mode":4,"attributes":{"POSITION":28,"NORMAL":29,"TEXCOORD_0":30},"indices":31,"material":0}]}]}