{"asset":{"version":"2.0","generator":"Blockbench 4.11.2 glTF exporter"},"scenes":[{"nodes":[10],"name":"blockbench_export"}],"scene":0,"nodes":[{"rotation":[-0.7071067811865475,0,0,0.7071067811865476],"translation":[0,0,0.125],"name":"body","mesh":0},{"translation":[0,-0.11875,0.15625],"name":"grip","mesh":1},{"translation":[0,-0.15625,0.24375000000000002],"name":"bolt","mesh":2},{"rotation":[-0.7071067811865475,0,0,0.7071067811865476],"translation":[0,-0.04999999999999994,0.20625],"name":"bolt","mesh":3},{"rotation":[-0.7071067811865475,0,0,0.7071067811865476],"translation":[0,-0.04374999999999994,0.11249999999999999],"name":"bolt","mesh":4},{"rotation":[-0.08715574274765817,0,0,0.9961946980917455],"translation":[0,-0.006249999999999922,-1.3877787807814457e-17],"name":"trigger","mesh":5},{"translation":[0,-0.043750000000000004,0.1125],"name":"TriggerBone","children":[5]},{"translation":[0,-6.938893903907228e-18,0.00625],"name":"magazine","mesh":6},{"translation":[-0.056249999999999994,0,0],"name":"MagazineBone","children":[7]},{"name":"JunkBarrel","children":[0,1,2,3,4,6,8]},{"children":[9]}],"bufferViews":[{"buffer":0,"byteOffset":0,"byteLength":31608,"target":34962,"byteStride":12},{"buffer":0,"byteOffset":31608,"byteLength":31608,"target":34962,"byteStride":12},{"buffer":0,"byteOffset":63216,"byteLength":21072,"target":34962,"byteStride":8},{"buffer":0,"byteOffset":84288,"byteLength":7824,"target":34963},{"buffer":0,"byteOffset":92112,"byteLength":4032,"target":34962,"byteStride":12},{"buffer":0,"byteOffset":96144,"byteLength":4032,"target":34962,"byteStride":12},{"buffer":0,"byteOffset":100176,"byteLength":2688,"target":34962,"byteStride":8},{"buffer":0,"byteOffset":102864,"byteLength":1008,"target":34963},{"buffer":0,"byteOffset":103872,"byteLength":864,"target":34962,"byteStride":12},{"buffer":0,"byteOffset":104736,"byteLength":864,"target":34962,"byteStride":12},{"buffer":0,"byteOffset":105600,"byteLength":576,"target":34962,"byteStride":8},{"buffer":0,"byteOffset":106176,"byteLength":216,"target":34963},{"buffer":0,"byteOffset":106392,"byteLength":864,"target":34962,"byteStride":12},{"buffer":0,"byteOffset":107256,"byteLength":864,"target":34962,"byteStride":12},{"buffer":0,"byteOffset":108120,"byteLength":576,"target":34962,"byteStride":8},{"buffer":0,"byteOffset":108696,"byteLength":216,"target":34963},{"buffer":0,"byteOffset":108912,"byteLength":864,"target":34962,"byteStride":12},{"buffer":0,"byteOffset":109776,"byteLength":864,"target":34962,"byteStride":12},{"buffer":0,"byteOffset":110640,"byteLength":576,"target":34962,"byteStride":8},{"buffer":0,"byteOffset":111216,"byteLength":216,"target":34963},{"buffer":0,"byteOffset":111432,"byteLength":288,"target":34962,"byteStride":12},{"buffer":0,"byteOffset":111720,"byteLength":288,"target":34962,"byteStride":12},{"buffer":0,"byteOffset":112008,"byteLength":192,"target":34962,"byteStride":8},{"buffer":0,"byteOffset":112200,"byteLength":72,"target":34963},{"buffer":0,"byteOffset":112272,"byteLength":1248,"target":34962,"byteStride":12},{"buffer":0,"byteOffset":113520,"byteLength":1248,"target":34962,"byteStride":12},{"buffer":0,"byteOffset":114768,"byteLength":832,"target":34962,"byteStride":8},{"buffer":0,"byteOffset":115600,"byteLength":312,"target":34963},{"buffer":0,"byteOffset":115912,"byteLength":100},{"buffer":0,"byteOffset":116012,"byteLength":400},{"buffer":0,"byteOffset":116412,"byteLength":100},{"buffer":0,"byteOffset":116512,"byteLength":300},{"buffer":0,"byteOffset":116812,"byteLength":64},{"buffer":0,"byteOffset":116876,"byteLength":256},{"buffer":0,"byteOffset":117132,"byteLength":72},{"buffer":0,"byteOffset":117204,"byteLength":216},{"buffer":0,"byteOffset":117420,"byteLength":20},{"buffer":0,"byteOffset":117440,"byteLength":60}],"buffers":[{"byteLength":117500,"uri":"data:application/octet-stream;base64,"}],"accessors":[{"bufferView":0,"componentType":5126,"count":2634,"max":[0.046875,0.375,0.046875],"min":[-0.05937499925494194,-0.21250000596046448,-0.15919740498065948],"type":"VEC3"},{"bufferView":1,"componentType":5126,"count":2634,"max":[1,1,1],"min":[-1,-1,-1],"type":"VEC3"},{"bufferView":2,"componentType":5126,"count":2634,"max":[0.9608187675476074,1],"min":[0.004077468067407608,0],"type":"VEC2"},{"bufferView":3,"componentType":5123,"count":3912,"max":[2633],"min":[0],"type":"SCALAR"},{"bufferView":4,"componentType":5126,"count":336,"max":[0.012500000186264515,0.0625,0.08344907313585281],"min":[-0.012500000186264515,-0.056230880320072174,-0.01875000074505806],"type":"VEC3"},{"bufferView":5,"componentType":5126,"count":336,"max":[1,1,0.9997793436050415],"min":[-1,-1,-1],"type":"VEC3"},{"bufferView":6,"componentType":5126,"count":336,"max":[0.9593750238418579,0.9483906030654907],"min":[0,0.020046889781951904],"type":"VEC2"},{"bufferView":7,"componentType":5123,"count":504,"max":[335],"min":[0],"type":"SCALAR"},{"bufferView":8,"componentType":5126,"count":72,"max":[0.00937500037252903,0.04062499850988388,0.02500000037252903],"min":[-0.00937500037252903,0.02187499962747097,-0.01875000074505806],"type":"VEC3"},{"bufferView":9,"componentType":5126,"count":72,"max":[1,1,1],"min":[-1,-1,-1],"type":"VEC3"},{"bufferView":10,"componentType":5126,"count":72,"max":[0.9003687500953674,0.8843749761581421],"min":[0,0],"type":"VEC2"},{"bufferView":11,"componentType":5123,"count":108,"max":[71],"min":[0],"type":"SCALAR"},{"bufferView":12,"componentType":5126,"count":72,"max":[0.00937500037252903,0.04062499850988388,0.02500000037252903],"min":[-0.00937500037252903,0.02187499962747097,-0.01875000074505806],"type":"VEC3"},{"bufferView":13,"componentType":5126,"count":72,"max":[1,1,1],"min":[-1,-1,-1],"type":"VEC3"},{"bufferView":14,"componentType":5126,"count":72,"max":[0.9003687500953674,0.90625],"min":[0.07343749701976776,0],"type":"VEC2"},{"bufferView":15,"componentType":5123,"count":108,"max":[71],"min":[0],"type":"SCALAR"},{"bufferView":16,"componentType":5126,"count":72,"max":[0.00937500037252903,0.04062499850988388,0.02500000037252903],"min":[-0.00937500037252903,0.02187499962747097,-0.01875000074505806],"type":"VEC3"},{"bufferView":17,"componentType":5126,"count":72,"max":[1,1,1],"min":[-1,-1,-1],"type":"VEC3"},{"bufferView":18,"componentType":5126,"count":72,"max":[0.9003687500953674,0.90625],"min":[0.40625,0.0625],"type":"VEC2"},{"bufferView":19,"componentType":5123,"count":108,"max":[71],"min":[0],"type":"SCALAR"},{"bufferView":20,"componentType":5126,"count":24,"max":[0.0062500000931322575,0.0062500000931322575,0.0062500000931322575],"min":[-0.0062500000931322575,-0.05000000074505806,2.7755575615628914e-17],"type":"VEC3"},{"bufferView":21,"componentType":5126,"count":24,"max":[1,1,1],"min":[-1,-1,-1],"type":"VEC3"},{"bufferView":22,"componentType":5126,"count":24,"max":[0.71875,0.71875],"min":[0.375,0.375],"type":"VEC2"},{"bufferView":23,"componentType":5123,"count":36,"max":[23],"min":[0],"type":"SCALAR"},{"bufferView":24,"componentType":5126,"count":104,"max":[0.03125,0.020625000819563866,0.045625001192092896],"min":[-0.15000000596046448,-0.019375000149011612,-0.041875001043081284],"type":"VEC3"},{"bufferView":25,"componentType":5126,"count":104,"max":[1,1,1],"min":[-1,-1,-1],"type":"VEC3"},{"bufferView":26,"componentType":5126,"count":104,"max":[0.8415625095367432,0.8256250023841858],"min":[0,0],"type":"VEC2"},{"bufferView":27,"componentType":5123,"count":156,"max":[103],"min":[0],"type":"SCALAR"},{"bufferView":28,"componentType":5126,"count":25,"max":[1.5],"min":[0],"type":"SCALAR"},{"bufferView":29,"componentType":5126,"count":25,"max":[0.00477223377674818,0.10623625665903091,0.3464159369468689,1],"min":[-0.02836565114557743,-0.06131858006119728,-0.0810975581407547,0.9346935153007507],"type":"VEC4"},{"bufferView":30,"componentType":5126,"count":25,"max":[1.5],"min":[0],"type":"SCALAR"},{"bufferView":31,"componentType":5126,"count":25,"max":[0.06793063133955002,0.02735546976327896,0],"min":[-0.05667140334844589,-0.014418844133615494,-0.1018739864230156],"type":"VEC3"},{"bufferView":32,"componentType":5126,"count":16,"max":[1.5],"min":[0],"type":"SCALAR"},{"bufferView":33,"componentType":5126,"count":16,"max":[0.01707284338772297,0.1736481785774231,0.4059779942035675,1],"min":[0,-0.07789894193410873,-0.030500739812850952,0.9118415117263794],"type":"VEC4"},{"bufferView":34,"componentType":5126,"count":18,"max":[1.5],"min":[0],"type":"SCALAR"},{"bufferView":35,"componentType":5126,"count":18,"max":[-0.04699074104428291,0.0196883212774992,0.0625],"min":[-0.4126681089401245,-0.27012377977371216,-0.03998858109116554],"type":"VEC3"},{"bufferView":36,"componentType":5126,"count":5,"max":[1.125],"min":[0.7083333134651184],"type":"SCALAR"},{"bufferView":37,"componentType":5126,"count":5,"max":[1,1,1],"min":[0,0,0],"type":"VEC3"}],"materials":[{"pbrMetallicRoughness":{"metallicFactor":0,"roughnessFactor":1,"baseColorTexture":{"index":0}},"alphaMode":"MASK","alphaCutoff":0.05,"doubleSided":true}],"textures":[{"sampler":0,"source":0,"name":"JunkBarrel.png"}],"samplers":[{"magFilter":9728,"minFilter":9728,"wrapS":33071,"wrapT":33071}],"images":[{"mimeType":"image/png","uri":"data:image/png;base64,"}],"meshes":[{"primitives":[{"mode":4,"attributes":{"POSITION":0,"NORMAL":1,"TEXCOORD_0":2},"indices":3,"material":0}]},{"primitives":[{"mode":4,"attributes":{"POSITION":4,"NORMAL":5,"TEXCOORD_0":6},"indices":7,"material":0}]},{"primitives":[{"mode":4,"attributes":{"POSITION":8,"NORMAL":9,"TEXCOORD_0":10},"indices":11,"material":0}]},{"primitives":[{"mode":4,"attributes":{"POSITION":12,"NORMAL":13,"TEXCOORD_0":14},"indices":15,"material":0}]},{"primitives":[{"mode":4,"attributes":{"POSITION":16,"NORMAL":17,"TEXCOORD_0":18},"indices":19,"material":0}]},{"primitives":[{"mode":4,"attributes":{"POSITION":20,"NORMAL":21,"TEXCOORD_0":22},"indices":23,"material":0}]},{"primitives":[{"mode":4,"attributes":{"POSITION":24,"NORMAL":25,"TEXCOORD_0":26},"indices":27,"material":0}]}],"animations":[{"name":"reload","samplers":[{"input":28,"output":29,"interpolation":"LINEAR"},{"input":30,"output":31,"interpolation":"LINEAR"},{"input":32,"output":33,"interpolation":"LINEAR"},{"input":34,"output":35,"interpolation":"LINEAR"},{"input":36,"output":37,"interpolation":"STEP"}],"channels":[{"sampler":0,"target":{"node":9,"path":"rotation"}},{"sampler":1,"target":{"node":9,"path":"translation"}},{"sampler":2,"target":{"node":8,"path":"rotation"}},{"sampler":3,"target":{"node":8,"path":"translation"}},{"sampler":4,"target":{"node":8,"path":"scale"}}]}]}