{"asset":{"version":"2.0","generator":"Blockbench 4.11.2 glTF exporter"},"scenes":[{"nodes":[2],"name":"blockbench_export"}],"scene":0,"nodes":[{"translation":[0,0,0.1875],"name":"Armor","mesh":0},{"name":"ArmorPickup","children":[0]},{"children":[1]}],"bufferViews":[{"buffer":0,"byteOffset":0,"byteLength":5424,"target":34962,"byteStride":12},{"buffer":0,"byteOffset":5424,"byteLength":5424,"target":34962,"byteStride":12},{"buffer":0,"byteOffset":10848,"byteLength":3616,"target":34962,"byteStride":8},{"buffer":0,"byteOffset":14464,"byteLength":1344,"target":34963}],"buffers":[{"byteLength":15808,"uri":"data:application/octet-stream;base64,"}],"accessors":[{"bufferView":0,"componentType":5126,"count":452,"max":[0.21606917679309845,0.5801183581352234,-0.01875000074505806],"min":[-0.21606917679309845,0,-0.3633384108543396],"type":"VEC3"},{"bufferView":1,"componentType":5126,"count":452,"max":[1,1,1],"min":[-1,-1,-1],"type":"VEC3"},{"bufferView":2,"componentType":5126,"count":452,"max":[0.8985331058502197,0.85956871509552],"min":[0,0],"type":"VEC2"},{"bufferView":3,"componentType":5123,"count":672,"max":[451],"min":[0],"type":"SCALAR"}],"materials":[{"pbrMetallicRoughness":{"metallicFactor":0,"roughnessFactor":1,"baseColorTexture":{"index":0}},"alphaMode":"MASK","alphaCutoff":0.05,"doubleSided":true}],"textures":[{"sampler":0,"source":0,"name":"ArmorPickup.png"}],"samplers":[{"magFilter":9728,"minFilter":9728,"wrapS":33071,"wrapT":33071}],"images":[{"mimeType":"image/png","uri":"data:image/png;base64,"}],"meshes":[{"primitives":[{"mode":4,"attributes":{"POSITION":0,"NORMAL":1,"TEXCOORD_0":2},"indices":3,"material":0}]}]}