{"asset":{"version":"2.0","generator":"Blockbench 4.11.2 glTF exporter"},"scenes":[{"nodes":[2],"name":"blockbench_export"}],"scene":0,"nodes":[{"name":"Satchel","mesh":0},{"name":"HealthPickup","children":[0]},{"children":[1]}],"bufferViews":[{"buffer":0,"byteOffset":0,"byteLength":7008,"target":34962,"byteStride":12},{"buffer":0,"byteOffset":7008,"byteLength":7008,"target":34962,"byteStride":12},{"buffer":0,"byteOffset":14016,"byteLength":4672,"target":34962,"byteStride":8},{"buffer":0,"byteOffset":18688,"byteLength":1704,"target":34963}],"buffers":[{"byteLength":20392,"uri":"data:application/octet-stream;base64,"}],"accessors":[{"bufferView":0,"componentType":5126,"count":584,"max":[0.19166666269302368,0.37812501192092896,0.06875000149011612],"min":[-0.19166666269302368,0,-0.078125],"type":"VEC3"},{"bufferView":1,"componentType":5126,"count":584,"max":[1,1,1],"min":[-1,-1,-1],"type":"VEC3"},{"bufferView":2,"componentType":5126,"count":584,"max":[0.6796875,0.8125],"min":[0,0],"type":"VEC2"},{"bufferView":3,"componentType":5123,"count":852,"max":[583],"min":[0],"type":"SCALAR"}],"materials":[{"pbrMetallicRoughness":{"metallicFactor":0,"roughnessFactor":1,"baseColorTexture":{"index":0}},"alphaMode":"MASK","alphaCutoff":0.05,"doubleSided":true}],"textures":[{"sampler":0,"source":0,"name":"HealthPickup"}],"samplers":[{"magFilter":9728,"minFilter":9728,"wrapS":33071,"wrapT":33071}],"images":[{"mimeType":"image/png","uri":"data:image/png;base64,"}],"meshes":[{"primitives":[{"mode":4,"attributes":{"POSITION":0,"NORMAL":1,"TEXCOORD_0":2},"indices":3,"material":0}]}]}