{"asset":{"version":"2.0","generator":"Blockbench 4.12.2 glTF exporter"},"scenes":[{"nodes":[17],"name":"blockbench_export"}],"scene":0,"nodes":[{"name":"Satchel","mesh":0},{"translation":[0,-0.048717948717948725,0.0030287320921837044],"name":"cylinder","mesh":1},{"translation":[-0.01173604679564013,0.017467948717948725,0.016212494714926355],"name":"Bullet","children":[1]},{"rotation":[0,0.1908089953765448,0,0.981627183447664],"translation":[0,-0.048717948717948725,-0.003221267907816322],"name":"cylinder","mesh":2},{"translation":[-0.030486046795640143,0.017467948717948725,0.009962494714926357],"name":"Bullet6","children":[3]},{"rotation":[0,0.1908089953765448,0,0.981627183447664],"translation":[0,-0.048717948717948725,-0.003221267907816322],"name":"cylinder","mesh":3},{"translation":[-0.06798604679564012,0.017467948717948725,0.009962494714926357],"name":"Bullet2","children":[5]},{"rotation":[0,0.1908089953765448,0,0.981627183447664],"translation":[0,-0.048717948717948704,-0.003221267907816322],"name":"cylinder","mesh":4},{"rotation":[-0.6813896280216829,-0.18896606791821607,-0.18896606791821635,0.681389628021684],"translation":[0.013263953204359857,0.011217948717948699,0.009962494714926357],"name":"Bullet7","children":[7]},{"translation":[-2.7755575615628914e-17,-0.048717948717948725,0.0030287320921837113],"name":"cylinder","mesh":5},{"rotation":[0,-0.3420201433256687,0,0.9396926207859084],"translation":[-0.01173604679564013,0.017467948717948725,-0.0025375052850736546],"name":"Bullet3","children":[9]},{"translation":[0,-0.048717948717948725,0.0030287320921837113],"name":"cylinder","mesh":6},{"rotation":[0,-0.3420201433256687,0,0.9396926207859084],"translation":[-0.04923604679564013,0.017467948717948725,-0.0025375052850736546],"name":"Bullet4","children":[11]},{"translation":[0,-0.048717948717948725,0.0030287320921837044],"name":"cylinder","mesh":7},{"rotation":[0,-0.3420201433256687,0,0.9396926207859084],"translation":[-0.04923604679564013,0.017467948717948725,0.016212494714926355],"name":"Bullet5","children":[13]},{"rotation":[-0.08290459313225526,-0.8970201114885743,0.1906675106468712,-0.39003544506406873],"translation":[0.05,0.05,-0.07500000000000001],"name":"PistolBullets","children":[2,4,6,8,10,12,14]},{"name":"PistolAmmoPickup","children":[0,15]},{"children":[16]}],"bufferViews":[{"buffer":0,"byteOffset":0,"byteLength":5904,"target":34962,"byteStride":12},{"buffer":0,"byteOffset":5904,"byteLength":5904,"target":34962,"byteStride":12},{"buffer":0,"byteOffset":11808,"byteLength":3936,"target":34962,"byteStride":8},{"buffer":0,"byteOffset":15744,"byteLength":1440,"target":34963},{"buffer":0,"byteOffset":17184,"byteLength":600,"target":34962,"byteStride":12},{"buffer":0,"byteOffset":17784,"byteLength":600,"target":34962,"byteStride":12},{"buffer":0,"byteOffset":18384,"byteLength":400,"target":34962,"byteStride":8},{"buffer":0,"byteOffset":18784,"byteLength":120,"target":34963},{"buffer":0,"byteOffset":18904,"byteLength":600,"target":34962,"byteStride":12},{"buffer":0,"byteOffset":19504,"byteLength":600,"target":34962,"byteStride":12},{"buffer":0,"byteOffset":20104,"byteLength":400,"target":34962,"byteStride":8},{"buffer":0,"byteOffset":20504,"byteLength":120,"target":34963},{"buffer":0,"byteOffset":20624,"byteLength":600,"target":34962,"byteStride":12},{"buffer":0,"byteOffset":21224,"byteLength":600,"target":34962,"byteStride":12},{"buffer":0,"byteOffset":21824,"byteLength":400,"target":34962,"byteStride":8},{"buffer":0,"byteOffset":22224,"byteLength":120,"target":34963},{"buffer":0,"byteOffset":22344,"byteLength":600,"target":34962,"byteStride":12},{"buffer":0,"byteOffset":22944,"byteLength":600,"target":34962,"byteStride":12},{"buffer":0,"byteOffset":23544,"byteLength":400,"target":34962,"byteStride":8},{"buffer":0,"byteOffset":23944,"byteLength":120,"target":34963},{"buffer":0,"byteOffset":24064,"byteLength":600,"target":34962,"byteStride":12},{"buffer":0,"byteOffset":24664,"byteLength":600,"target":34962,"byteStride":12},{"buffer":0,"byteOffset":25264,"byteLength":400,"target":34962,"byteStride":8},{"buffer":0,"byteOffset":25664,"byteLength":120,"target":34963},{"buffer":0,"byteOffset":25784,"byteLength":600,"target":34962,"byteStride":12},{"buffer":0,"byteOffset":26384,"byteLength":600,"target":34962,"byteStride":12},{"buffer":0,"byteOffset":26984,"byteLength":400,"target":34962,"byteStride":8},{"buffer":0,"byteOffset":27384,"byteLength":120,"target":34963},{"buffer":0,"byteOffset":27504,"byteLength":600,"target":34962,"byteStride":12},{"buffer":0,"byteOffset":28104,"byteLength":600,"target":34962,"byteStride":12},{"buffer":0,"byteOffset":28704,"byteLength":400,"target":34962,"byteStride":8},{"buffer":0,"byteOffset":29104,"byteLength":120,"target":34963}],"buffers":[{"byteLength":29224,"uri":"data:application/octet-stream;base64,"}],"accessors":[{"bufferView":0,"componentType":5126,"count":492,"max":[0.07211538404226303,0.24062499403953552,0.03750000149011612],"min":[-0.07211538404226303,-8.673617379884035e-18,-0.046875],"type":"VEC3"},{"bufferView":1,"componentType":5126,"count":492,"max":[1,1,1],"min":[-1,-1,-1],"type":"VEC3"},{"bufferView":2,"componentType":5126,"count":492,"max":[0.8567312359809875,0.875],"min":[0,0],"type":"VEC2"},{"bufferView":3,"componentType":5123,"count":720,"max":[491],"min":[0],"type":"SCALAR"},{"bufferView":4,"componentType":5126,"count":50,"max":[0.006874999962747097,0.07500000298023224,0.0025614378973841667],"min":[-0.006874999962747097,0.03125,-0.009938562288880348],"type":"VEC3"},{"bufferView":5,"componentType":5126,"count":50,"max":[0.946796178817749,0.48221880197525024,1],"min":[-0.946796178817749,-1,-0.821354866027832],"type":"VEC3"},{"bufferView":6,"componentType":5126,"count":50,"max":[0.5354999899864197,0.6875],"min":[0.05434374883770943,0.25],"type":"VEC2"},{"bufferView":7,"componentType":5123,"count":60,"max":[49],"min":[0],"type":"SCALAR"},{"bufferView":8,"componentType":5126,"count":50,"max":[0.006874999962747097,0.07500000298023224,0.0025614378973841667],"min":[-0.006874999962747097,0.03125,-0.009938562288880348],"type":"VEC3"},{"bufferView":9,"componentType":5126,"count":50,"max":[0.946796178817749,0.48221880197525024,1],"min":[-0.946796178817749,-1,-0.821354866027832],"type":"VEC3"},{"bufferView":10,"componentType":5126,"count":50,"max":[0.5354999899864197,0.6875],"min":[0.05434374883770943,0.25],"type":"VEC2"},{"bufferView":11,"componentType":5123,"count":60,"max":[49],"min":[0],"type":"SCALAR"},{"bufferView":12,"componentType":5126,"count":50,"max":[0.006874999962747097,0.07500000298023224,0.0025614378973841667],"min":[-0.006874999962747097,0.03125,-0.009938562288880348],"type":"VEC3"},{"bufferView":13,"componentType":5126,"count":50,"max":[0.946796178817749,0.48221880197525024,1],"min":[-0.946796178817749,-1,-0.821354866027832],"type":"VEC3"},{"bufferView":14,"componentType":5126,"count":50,"max":[0.5354999899864197,0.6875],"min":[0.05434374883770943,0.25],"type":"VEC2"},{"bufferView":15,"componentType":5123,"count":60,"max":[49],"min":[0],"type":"SCALAR"},{"bufferView":16,"componentType":5126,"count":50,"max":[0.006874999962747097,0.07500000298023224,0.0025614378973841667],"min":[-0.006874999962747097,0.03125,-0.009938562288880348],"type":"VEC3"},{"bufferView":17,"componentType":5126,"count":50,"max":[0.946796178817749,0.48221880197525024,1],"min":[-0.946796178817749,-1,-0.821354866027832],"type":"VEC3"},{"bufferView":18,"componentType":5126,"count":50,"max":[0.5354999899864197,0.6875],"min":[0.05434374883770943,0.25],"type":"VEC2"},{"bufferView":19,"componentType":5123,"count":60,"max":[49],"min":[0],"type":"SCALAR"},{"bufferView":20,"componentType":5126,"count":50,"max":[0.006874999962747097,0.07500000298023224,0.0025614378973841667],"min":[-0.006874999962747097,0.03125,-0.009938562288880348],"type":"VEC3"},{"bufferView":21,"componentType":5126,"count":50,"max":[0.946796178817749,0.48221880197525024,1],"min":[-0.946796178817749,-1,-0.821354866027832],"type":"VEC3"},{"bufferView":22,"componentType":5126,"count":50,"max":[0.5354999899864197,0.6875],"min":[0.05434374883770943,0.25],"type":"VEC2"},{"bufferView":23,"componentType":5123,"count":60,"max":[49],"min":[0],"type":"SCALAR"},{"bufferView":24,"componentType":5126,"count":50,"max":[0.006874999962747097,0.07500000298023224,0.0025614378973841667],"min":[-0.006874999962747097,0.03125,-0.009938562288880348],"type":"VEC3"},{"bufferView":25,"componentType":5126,"count":50,"max":[0.946796178817749,0.48221880197525024,1],"min":[-0.946796178817749,-1,-0.821354866027832],"type":"VEC3"},{"bufferView":26,"componentType":5126,"count":50,"max":[0.5354999899864197,0.6875],"min":[0.05434374883770943,0.25],"type":"VEC2"},{"bufferView":27,"componentType":5123,"count":60,"max":[49],"min":[0],"type":"SCALAR"},{"bufferView":28,"componentType":5126,"count":50,"max":[0.006874999962747097,0.07500000298023224,0.0025614378973841667],"min":[-0.006874999962747097,0.03125,-0.009938562288880348],"type":"VEC3"},{"bufferView":29,"componentType":5126,"count":50,"max":[0.946796178817749,0.48221880197525024,1],"min":[-0.946796178817749,-1,-0.821354866027832],"type":"VEC3"},{"bufferView":30,"componentType":5126,"count":50,"max":[0.5354999899864197,0.6875],"min":[0.05434374883770943,0.25],"type":"VEC2"},{"bufferView":31,"componentType":5123,"count":60,"max":[49],"min":[0],"type":"SCALAR"}],"materials":[{"pbrMetallicRoughness":{"metallicFactor":0,"roughnessFactor":1,"baseColorTexture":{"index":0}},"alphaMode":"MASK","alphaCutoff":0.05,"doubleSided":true},{"pbrMetallicRoughness":{"metallicFactor":0,"roughnessFactor":1},"alphaMode":"MASK","alphaCutoff":0.05,"doubleSided":true}],"textures":[{"sampler":0,"source":0,"name":"PistolAmmo"}],"samplers":[{"magFilter":9728,"minFilter":9728,"wrapS":33071,"wrapT":33071}],"images":[{"mimeType":"image/png","uri":"data:image/png;base64,"}],"meshes":[{"primitives":[{"mode":4,"attributes":{"POSITION":0,"NORMAL":1,"TEXCOORD_0":2},"indices":3,"material":0}]},{"primitives":[{"mode":4,"attributes":{"POSITION":4,"NORMAL":5,"TEXCOORD_0":6},"indices":7,"material":1}]},{"primitives":[{"mode":4,"attributes":{"POSITION":8,"NORMAL":9,"TEXCOORD_0":10},"indices":11,"material":1}]},{"primitives":[{"mode":4,"attributes":{"POSITION":12,"NORMAL":13,"TEXCOORD_0":14},"indices":15,"material":1}]},{"primitives":[{"mode":4,"attributes":{"POSITION":16,"NORMAL":17,"TEXCOORD_0":18},"indices":19,"material":1}]},{"primitives":[{"mode":4,"attributes":{"POSITION":20,"NORMAL":21,"TEXCOORD_0":22},"indices":23,"material":1}]},{"primitives":[{"mode":4,"attributes":{"POSITION":24,"NORMAL":25,"TEXCOORD_0":26},"indices":27,"material":1}]},{"primitives":[{"mode":4,"attributes":{"POSITION":28,"NORMAL":29,"TEXCOORD_0":30},"indices":31,"material":1}]}]}