{"asset":{"version":"2.0","generator":"Blockbench 4.11.2 glTF exporter"},"scenes":[{"nodes":[13],"name":"blockbench_export"}],"scene":0,"nodes":[{"rotation":[0.7071067811865475,0,0,0.7071067811865476],"translation":[0,-2.7755575615628914e-17,-0.06470905172413796],"name":"Shell","mesh":0},{"rotation":[0,-0.9807852804032304,0,0.19509032201612833],"translation":[0.125,0.01875000000000003,-0.029040948275862066],"name":"ShotgunShell","children":[0]},{"translation":[0,-0.06250000000000003,0],"name":"cuboid","mesh":1},{"translation":[0.0625,0.09375000000000003,0.07500000000000001],"name":"ShellBox","children":[2]},{"rotation":[0.7071067811865475,0,0,0.7071067811865476],"translation":[0,-2.7755575615628914e-17,-0.06470905172413802],"name":"Shell","mesh":2},{"rotation":[0,-0.8012538126910607,0,0.5983246005706591],"translation":[0.09999999999999998,0.01875000000000003,-0.1040409482758621],"name":"ShotgunShell2","children":[4]},{"rotation":[0.7071067811865475,0,0,0.7071067811865476],"translation":[0,-2.7755575615628914e-17,-0.06470905172413799],"name":"Shell","mesh":3},{"rotation":[0.5043442292812483,-0.4956176937829229,0.4956176937828912,0.5043442292812803],"translation":[-0.11875000000000002,0.03125000000000003,-0.04154094827586207],"name":"ShotgunShell3","children":[6]},{"rotation":[0.7071067811865475,0,0,0.7071067811865476],"translation":[0,-2.7755575615628914e-17,-0.06470905172413796],"name":"Shell","mesh":4},{"rotation":[0.5043442292812483,-0.4956176937829229,0.4956176937828912,0.5043442292812803],"translation":[-0.15000000000000005,0.03125000000000003,0.0022090517241379302],"name":"ShotgunShell4","children":[8]},{"rotation":[0.7071067811865475,0,0,0.7071067811865476],"translation":[0,-2.7755575615628914e-17,-0.064709051724138],"name":"Shell","mesh":5},{"rotation":[0.5043442292812483,-0.4956176937829229,0.4956176937828912,0.5043442292812803],"translation":[-0.17500000000000007,0.03125000000000003,-0.04779094827586207],"name":"ShotgunShell5","children":[10]},{"name":"ShotgunAmmo","children":[1,3,5,7,9,11]},{"children":[12]}],"bufferViews":[{"buffer":0,"byteOffset":0,"byteLength":2880,"target":34962,"byteStride":12},{"buffer":0,"byteOffset":2880,"byteLength":2880,"target":34962,"byteStride":12},{"buffer":0,"byteOffset":5760,"byteLength":1920,"target":34962,"byteStride":8},{"buffer":0,"byteOffset":7680,"byteLength":672,"target":34963},{"buffer":0,"byteOffset":8352,"byteLength":912,"target":34962,"byteStride":12},{"buffer":0,"byteOffset":9264,"byteLength":912,"target":34962,"byteStride":12},{"buffer":0,"byteOffset":10176,"byteLength":608,"target":34962,"byteStride":8},{"buffer":0,"byteOffset":10784,"byteLength":216,"target":34963},{"buffer":0,"byteOffset":11000,"byteLength":2880,"target":34962,"byteStride":12},{"buffer":0,"byteOffset":13880,"byteLength":2880,"target":34962,"byteStride":12},{"buffer":0,"byteOffset":16760,"byteLength":1920,"target":34962,"byteStride":8},{"buffer":0,"byteOffset":18680,"byteLength":672,"target":34963},{"buffer":0,"byteOffset":19352,"byteLength":2880,"target":34962,"byteStride":12},{"buffer":0,"byteOffset":22232,"byteLength":2880,"target":34962,"byteStride":12},{"buffer":0,"byteOffset":25112,"byteLength":1920,"target":34962,"byteStride":8},{"buffer":0,"byteOffset":27032,"byteLength":672,"target":34963},{"buffer":0,"byteOffset":27704,"byteLength":2880,"target":34962,"byteStride":12},{"buffer":0,"byteOffset":30584,"byteLength":2880,"target":34962,"byteStride":12},{"buffer":0,"byteOffset":33464,"byteLength":1920,"target":34962,"byteStride":8},{"buffer":0,"byteOffset":35384,"byteLength":672,"target":34963},{"buffer":0,"byteOffset":36056,"byteLength":2880,"target":34962,"byteStride":12},{"buffer":0,"byteOffset":38936,"byteLength":2880,"target":34962,"byteStride":12},{"buffer":0,"byteOffset":41816,"byteLength":1920,"target":34962,"byteStride":8},{"buffer":0,"byteOffset":43736,"byteLength":672,"target":34963}],"buffers":[{"byteLength":44408,"uri":"data:application/octet-stream;base64,"}],"accessors":[{"bufferView":0,"componentType":5126,"count":240,"max":[0.02031249925494194,0.09687499701976776,0.02031249925494194],"min":[-0.02031249925494194,0,-0.02031249925494194],"type":"VEC3"},{"bufferView":1,"componentType":5126,"count":240,"max":[1,1,1],"min":[-1,-1,-1],"type":"VEC3"},{"bufferView":2,"componentType":5126,"count":240,"max":[0.9277448058128357,0.9375],"min":[0,0],"type":"VEC2"},{"bufferView":3,"componentType":5123,"count":336,"max":[239],"min":[0],"type":"SCALAR"},{"bufferView":4,"componentType":5126,"count":76,"max":[0.03437500074505806,0.06562499701976776,0.03125],"min":[-0.15937499701976776,-0.03125,-0.09062500298023224],"type":"VEC3"},{"bufferView":5,"componentType":5126,"count":76,"max":[1,0.9999628663063049,1],"min":[-1,-1,-1],"type":"VEC3"},{"bufferView":6,"componentType":5126,"count":76,"max":[0.7472050189971924,0.625],"min":[0,0.03125],"type":"VEC2"},{"bufferView":7,"componentType":5123,"count":108,"max":[75],"min":[0],"type":"SCALAR"},{"bufferView":8,"componentType":5126,"count":240,"max":[0.02031249925494194,0.09687499701976776,0.02031249925494194],"min":[-0.02031249925494194,0,-0.02031249925494194],"type":"VEC3"},{"bufferView":9,"componentType":5126,"count":240,"max":[1,1,1],"min":[-1,-1,-1],"type":"VEC3"},{"bufferView":10,"componentType":5126,"count":240,"max":[0.9277448058128357,0.9375],"min":[0,0],"type":"VEC2"},{"bufferView":11,"componentType":5123,"count":336,"max":[239],"min":[0],"type":"SCALAR"},{"bufferView":12,"componentType":5126,"count":240,"max":[0.02031249925494194,0.09687499701976776,0.02031249925494194],"min":[-0.02031249925494194,0,-0.02031249925494194],"type":"VEC3"},{"bufferView":13,"componentType":5126,"count":240,"max":[1,1,1],"min":[-1,-1,-1],"type":"VEC3"},{"bufferView":14,"componentType":5126,"count":240,"max":[0.9277448058128357,0.9375],"min":[0,0],"type":"VEC2"},{"bufferView":15,"componentType":5123,"count":336,"max":[239],"min":[0],"type":"SCALAR"},{"bufferView":16,"componentType":5126,"count":240,"max":[0.02031249925494194,0.09687499701976776,0.02031249925494194],"min":[-0.02031249925494194,0,-0.02031249925494194],"type":"VEC3"},{"bufferView":17,"componentType":5126,"count":240,"max":[1,1,1],"min":[-1,-1,-1],"type":"VEC3"},{"bufferView":18,"componentType":5126,"count":240,"max":[0.9277448058128357,0.9375],"min":[0,0],"type":"VEC2"},{"bufferView":19,"componentType":5123,"count":336,"max":[239],"min":[0],"type":"SCALAR"},{"bufferView":20,"componentType":5126,"count":240,"max":[0.02031249925494194,0.09687499701976776,0.02031249925494194],"min":[-0.02031249925494194,0,-0.02031249925494194],"type":"VEC3"},{"bufferView":21,"componentType":5126,"count":240,"max":[1,1,1],"min":[-1,-1,-1],"type":"VEC3"},{"bufferView":22,"componentType":5126,"count":240,"max":[0.9277448058128357,0.9375],"min":[0,0],"type":"VEC2"},{"bufferView":23,"componentType":5123,"count":336,"max":[239],"min":[0],"type":"SCALAR"}],"materials":[{"pbrMetallicRoughness":{"metallicFactor":0,"roughnessFactor":1,"baseColorTexture":{"index":0}},"alphaMode":"MASK","alphaCutoff":0.05,"doubleSided":true}],"textures":[{"sampler":0,"source":0,"name":"ShotgunAmmo"}],"samplers":[{"magFilter":9728,"minFilter":9728,"wrapS":33071,"wrapT":33071}],"images":[{"mimeType":"image/png","uri":"data:image/png;base64,"}],"meshes":[{"primitives":[{"mode":4,"attributes":{"POSITION":0,"NORMAL":1,"TEXCOORD_0":2},"indices":3,"material":0}]},{"primitives":[{"mode":4,"attributes":{"POSITION":4,"NORMAL":5,"TEXCOORD_0":6},"indices":7,"material":0}]},{"primitives":[{"mode":4,"attributes":{"POSITION":8,"NORMAL":9,"TEXCOORD_0":10},"indices":11,"material":0}]},{"primitives":[{"mode":4,"attributes":{"POSITION":12,"NORMAL":13,"TEXCOORD_0":14},"indices":15,"material":0}]},{"primitives":[{"mode":4,"attributes":{"POSITION":16,"NORMAL":17,"TEXCOORD_0":18},"indices":19,"material":0}]},{"primitives":[{"mode":4,"attributes":{"POSITION":20,"NORMAL":21,"TEXCOORD_0":22},"indices":23,"material":0}]}]}