{"asset":{"version":"2.0","generator":"Blockbench 4.11.2 glTF exporter"},"scenes":[{"nodes":[18],"name":"blockbench_export"}],"scene":0,"nodes":[{"translation":[-0.03750000000000002,0.01746794871794871,-0.04677873209218364],"name":"Bullet6"},{"translation":[0,-0.06250000000000001,0],"name":"cuboid","mesh":0},{"translation":[0.0625,0.08125000000000002,0.07500000000000001],"name":"AmmoBox","children":[1]},{"translation":[-3.469446951953614e-18,-0.04871794871794871,0.0030287320921836905],"name":"cylinder","mesh":1},{"translation":[-0.018750000000000013,0.01746794871794871,-0.04052873209218364],"name":"Bullet","children":[3]},{"rotation":[0,0.1908089953765448,0,0.981627183447664],"translation":[0,-0.04871794871794871,-0.003221267907816308],"name":"cylinder","mesh":2},{"translation":[-0.03750000000000002,0.01746794871794871,-0.04677873209218364],"name":"Bullet6","children":[5]},{"translation":[-3.469446951953614e-18,-0.04871794871794871,0.0030287320921836905],"name":"cylinder","mesh":3},{"rotation":[0,-0.3420201433256687,0,0.9396926207859084],"translation":[-0.018750000000000017,0.01746794871794871,-0.059278732092183636],"name":"Bullet3","children":[7]},{"translation":[0,-0.04871794871794871,0.0030287320921836905],"name":"cylinder","mesh":4},{"rotation":[0,-0.3420201433256687,0,0.9396926207859084],"translation":[-0.05625000000000002,0.01746794871794871,-0.059278732092183636],"name":"Bullet4","children":[9]},{"translation":[0,-0.04871794871794871,0.0030287320921836836],"name":"cylinder","mesh":5},{"rotation":[0,-0.3420201433256687,0,0.9396926207859084],"translation":[-0.05625000000000002,0.01746794871794871,-0.040528732092183634],"name":"Bullet5","children":[11]},{"rotation":[0,0.1908089953765448,0,0.981627183447664],"translation":[0,-0.04871794871794871,-0.003221267907816308],"name":"cylinder","mesh":6},{"translation":[-0.07500000000000004,0.01746794871794871,-0.04677873209218364],"name":"Bullet2","children":[13]},{"rotation":[0,0.1908089953765448,0,0.981627183447664],"translation":[0,-0.04871794871794871,-0.003221267907816308],"name":"cylinder","mesh":7},{"rotation":[-0.6813896280216829,-0.18896606791821607,-0.18896606791821635,0.681389628021684],"translation":[0.006249999999999978,0.011217948717948711,-0.04677873209218364],"name":"Bullet7","children":[15]},{"name":"SMGAmmo","children":[0,2,4,6,8,10,12,14,16]},{"children":[17]}],"bufferViews":[{"buffer":0,"byteOffset":0,"byteLength":912,"target":34962,"byteStride":12},{"buffer":0,"byteOffset":912,"byteLength":912,"target":34962,"byteStride":12},{"buffer":0,"byteOffset":1824,"byteLength":608,"target":34962,"byteStride":8},{"buffer":0,"byteOffset":2432,"byteLength":216,"target":34963},{"buffer":0,"byteOffset":2648,"byteLength":600,"target":34962,"byteStride":12},{"buffer":0,"byteOffset":3248,"byteLength":600,"target":34962,"byteStride":12},{"buffer":0,"byteOffset":3848,"byteLength":400,"target":34962,"byteStride":8},{"buffer":0,"byteOffset":4248,"byteLength":120,"target":34963},{"buffer":0,"byteOffset":4368,"byteLength":600,"target":34962,"byteStride":12},{"buffer":0,"byteOffset":4968,"byteLength":600,"target":34962,"byteStride":12},{"buffer":0,"byteOffset":5568,"byteLength":400,"target":34962,"byteStride":8},{"buffer":0,"byteOffset":5968,"byteLength":120,"target":34963},{"buffer":0,"byteOffset":6088,"byteLength":600,"target":34962,"byteStride":12},{"buffer":0,"byteOffset":6688,"byteLength":600,"target":34962,"byteStride":12},{"buffer":0,"byteOffset":7288,"byteLength":400,"target":34962,"byteStride":8},{"buffer":0,"byteOffset":7688,"byteLength":120,"target":34963},{"buffer":0,"byteOffset":7808,"byteLength":600,"target":34962,"byteStride":12},{"buffer":0,"byteOffset":8408,"byteLength":600,"target":34962,"byteStride":12},{"buffer":0,"byteOffset":9008,"byteLength":400,"target":34962,"byteStride":8},{"buffer":0,"byteOffset":9408,"byteLength":120,"target":34963},{"buffer":0,"byteOffset":9528,"byteLength":600,"target":34962,"byteStride":12},{"buffer":0,"byteOffset":10128,"byteLength":600,"target":34962,"byteStride":12},{"buffer":0,"byteOffset":10728,"byteLength":400,"target":34962,"byteStride":8},{"buffer":0,"byteOffset":11128,"byteLength":120,"target":34963},{"buffer":0,"byteOffset":11248,"byteLength":600,"target":34962,"byteStride":12},{"buffer":0,"byteOffset":11848,"byteLength":600,"target":34962,"byteStride":12},{"buffer":0,"byteOffset":12448,"byteLength":400,"target":34962,"byteStride":8},{"buffer":0,"byteOffset":12848,"byteLength":120,"target":34963},{"buffer":0,"byteOffset":12968,"byteLength":600,"target":34962,"byteStride":12},{"buffer":0,"byteOffset":13568,"byteLength":600,"target":34962,"byteStride":12},{"buffer":0,"byteOffset":14168,"byteLength":400,"target":34962,"byteStride":8},{"buffer":0,"byteOffset":14568,"byteLength":120,"target":34963}],"buffers":[{"byteLength":14688,"uri":"data:application/octet-stream;base64,"}],"accessors":[{"bufferView":0,"componentType":5126,"count":76,"max":[0.02187499962747097,0.04062499850988388,0.03125],"min":[-0.14687499403953552,-0.01875000074505806,-0.09062500298023224],"type":"VEC3"},{"bufferView":1,"componentType":5126,"count":76,"max":[1,0.9999860525131226,1],"min":[-1,-1,-1],"type":"VEC3"},{"bufferView":2,"componentType":5126,"count":76,"max":[0.6247718334197998,0.5463687181472778],"min":[0,0],"type":"VEC2"},{"bufferView":3,"componentType":5123,"count":108,"max":[75],"min":[0],"type":"SCALAR"},{"bufferView":4,"componentType":5126,"count":50,"max":[0.006874999962747097,0.07500000298023224,0.0025614378973841667],"min":[-0.006874999962747097,0.03125,-0.009938562288880348],"type":"VEC3"},{"bufferView":5,"componentType":5126,"count":50,"max":[0.946796178817749,0.48221880197525024,1],"min":[-0.946796178817749,-1,-0.821354866027832],"type":"VEC3"},{"bufferView":6,"componentType":5126,"count":50,"max":[0.5354999899864197,0.6875],"min":[0.05434374883770943,0.25],"type":"VEC2"},{"bufferView":7,"componentType":5123,"count":60,"max":[49],"min":[0],"type":"SCALAR"},{"bufferView":8,"componentType":5126,"count":50,"max":[0.006874999962747097,0.07500000298023224,0.0025614378973841667],"min":[-0.006874999962747097,0.03125,-0.009938562288880348],"type":"VEC3"},{"bufferView":9,"componentType":5126,"count":50,"max":[0.946796178817749,0.48221880197525024,1],"min":[-0.946796178817749,-1,-0.821354866027832],"type":"VEC3"},{"bufferView":10,"componentType":5126,"count":50,"max":[0.5354999899864197,0.6875],"min":[0.05434374883770943,0.25],"type":"VEC2"},{"bufferView":11,"componentType":5123,"count":60,"max":[49],"min":[0],"type":"SCALAR"},{"bufferView":12,"componentType":5126,"count":50,"max":[0.006874999962747097,0.07500000298023224,0.0025614378973841667],"min":[-0.006874999962747097,0.03125,-0.009938562288880348],"type":"VEC3"},{"bufferView":13,"componentType":5126,"count":50,"max":[0.946796178817749,0.48221880197525024,1],"min":[-0.946796178817749,-1,-0.821354866027832],"type":"VEC3"},{"bufferView":14,"componentType":5126,"count":50,"max":[0.5354999899864197,0.6875],"min":[0.05434374883770943,0.25],"type":"VEC2"},{"bufferView":15,"componentType":5123,"count":60,"max":[49],"min":[0],"type":"SCALAR"},{"bufferView":16,"componentType":5126,"count":50,"max":[0.006874999962747097,0.07500000298023224,0.0025614378973841667],"min":[-0.006874999962747097,0.03125,-0.009938562288880348],"type":"VEC3"},{"bufferView":17,"componentType":5126,"count":50,"max":[0.946796178817749,0.48221880197525024,1],"min":[-0.946796178817749,-1,-0.821354866027832],"type":"VEC3"},{"bufferView":18,"componentType":5126,"count":50,"max":[0.5354999899864197,0.6875],"min":[0.05434374883770943,0.25],"type":"VEC2"},{"bufferView":19,"componentType":5123,"count":60,"max":[49],"min":[0],"type":"SCALAR"},{"bufferView":20,"componentType":5126,"count":50,"max":[0.006874999962747097,0.07500000298023224,0.0025614378973841667],"min":[-0.006874999962747097,0.03125,-0.009938562288880348],"type":"VEC3"},{"bufferView":21,"componentType":5126,"count":50,"max":[0.946796178817749,0.48221880197525024,1],"min":[-0.946796178817749,-1,-0.821354866027832],"type":"VEC3"},{"bufferView":22,"componentType":5126,"count":50,"max":[0.5354999899864197,0.6875],"min":[0.05434374883770943,0.25],"type":"VEC2"},{"bufferView":23,"componentType":5123,"count":60,"max":[49],"min":[0],"type":"SCALAR"},{"bufferView":24,"componentType":5126,"count":50,"max":[0.006874999962747097,0.07500000298023224,0.0025614378973841667],"min":[-0.006874999962747097,0.03125,-0.009938562288880348],"type":"VEC3"},{"bufferView":25,"componentType":5126,"count":50,"max":[0.946796178817749,0.48221880197525024,1],"min":[-0.946796178817749,-1,-0.821354866027832],"type":"VEC3"},{"bufferView":26,"componentType":5126,"count":50,"max":[0.5354999899864197,0.6875],"min":[0.05434374883770943,0.25],"type":"VEC2"},{"bufferView":27,"componentType":5123,"count":60,"max":[49],"min":[0],"type":"SCALAR"},{"bufferView":28,"componentType":5126,"count":50,"max":[0.006874999962747097,0.07500000298023224,0.0025614378973841667],"min":[-0.006874999962747097,0.03125,-0.009938562288880348],"type":"VEC3"},{"bufferView":29,"componentType":5126,"count":50,"max":[0.946796178817749,0.48221880197525024,1],"min":[-0.946796178817749,-1,-0.821354866027832],"type":"VEC3"},{"bufferView":30,"componentType":5126,"count":50,"max":[0.5354999899864197,0.6875],"min":[0.05434374883770943,0.25],"type":"VEC2"},{"bufferView":31,"componentType":5123,"count":60,"max":[49],"min":[0],"type":"SCALAR"}],"materials":[{"pbrMetallicRoughness":{"metallicFactor":0,"roughnessFactor":1,"baseColorTexture":{"index":0}},"alphaMode":"MASK","alphaCutoff":0.05,"doubleSided":true}],"textures":[{"sampler":0,"source":0,"name":"SMGAmmo"}],"samplers":[{"magFilter":9728,"minFilter":9728,"wrapS":33071,"wrapT":33071}],"images":[{"mimeType":"image/png","uri":"data:image/png;base64,"}],"meshes":[{"primitives":[{"mode":4,"attributes":{"POSITION":0,"NORMAL":1,"TEXCOORD_0":2},"indices":3,"material":0}]},{"primitives":[{"mode":4,"attributes":{"POSITION":4,"NORMAL":5,"TEXCOORD_0":6},"indices":7,"material":0}]},{"primitives":[{"mode":4,"attributes":{"POSITION":8,"NORMAL":9,"TEXCOORD_0":10},"indices":11,"material":0}]},{"primitives":[{"mode":4,"attributes":{"POSITION":12,"NORMAL":13,"TEXCOORD_0":14},"indices":15,"material":0}]},{"primitives":[{"mode":4,"attributes":{"POSITION":16,"NORMAL":17,"TEXCOORD_0":18},"indices":19,"material":0}]},{"primitives":[{"mode":4,"attributes":{"POSITION":20,"NORMAL":21,"TEXCOORD_0":22},"indices":23,"material":0}]},{"primitives":[{"mode":4,"attributes":{"POSITION":24,"NORMAL":25,"TEXCOORD_0":26},"indices":27,"material":0}]},{"primitives":[{"mode":4,"attributes":{"POSITION":28,"NORMAL":29,"TEXCOORD_0":30},"indices":31,"material":0}]}]}