{"asset":{"version":"2.0","generator":"Blockbench 4.11.2 glTF exporter"},"scenes":[{"nodes":[5],"name":"blockbench_export"}],"scene":0,"nodes":[{"rotation":[0.7071067811865475,0,0,0.7071067811865476],"translation":[0,2.75,0.0625],"name":"Door","mesh":0},{"translation":[0,0,0.125],"name":"DoorHandle","mesh":1},{"name":"Door","children":[0,1]},{"rotation":[0,0,-0.7071067811865475,0.7071067811865476],"translation":[0,3.125,0.375],"name":"Roll","mesh":2},{"name":"RollingDoor","children":[2,3]},{"children":[4]}],"bufferViews":[{"buffer":0,"byteOffset":0,"byteLength":48,"target":34962,"byteStride":12},{"buffer":0,"byteOffset":48,"byteLength":48,"target":34962,"byteStride":12},{"buffer":0,"byteOffset":96,"byteLength":32,"target":34962,"byteStride":8},{"buffer":0,"byteOffset":128,"byteLength":12,"target":34963},{"buffer":0,"byteOffset":140,"byteLength":1536,"target":34962,"byteStride":12},{"buffer":0,"byteOffset":1676,"byteLength":1536,"target":34962,"byteStride":12},{"buffer":0,"byteOffset":3212,"byteLength":1024,"target":34962,"byteStride":8},{"buffer":0,"byteOffset":4236,"byteLength":384,"target":34963},{"buffer":0,"byteOffset":4620,"byteLength":2496,"target":34962,"byteStride":12},{"buffer":0,"byteOffset":7116,"byteLength":2496,"target":34962,"byteStride":12},{"buffer":0,"byteOffset":9612,"byteLength":1664,"target":34962,"byteStride":8},{"buffer":0,"byteOffset":11276,"byteLength":576,"target":34963}],"buffers":[{"byteLength":11852,"uri":"data:application/octet-stream;base64,"}],"accessors":[{"bufferView":0,"componentType":5126,"count":4,"max":[1.5,0,2.75],"min":[-1.5,-5.273559366969494e-16,-0.375],"type":"VEC3"},{"bufferView":1,"componentType":5126,"count":4,"max":[0,1,1.6875389762544143e-16],"min":[0,1,1.6875389762544143e-16],"type":"VEC3"},{"bufferView":2,"componentType":5126,"count":4,"max":[0.1875,0.40234375],"min":[0,0.20703125],"type":"VEC2"},{"bufferView":3,"componentType":5123,"count":6,"max":[3],"min":[0],"type":"SCALAR"},{"bufferView":4,"componentType":5126,"count":128,"max":[0.34375,0.0625,0],"min":[-0.34375,0,-0.125],"type":"VEC3"},{"bufferView":5,"componentType":5126,"count":128,"max":[1,1,1],"min":[-1,-1,-1],"type":"VEC3"},{"bufferView":6,"componentType":5126,"count":128,"max":[0.08984375,0.0703125],"min":[0,0.015625],"type":"VEC2"},{"bufferView":7,"componentType":5123,"count":192,"max":[127],"min":[0],"type":"SCALAR"},{"bufferView":8,"componentType":5126,"count":208,"max":[3.125,1.625,0.375],"min":[-0.375,-1.625,-0.375],"type":"VEC3"},{"bufferView":9,"componentType":5126,"count":208,"max":[1,1,1],"min":[-1,-1,-1],"type":"VEC3"},{"bufferView":10,"componentType":5126,"count":208,"max":[0.50390625,0.4765625],"min":[0.0005048828315921128,0],"type":"VEC2"},{"bufferView":11,"componentType":5123,"count":288,"max":[207],"min":[0],"type":"SCALAR"}],"materials":[{"pbrMetallicRoughness":{"metallicFactor":0,"roughnessFactor":1,"baseColorTexture":{"index":0}},"alphaMode":"MASK","alphaCutoff":0.05,"doubleSided":true}],"textures":[{"sampler":0,"source":0,"name":"RollingDoor.png"}],"samplers":[{"magFilter":9728,"minFilter":9728,"wrapS":33071,"wrapT":33071}],"images":[{"mimeType":"image/png","uri":"data:image/png;base64,"}],"meshes":[{"primitives":[{"mode":4,"attributes":{"POSITION":0,"NORMAL":1,"TEXCOORD_0":2},"indices":3,"material":0}]},{"primitives":[{"mode":4,"attributes":{"POSITION":4,"NORMAL":5,"TEXCOORD_0":6},"indices":7,"material":0}]},{"primitives":[{"mode":4,"attributes":{"POSITION":8,"NORMAL":9,"TEXCOORD_0":10},"indices":11,"material":0}]}]}