{"asset":{"version":"2.0","generator":"Blockbench 4.11.2 glTF exporter"},"scenes":[{"nodes":[6],"name":"blockbench_export"}],"scene":0,"nodes":[{"name":"magazine","mesh":0},{"name":"Magazine","children":[0]},{"name":"body","mesh":1},{"rotation":[0.5000000111758708,0.499999988824129,0.4999999888241289,0.5000000111758709],"name":"barrel","mesh":2},{"name":"cylinder","mesh":3},{"rotation":[0,-1,0,6.123233995736766e-17],"translation":[-0.03125,-0.26875,0],"name":"ShortGun","children":[1,2,3,4]},{"children":[5]}],"bufferViews":[{"buffer":0,"byteOffset":0,"byteLength":864,"target":34962,"byteStride":12},{"buffer":0,"byteOffset":864,"byteLength":864,"target":34962,"byteStride":12},{"buffer":0,"byteOffset":1728,"byteLength":576,"target":34962,"byteStride":8},{"buffer":0,"byteOffset":2304,"byteLength":216,"target":34963},{"buffer":0,"byteOffset":2520,"byteLength":3744,"target":34962,"byteStride":12},{"buffer":0,"byteOffset":6264,"byteLength":3744,"target":34962,"byteStride":12},{"buffer":0,"byteOffset":10008,"byteLength":2496,"target":34962,"byteStride":8},{"buffer":0,"byteOffset":12504,"byteLength":936,"target":34963},{"buffer":0,"byteOffset":13440,"byteLength":1296,"target":34962,"byteStride":12},{"buffer":0,"byteOffset":14736,"byteLength":1296,"target":34962,"byteStride":12},{"buffer":0,"byteOffset":16032,"byteLength":864,"target":34962,"byteStride":8},{"buffer":0,"byteOffset":16896,"byteLength":288,"target":34963},{"buffer":0,"byteOffset":17184,"byteLength":720,"target":34962,"byteStride":12},{"buffer":0,"byteOffset":17904,"byteLength":720,"target":34962,"byteStride":12},{"buffer":0,"byteOffset":18624,"byteLength":480,"target":34962,"byteStride":8},{"buffer":0,"byteOffset":19104,"byteLength":144,"target":34963}],"buffers":[{"byteLength":19248,"uri":"data:application/octet-stream;base64,"}],"accessors":[{"bufferView":0,"componentType":5126,"count":72,"max":[0.0031250000465661287,0.1875,0.06562499701976776],"min":[-0.06562499701976776,-0.012500000186264515,-0.06562499701976776],"type":"VEC3"},{"bufferView":1,"componentType":5126,"count":72,"max":[1,1,1],"min":[-1,-1,-1],"type":"VEC3"},{"bufferView":2,"componentType":5126,"count":72,"max":[0.59375,0.59375],"min":[0.0625,0],"type":"VEC2"},{"bufferView":3,"componentType":5123,"count":108,"max":[71],"min":[0],"type":"SCALAR"},{"bufferView":4,"componentType":5126,"count":312,"max":[0,0.3375000059604645,0.125],"min":[-0.0625,0.0625,-0.4375],"type":"VEC3"},{"bufferView":5,"componentType":5126,"count":312,"max":[1,1,1],"min":[-1,-1,-1],"type":"VEC3"},{"bufferView":6,"componentType":5126,"count":312,"max":[0.590624988079071,0.637499988079071],"min":[0,0],"type":"VEC2"},{"bufferView":7,"componentType":5123,"count":468,"max":[311],"min":[0],"type":"SCALAR"},{"bufferView":8,"componentType":5126,"count":108,"max":[0.30483439564704895,0.1875,0],"min":[0.23266561329364777,0.125,-0.0625],"type":"VEC3"},{"bufferView":9,"componentType":5126,"count":108,"max":[0.8660253882408142,1,1],"min":[-0.8660253882408142,-1,-1],"type":"VEC3"},{"bufferView":10,"componentType":5126,"count":108,"max":[0.625,0.65625],"min":[0.008859374560415745,0],"type":"VEC2"},{"bufferView":11,"componentType":5123,"count":144,"max":[107],"min":[0],"type":"SCALAR"},{"bufferView":12,"componentType":5126,"count":60,"max":[-0.015625,0.21718749403953552,0.15312500298023224],"min":[-0.046875,0.18281249701976776,0.12187500298023224],"type":"VEC3"},{"bufferView":13,"componentType":5126,"count":60,"max":[1,0.876215934753418,1],"min":[-1,-0.876215934753418,-1],"type":"VEC3"},{"bufferView":14,"componentType":5126,"count":60,"max":[0.6484375,0.59375],"min":[0,0.125],"type":"VEC2"},{"bufferView":15,"componentType":5123,"count":72,"max":[59],"min":[0],"type":"SCALAR"}],"materials":[{"pbrMetallicRoughness":{"metallicFactor":0,"roughnessFactor":1,"baseColorTexture":{"index":0}},"alphaMode":"MASK","alphaCutoff":0.05,"doubleSided":true}],"textures":[{"sampler":0,"source":0,"name":"ShortGun.png"}],"samplers":[{"magFilter":9728,"minFilter":9728,"wrapS":33071,"wrapT":33071}],"images":[{"mimeType":"image/png","uri":"data:image/png;base64,"}],"meshes":[{"primitives":[{"mode":4,"attributes":{"POSITION":0,"NORMAL":1,"TEXCOORD_0":2},"indices":3,"material":0}]},{"primitives":[{"mode":4,"attributes":{"POSITION":4,"NORMAL":5,"TEXCOORD_0":6},"indices":7,"material":0}]},{"primitives":[{"mode":4,"attributes":{"POSITION":8,"NORMAL":9,"TEXCOORD_0":10},"indices":11,"material":0}]},{"primitives":[{"mode":4,"attributes":{"POSITION":12,"NORMAL":13,"TEXCOORD_0":14},"indices":15,"material":0}]}]}