{"asset":{"version":"2.0","generator":"Blockbench 4.12.2 glTF exporter"},"scenes":[{"nodes":[8],"name":"blockbench_export"}],"scene":0,"nodes":[{"rotation":[-0.08715574274765817,0,0,0.9961946980917455],"translation":[0.003125,0.002534873672953991,-0.003620174783372357],"name":"trigger","mesh":0},{"rotation":[0.07845909572784494,0,0,0.996917333733128],"translation":[0,-0.04600001904193287,0.08187607811462727],"name":"TriggerBone","children":[0]},{"translation":[0,-0.0125,0.16874999999999998],"name":"Bolt","mesh":1},{"name":"Slide","children":[2]},{"translation":[0,0.05,-0.1375],"name":"Magazine","mesh":2},{"translation":[0,-0.05,0.1375],"name":"MagazineBone","children":[4]},{"translation":[0,-0.09375,0],"name":"Body","mesh":3},{"name":"Pistol","children":[1,3,5,6]},{"children":[7]}],"bufferViews":[{"buffer":0,"byteOffset":0,"byteLength":288,"target":34962,"byteStride":12},{"buffer":0,"byteOffset":288,"byteLength":288,"target":34962,"byteStride":12},{"buffer":0,"byteOffset":576,"byteLength":192,"target":34962,"byteStride":8},{"buffer":0,"byteOffset":768,"byteLength":72,"target":34963},{"buffer":0,"byteOffset":840,"byteLength":1248,"target":34962,"byteStride":12},{"buffer":0,"byteOffset":2088,"byteLength":1248,"target":34962,"byteStride":12},{"buffer":0,"byteOffset":3336,"byteLength":832,"target":34962,"byteStride":8},{"buffer":0,"byteOffset":4168,"byteLength":312,"target":34963},{"buffer":0,"byteOffset":4480,"byteLength":1248,"target":34962,"byteStride":12},{"buffer":0,"byteOffset":5728,"byteLength":1248,"target":34962,"byteStride":12},{"buffer":0,"byteOffset":6976,"byteLength":832,"target":34962,"byteStride":8},{"buffer":0,"byteOffset":7808,"byteLength":312,"target":34963},{"buffer":0,"byteOffset":8120,"byteLength":10200,"target":34962,"byteStride":12},{"buffer":0,"byteOffset":18320,"byteLength":10200,"target":34962,"byteStride":12},{"buffer":0,"byteOffset":28520,"byteLength":6800,"target":34962,"byteStride":8},{"buffer":0,"byteOffset":35320,"byteLength":2508,"target":34963},{"buffer":0,"byteOffset":37828,"byteLength":16},{"buffer":0,"byteOffset":37844,"byteLength":48},{"buffer":0,"byteOffset":37892,"byteLength":92},{"buffer":0,"byteOffset":37984,"byteLength":368},{"buffer":0,"byteOffset":38352,"byteLength":92},{"buffer":0,"byteOffset":38444,"byteLength":276},{"buffer":0,"byteOffset":38720,"byteLength":32},{"buffer":0,"byteOffset":38752,"byteLength":128},{"buffer":0,"byteOffset":38880,"byteLength":40},{"buffer":0,"byteOffset":38920,"byteLength":120}],"buffers":[{"byteLength":39040,"uri":"data:application/octet-stream;base64,"}],"accessors":[{"bufferView":0,"componentType":5126,"count":24,"max":[1.734723475976807e-18,-1.3877787807814457e-17,0.0062500000931322575],"min":[-0.0062500000931322575,-0.03125,4.336808689942018e-17],"type":"VEC3"},{"bufferView":1,"componentType":5126,"count":24,"max":[1,1,1],"min":[-1,-1,-1],"type":"VEC3"},{"bufferView":2,"componentType":5126,"count":24,"max":[0.375,0.375],"min":[0,0.0625],"type":"VEC2"},{"bufferView":3,"componentType":5123,"count":36,"max":[23],"min":[0],"type":"SCALAR"},{"bufferView":4,"componentType":5126,"count":104,"max":[0.012500000186264515,0.01875000074505806,0.01875000074505806],"min":[-0.012500000186264515,-0.0062500000931322575,-0.08124999701976776],"type":"VEC3"},{"bufferView":5,"componentType":5126,"count":104,"max":[1,1,1],"min":[-1,-1,-1],"type":"VEC3"},{"bufferView":6,"componentType":5126,"count":104,"max":[0.6390625238418579,0.578125],"min":[0.0062500000931322575,0],"type":"VEC2"},{"bufferView":7,"componentType":5123,"count":156,"max":[103],"min":[0],"type":"SCALAR"},{"bufferView":8,"componentType":5126,"count":104,"max":[0.01875000074505806,-0.03750000149011612,0.20000000298023224],"min":[-0.01875000074505806,-0.15000000596046448,0.10625000298023224],"type":"VEC3"},{"bufferView":9,"componentType":5126,"count":104,"max":[1,1,1],"min":[-1,-1,-1],"type":"VEC3"},{"bufferView":10,"componentType":5126,"count":104,"max":[0.664145290851593,0.628125011920929],"min":[0.06865312159061432,0],"type":"VEC2"},{"bufferView":11,"componentType":5123,"count":156,"max":[103],"min":[0],"type":"SCALAR"},{"bufferView":12,"componentType":5126,"count":850,"max":[0.02500000037252903,0.10625000298023224,0.20000000298023224],"min":[-0.02500000037252903,-0.04374999925494194,-0.06875000149011612],"type":"VEC3"},{"bufferView":13,"componentType":5126,"count":850,"max":[1,1,1],"min":[-1,-1,-1],"type":"VEC3"},{"bufferView":14,"componentType":5126,"count":850,"max":[0.6609531044960022,0.6591625213623047],"min":[0,0],"type":"VEC2"},{"bufferView":15,"componentType":5123,"count":1254,"max":[849],"min":[0],"type":"SCALAR"},{"bufferView":16,"componentType":5126,"count":4,"max":[0.1388888955116272],"min":[0],"type":"SCALAR"},{"bufferView":17,"componentType":5126,"count":4,"max":[0,0,0.03125],"min":[0,0,0],"type":"VEC3"},{"bufferView":18,"componentType":5126,"count":23,"max":[1.25],"min":[0],"type":"SCALAR"},{"bufferView":19,"componentType":5126,"count":23,"max":[0.1175062358379364,0.006039170082658529,0,1],"min":[-0.02891743741929531,-0.018825998529791832,-0.1507950872182846,0.9813759326934814],"type":"VEC4"},{"bufferView":20,"componentType":5126,"count":23,"max":[1.25],"min":[0],"type":"SCALAR"},{"bufferView":21,"componentType":5126,"count":23,"max":[0.10041112452745438,0.10918766260147095,0.015026504173874855],"min":[0,0,-0.00900865439325571],"type":"VEC3"},{"bufferView":22,"componentType":5126,"count":8,"max":[0.7083333134651184],"min":[0],"type":"SCALAR"},{"bufferView":23,"componentType":5126,"count":8,"max":[0,0,0.03489949554204941,1],"min":[0,0,-0.030538512393832207,0.9993908405303955],"type":"VEC4"},{"bufferView":24,"componentType":5126,"count":10,"max":[0.7916666865348816],"min":[0],"type":"SCALAR"},{"bufferView":25,"componentType":5126,"count":10,"max":[0.01931411772966385,-0.05000000074505806,0.23125000298023224],"min":[-0.004312037955969572,-0.4493910074234009,0.13750000298023224],"type":"VEC3"}],"materials":[{"pbrMetallicRoughness":{"metallicFactor":0,"roughnessFactor":1,"baseColorTexture":{"index":0}},"alphaMode":"MASK","alphaCutoff":0.05,"doubleSided":true}],"textures":[{"sampler":0,"source":0,"name":"Pistol"}],"samplers":[{"magFilter":9728,"minFilter":9728,"wrapS":33071,"wrapT":33071}],"images":[{"mimeType":"image/png","uri":"data:image/png;base64,"}],"meshes":[{"primitives":[{"mode":4,"attributes":{"POSITION":0,"NORMAL":1,"TEXCOORD_0":2},"indices":3,"material":0}]},{"primitives":[{"mode":4,"attributes":{"POSITION":4,"NORMAL":5,"TEXCOORD_0":6},"indices":7,"material":0}]},{"primitives":[{"mode":4,"attributes":{"POSITION":8,"NORMAL":9,"TEXCOORD_0":10},"indices":11,"material":0}]},{"primitives":[{"mode":4,"attributes":{"POSITION":12,"NORMAL":13,"TEXCOORD_0":14},"indices":15,"material":0}]}],"animations":[{"name":"shoot","samplers":[{"input":16,"output":17,"interpolation":"LINEAR"}],"channels":[{"sampler":0,"target":{"node":3,"path":"translation"}}]},{"name":"reload","samplers":[{"input":18,"output":19,"interpolation":"LINEAR"},{"input":20,"output":21,"interpolation":"LINEAR"},{"input":22,"output":23,"interpolation":"LINEAR"},{"input":24,"output":25,"interpolation":"LINEAR"}],"channels":[{"sampler":0,"target":{"node":7,"path":"rotation"}},{"sampler":1,"target":{"node":7,"path":"translation"}},{"sampler":2,"target":{"node":5,"path":"rotation"}},{"sampler":3,"target":{"node":5,"path":"translation"}}]}]}