{"asset":{"version":"2.0","generator":"Blockbench 4.11.2 glTF exporter"},"scenes":[{"nodes":[1],"name":"blockbench_export"}],"scene":0,"nodes":[{"rotation":[-0.6427876096865393,0,0,0.766044443118978],"translation":[0,1.4375,0.5],"name":"MassiveRock","mesh":0},{"children":[0]}],"bufferViews":[{"buffer":0,"byteOffset":0,"byteLength":7848,"target":34962,"byteStride":12},{"buffer":0,"byteOffset":7848,"byteLength":7848,"target":34962,"byteStride":12},{"buffer":0,"byteOffset":15696,"byteLength":5232,"target":34962,"byteStride":8},{"buffer":0,"byteOffset":20928,"byteLength":1944,"target":34963}],"buffers":[{"byteLength":22872,"uri":"data:application/octet-stream;base64,"}],"accessors":[{"bufferView":0,"componentType":5126,"count":654,"max":[1.4375,1.5,3.3213212490081787],"min":[-1.7993978261947632,-1.75,-1.625],"type":"VEC3"},{"bufferView":1,"componentType":5126,"count":654,"max":[1,1,0.9997643828392029],"min":[-0.997877836227417,-1,-1],"type":"VEC3"},{"bufferView":2,"componentType":5126,"count":654,"max":[0.5686565637588501,0.5546875],"min":[0,0],"type":"VEC2"},{"bufferView":3,"componentType":5123,"count":972,"max":[653],"min":[0],"type":"SCALAR"}],"materials":[{"pbrMetallicRoughness":{"metallicFactor":0,"roughnessFactor":1,"baseColorTexture":{"index":0}},"alphaMode":"MASK","alphaCutoff":0.05,"doubleSided":true}],"textures":[{"sampler":0,"source":0,"name":"MassiveRock1"}],"samplers":[{"magFilter":9728,"minFilter":9728,"wrapS":33071,"wrapT":33071}],"images":[{"mimeType":"image/png","uri":"data:image/png;base64,"}],"meshes":[{"primitives":[{"mode":4,"attributes":{"POSITION":0,"NORMAL":1,"TEXCOORD_0":2},"indices":3,"material":0}]}]}