{"asset":{"version":"2.0","generator":"Blockbench 4.11.2 glTF exporter"},"scenes":[{"nodes":[14],"name":"blockbench_export"}],"scene":0,"nodes":[{"translation":[-0.375,0.25,0.8125],"name":"Wheel","mesh":0},{"name":"wheel_left_back","children":[0]},{"translation":[0.375,0.25,0.8125],"name":"Wheel","mesh":1},{"name":"wheel_right_back","children":[2]},{"translation":[0.375,0.25,-0.75],"name":"Wheel","mesh":2},{"name":"wheel_right_front","children":[4]},{"translation":[-0.375,0.25,-0.125],"name":"Wheel","mesh":3},{"translation":[0,0,-0.625],"name":"wheel_left_front","children":[6]},{"name":"side_mirror_left","mesh":4},{"name":"side_mirror_right","mesh":5},{"name":"mirrors","children":[8,9]},{"name":"Body","mesh":6},{"name":"TruckBody","children":[10,11]},{"name":"Truck","children":[1,3,5,7,12]},{"children":[13]}],"bufferViews":[{"buffer":0,"byteOffset":0,"byteLength":1728,"target":34962,"byteStride":12},{"buffer":0,"byteOffset":1728,"byteLength":1728,"target":34962,"byteStride":12},{"buffer":0,"byteOffset":3456,"byteLength":1152,"target":34962,"byteStride":8},{"buffer":0,"byteOffset":4608,"byteLength":384,"target":34963},{"buffer":0,"byteOffset":4992,"byteLength":1728,"target":34962,"byteStride":12},{"buffer":0,"byteOffset":6720,"byteLength":1728,"target":34962,"byteStride":12},{"buffer":0,"byteOffset":8448,"byteLength":1152,"target":34962,"byteStride":8},{"buffer":0,"byteOffset":9600,"byteLength":384,"target":34963},{"buffer":0,"byteOffset":9984,"byteLength":1728,"target":34962,"byteStride":12},{"buffer":0,"byteOffset":11712,"byteLength":1728,"target":34962,"byteStride":12},{"buffer":0,"byteOffset":13440,"byteLength":1152,"target":34962,"byteStride":8},{"buffer":0,"byteOffset":14592,"byteLength":384,"target":34963},{"buffer":0,"byteOffset":14976,"byteLength":1728,"target":34962,"byteStride":12},{"buffer":0,"byteOffset":16704,"byteLength":1728,"target":34962,"byteStride":12},{"buffer":0,"byteOffset":18432,"byteLength":1152,"target":34962,"byteStride":8},{"buffer":0,"byteOffset":19584,"byteLength":384,"target":34963},{"buffer":0,"byteOffset":19968,"byteLength":1248,"target":34962,"byteStride":12},{"buffer":0,"byteOffset":21216,"byteLength":1248,"target":34962,"byteStride":12},{"buffer":0,"byteOffset":22464,"byteLength":832,"target":34962,"byteStride":8},{"buffer":0,"byteOffset":23296,"byteLength":312,"target":34963},{"buffer":0,"byteOffset":23608,"byteLength":1248,"target":34962,"byteStride":12},{"buffer":0,"byteOffset":24856,"byteLength":1248,"target":34962,"byteStride":12},{"buffer":0,"byteOffset":26104,"byteLength":832,"target":34962,"byteStride":8},{"buffer":0,"byteOffset":26936,"byteLength":312,"target":34963},{"buffer":0,"byteOffset":27248,"byteLength":13056,"target":34962,"byteStride":12},{"buffer":0,"byteOffset":40304,"byteLength":13056,"target":34962,"byteStride":12},{"buffer":0,"byteOffset":53360,"byteLength":8704,"target":34962,"byteStride":8},{"buffer":0,"byteOffset":62064,"byteLength":3264,"target":34963}],"buffers":[{"byteLength":65328,"uri":"data:application/octet-stream;base64,"}],"accessors":[{"bufferView":0,"componentType":5126,"count":144,"max":[0.125,0.25,0.25],"min":[-0.125,-0.25,-0.25],"type":"VEC3"},{"bufferView":1,"componentType":5126,"count":144,"max":[1,1,1],"min":[-1,-1,-1],"type":"VEC3"},{"bufferView":2,"componentType":5126,"count":144,"max":[0.546875,0.5390625],"min":[0,0.1015625],"type":"VEC2"},{"bufferView":3,"componentType":5123,"count":192,"max":[143],"min":[0],"type":"SCALAR"},{"bufferView":4,"componentType":5126,"count":144,"max":[0.125,0.25,0.25],"min":[-0.125,-0.25,-0.25],"type":"VEC3"},{"bufferView":5,"componentType":5126,"count":144,"max":[1,1,1],"min":[-1,-1,-1],"type":"VEC3"},{"bufferView":6,"componentType":5126,"count":144,"max":[0.6171875,0.625],"min":[0,0.0546875],"type":"VEC2"},{"bufferView":7,"componentType":5123,"count":192,"max":[143],"min":[0],"type":"SCALAR"},{"bufferView":8,"componentType":5126,"count":144,"max":[0.125,0.25,0.25],"min":[-0.125,-0.25,-0.25],"type":"VEC3"},{"bufferView":9,"componentType":5126,"count":144,"max":[1,1,1],"min":[-1,-1,-1],"type":"VEC3"},{"bufferView":10,"componentType":5126,"count":144,"max":[0.6328125,0.6328125],"min":[0.0390625,0],"type":"VEC2"},{"bufferView":11,"componentType":5123,"count":192,"max":[143],"min":[0],"type":"SCALAR"},{"bufferView":12,"componentType":5126,"count":144,"max":[0.125,0.25,0.25],"min":[-0.125,-0.25,-0.25],"type":"VEC3"},{"bufferView":13,"componentType":5126,"count":144,"max":[1,1,1],"min":[-1,-1,-1],"type":"VEC3"},{"bufferView":14,"componentType":5126,"count":144,"max":[0.6484375,0.640625],"min":[0.109375,0.10312497615814209],"type":"VEC2"},{"bufferView":15,"componentType":5123,"count":192,"max":[143],"min":[0],"type":"SCALAR"},{"bufferView":16,"componentType":5126,"count":104,"max":[-0.46875,1.0625,1.21875],"min":[-0.65625,0.8125,1.09375],"type":"VEC3"},{"bufferView":17,"componentType":5126,"count":104,"max":[1,1,1],"min":[-1,-1,-1],"type":"VEC3"},{"bufferView":18,"componentType":5126,"count":104,"max":[0.5390625,0.5],"min":[0,0],"type":"VEC2"},{"bufferView":19,"componentType":5123,"count":156,"max":[103],"min":[0],"type":"SCALAR"},{"bufferView":20,"componentType":5126,"count":104,"max":[0.65625,1.0625,1.21875],"min":[0.46875,0.8125,1.09375],"type":"VEC3"},{"bufferView":21,"componentType":5126,"count":104,"max":[1,1,1],"min":[-1,-1,-1],"type":"VEC3"},{"bufferView":22,"componentType":5126,"count":104,"max":[0.625,0.625],"min":[0.0859375,0.109375],"type":"VEC2"},{"bufferView":23,"componentType":5123,"count":156,"max":[103],"min":[0],"type":"SCALAR"},{"bufferView":24,"componentType":5126,"count":1088,"max":[0.5122572779655457,1.375,1.436893105506897],"min":[-0.5122572779655457,0.25,-1.25],"type":"VEC3"},{"bufferView":25,"componentType":5126,"count":1088,"max":[1,1,1],"min":[-1,-1,-1],"type":"VEC3"},{"bufferView":26,"componentType":5126,"count":1088,"max":[0.6875,0.6171875],"min":[0,0],"type":"VEC2"},{"bufferView":27,"componentType":5123,"count":1632,"max":[1087],"min":[0],"type":"SCALAR"}],"materials":[{"pbrMetallicRoughness":{"metallicFactor":0,"roughnessFactor":1,"baseColorTexture":{"index":0}},"alphaMode":"MASK","alphaCutoff":0.05,"doubleSided":true}],"textures":[{"sampler":0,"source":0,"name":"Truck.png"}],"samplers":[{"magFilter":9728,"minFilter":9728,"wrapS":33071,"wrapT":33071}],"images":[{"mimeType":"image/png","uri":"data:image/png;base64,"}],"meshes":[{"primitives":[{"mode":4,"attributes":{"POSITION":0,"NORMAL":1,"TEXCOORD_0":2},"indices":3,"material":0}]},{"primitives":[{"mode":4,"attributes":{"POSITION":4,"NORMAL":5,"TEXCOORD_0":6},"indices":7,"material":0}]},{"primitives":[{"mode":4,"attributes":{"POSITION":8,"NORMAL":9,"TEXCOORD_0":10},"indices":11,"material":0}]},{"primitives":[{"mode":4,"attributes":{"POSITION":12,"NORMAL":13,"TEXCOORD_0":14},"indices":15,"material":0}]},{"primitives":[{"mode":4,"attributes":{"POSITION":16,"NORMAL":17,"TEXCOORD_0":18},"indices":19,"material":0}]},{"primitives":[{"mode":4,"attributes":{"POSITION":20,"NORMAL":21,"TEXCOORD_0":22},"indices":23,"material":0}]},{"primitives":[{"mode":4,"attributes":{"POSITION":24,"NORMAL":25,"TEXCOORD_0":26},"indices":27,"material":0}]}]}