{"asset":{"version":"2.0","generator":"Blockbench 4.12.2 glTF exporter"},"scenes":[{"nodes":[9],"name":"blockbench_export"}],"scene":0,"nodes":[{"translation":[0,0,-0.5],"name":"StationBody","mesh":0},{"rotation":[-0.7071067811865475,0,0,0.7071067811865476],"name":"PanelCover","mesh":1},{"name":"Pipes","mesh":2},{"rotation":[-0.7071067811865475,0,0,0.7071067811865476],"name":"PipesPlane","mesh":3},{"rotation":[0,0,-0.7071067811865475,0.7071067811865476],"translation":[-0.21875000000000006,0,-1.1102230246251565e-16],"name":"LeverWheel","mesh":4},{"rotation":[0,0,-0.7071067811865475,0.7071067811865476],"translation":[-0.10625000000000007,0,-0.05625000000000002],"name":"Switch","mesh":5},{"translation":[-0.12500000000000017,0,-0.1250000000000001],"name":"LeverArm","children":[5]},{"rotation":[0.3826834323650898,0,0,0.9238795325112867],"translation":[-0.18749999999999983,1,-0.4374999999999999],"name":"Lever","children":[4,6]},{"name":"ControlStation","children":[0,1,2,3,7]},{"children":[8]}],"bufferViews":[{"buffer":0,"byteOffset":0,"byteLength":5640,"target":34962,"byteStride":12},{"buffer":0,"byteOffset":5640,"byteLength":5640,"target":34962,"byteStride":12},{"buffer":0,"byteOffset":11280,"byteLength":3760,"target":34962,"byteStride":8},{"buffer":0,"byteOffset":15040,"byteLength":1392,"target":34963},{"buffer":0,"byteOffset":16432,"byteLength":48,"target":34962,"byteStride":12},{"buffer":0,"byteOffset":16480,"byteLength":48,"target":34962,"byteStride":12},{"buffer":0,"byteOffset":16528,"byteLength":32,"target":34962,"byteStride":8},{"buffer":0,"byteOffset":16560,"byteLength":12,"target":34963},{"buffer":0,"byteOffset":16572,"byteLength":3456,"target":34962,"byteStride":12},{"buffer":0,"byteOffset":20028,"byteLength":3456,"target":34962,"byteStride":12},{"buffer":0,"byteOffset":23484,"byteLength":2304,"target":34962,"byteStride":8},{"buffer":0,"byteOffset":25788,"byteLength":864,"target":34963},{"buffer":0,"byteOffset":26652,"byteLength":48,"target":34962,"byteStride":12},{"buffer":0,"byteOffset":26700,"byteLength":48,"target":34962,"byteStride":12},{"buffer":0,"byteOffset":26748,"byteLength":32,"target":34962,"byteStride":8},{"buffer":0,"byteOffset":26780,"byteLength":12,"target":34963},{"buffer":0,"byteOffset":26792,"byteLength":960,"target":34962,"byteStride":12},{"buffer":0,"byteOffset":27752,"byteLength":960,"target":34962,"byteStride":12},{"buffer":0,"byteOffset":28712,"byteLength":640,"target":34962,"byteStride":8},{"buffer":0,"byteOffset":29352,"byteLength":192,"target":34963},{"buffer":0,"byteOffset":29544,"byteLength":240,"target":34962,"byteStride":12},{"buffer":0,"byteOffset":29784,"byteLength":240,"target":34962,"byteStride":12},{"buffer":0,"byteOffset":30024,"byteLength":160,"target":34962,"byteStride":8},{"buffer":0,"byteOffset":30184,"byteLength":60,"target":34963}],"buffers":[{"byteLength":30244,"uri":"data:application/octet-stream;base64,"}],"accessors":[{"bufferView":0,"componentType":5126,"count":470,"max":[1.5,1.25,0.5],"min":[-1.5,0,-0.1875],"type":"VEC3"},{"bufferView":1,"componentType":5126,"count":470,"max":[1,1,1],"min":[-1,-1,-1],"type":"VEC3"},{"bufferView":2,"componentType":5126,"count":470,"max":[0.7578125,0.5409579873085022],"min":[0,0],"type":"VEC2"},{"bufferView":3,"componentType":5123,"count":696,"max":[469],"min":[0],"type":"SCALAR"},{"bufferView":4,"componentType":5126,"count":4,"max":[1.125,0.65625,0.8125],"min":[0.125,0.65625,0.125],"type":"VEC3"},{"bufferView":5,"componentType":5126,"count":4,"max":[0,-1,0],"min":[0,-1,0],"type":"VEC3"},{"bufferView":6,"componentType":5126,"count":4,"max":[0.2578125,0.5078125],"min":[0.1328125,0.421875],"type":"VEC2"},{"bufferView":7,"componentType":5123,"count":6,"max":[3],"min":[0],"type":"SCALAR"},{"bufferView":8,"componentType":5126,"count":288,"max":[0.65625,0.7504441738128662,-0.44999998807907104],"min":[0.11830582469701767,0.05624999850988388,-0.637499988079071],"type":"VEC3"},{"bufferView":9,"componentType":5126,"count":288,"max":[1,1,1],"min":[-1,-1,-1],"type":"VEC3"},{"bufferView":10,"componentType":5126,"count":288,"max":[0.5234375,0.549818754196167],"min":[0,0],"type":"VEC2"},{"bufferView":11,"componentType":5123,"count":432,"max":[287],"min":[0],"type":"SCALAR"},{"bufferView":12,"componentType":5126,"count":4,"max":[1.125,0.40625,0.8125],"min":[0.125,0.40625,0.125],"type":"VEC3"},{"bufferView":13,"componentType":5126,"count":4,"max":[0,-1,0],"min":[0,-1,0],"type":"VEC3"},{"bufferView":14,"componentType":5126,"count":4,"max":[0.6015625,0.25],"min":[0.4765625,0.1640625],"type":"VEC2"},{"bufferView":15,"componentType":5123,"count":6,"max":[3],"min":[0],"type":"SCALAR"},{"bufferView":16,"componentType":5126,"count":80,"max":[0.15625,0.20624999701976776,0.15625],"min":[-0.15625,-0.01875000074505806,-0.15625],"type":"VEC3"},{"bufferView":17,"componentType":5126,"count":80,"max":[1,1,1],"min":[-1,-1,-1],"type":"VEC3"},{"bufferView":18,"componentType":5126,"count":80,"max":[0.515625,0.453125],"min":[0.1015625,0],"type":"VEC2"},{"bufferView":19,"componentType":5123,"count":96,"max":[79],"min":[0],"type":"SCALAR"},{"bufferView":20,"componentType":5126,"count":20,"max":[0.03125,0.2750000059604645,0.03125],"min":[-0.03125,-0.0625,-0.09375],"type":"VEC3"},{"bufferView":21,"componentType":5126,"count":20,"max":[0,1,0],"min":[0,-1,-1],"type":"VEC3"},{"bufferView":22,"componentType":5126,"count":20,"max":[0.421875,0.534375011920929],"min":[0.0625,0.28125],"type":"VEC2"},{"bufferView":23,"componentType":5123,"count":30,"max":[19],"min":[0],"type":"SCALAR"}],"materials":[{"pbrMetallicRoughness":{"metallicFactor":0,"roughnessFactor":1,"baseColorTexture":{"index":0}},"alphaMode":"MASK","alphaCutoff":0.05,"doubleSided":true}],"textures":[{"sampler":0,"source":0,"name":"ControlStation.png"}],"samplers":[{"magFilter":9728,"minFilter":9728,"wrapS":33071,"wrapT":33071}],"images":[{"mimeType":"image/png","uri":"data:image/png;base64,"}],"meshes":[{"primitives":[{"mode":4,"attributes":{"POSITION":0,"NORMAL":1,"TEXCOORD_0":2},"indices":3,"material":0}]},{"primitives":[{"mode":4,"attributes":{"POSITION":4,"NORMAL":5,"TEXCOORD_0":6},"indices":7,"material":0}]},{"primitives":[{"mode":4,"attributes":{"POSITION":8,"NORMAL":9,"TEXCOORD_0":10},"indices":11,"material":0}]},{"primitives":[{"mode":4,"attributes":{"POSITION":12,"NORMAL":13,"TEXCOORD_0":14},"indices":15,"material":0}]},{"primitives":[{"mode":4,"attributes":{"POSITION":16,"NORMAL":17,"TEXCOORD_0":18},"indices":19,"material":0}]},{"primitives":[{"mode":4,"attributes":{"POSITION":20,"NORMAL":21,"TEXCOORD_0":22},"indices":23,"material":0}]}]}