{"asset":{"version":"2.0","generator":"Blockbench 4.11.2 glTF exporter"},"scenes":[{"nodes":[4],"name":"blockbench_export"}],"scene":0,"nodes":[{"translation":[0,-0.03437499999999996,-6.938893903907228e-18],"name":"cuboid","mesh":0},{"translation":[0,-0.04375000000000004,-0.056249999999999994],"name":"Rocker","children":[0]},{"translation":[0,-0.1875,0],"name":"Body","mesh":1},{"translation":[0,0.1875,0],"name":"Switch","children":[1,2]},{"children":[3]}],"bufferViews":[{"buffer":0,"byteOffset":0,"byteLength":864,"target":34962,"byteStride":12},{"buffer":0,"byteOffset":864,"byteLength":864,"target":34962,"byteStride":12},{"buffer":0,"byteOffset":1728,"byteLength":576,"target":34962,"byteStride":8},{"buffer":0,"byteOffset":2304,"byteLength":216,"target":34963},{"buffer":0,"byteOffset":2520,"byteLength":1632,"target":34962,"byteStride":12},{"buffer":0,"byteOffset":4152,"byteLength":1632,"target":34962,"byteStride":12},{"buffer":0,"byteOffset":5784,"byteLength":1088,"target":34962,"byteStride":8},{"buffer":0,"byteOffset":6872,"byteLength":408,"target":34963}],"buffers":[{"byteLength":7280,"uri":"data:application/octet-stream;base64,"}],"accessors":[{"bufferView":0,"componentType":5126,"count":72,"max":[0.09375,0.15625,0.03125],"min":[-0.09375,-0.0625,-0.03125],"type":"VEC3"},{"bufferView":1,"componentType":5126,"count":72,"max":[1,1,1],"min":[-1,-1,-1],"type":"VEC3"},{"bufferView":2,"componentType":5126,"count":72,"max":[0.53125,0.53125],"min":[0,0],"type":"VEC2"},{"bufferView":3,"componentType":5123,"count":108,"max":[71],"min":[0],"type":"SCALAR"},{"bufferView":4,"componentType":5126,"count":136,"max":[0.125,0.375,0],"min":[-0.125,0,-0.0625],"type":"VEC3"},{"bufferView":5,"componentType":5126,"count":136,"max":[1,1,1],"min":[-1,-1,-1],"type":"VEC3"},{"bufferView":6,"componentType":5126,"count":136,"max":[0.5,0.5],"min":[0,0],"type":"VEC2"},{"bufferView":7,"componentType":5123,"count":204,"max":[135],"min":[0],"type":"SCALAR"}],"materials":[{"pbrMetallicRoughness":{"metallicFactor":0,"roughnessFactor":1,"baseColorTexture":{"index":0}},"alphaMode":"MASK","alphaCutoff":0.05,"doubleSided":true}],"textures":[{"sampler":0,"source":0,"name":"Switch.png"}],"samplers":[{"magFilter":9728,"minFilter":9728,"wrapS":33071,"wrapT":33071}],"images":[{"mimeType":"image/png","uri":"data:image/png;base64,"}],"meshes":[{"primitives":[{"mode":4,"attributes":{"POSITION":0,"NORMAL":1,"TEXCOORD_0":2},"indices":3,"material":0}]},{"primitives":[{"mode":4,"attributes":{"POSITION":4,"NORMAL":5,"TEXCOORD_0":6},"indices":7,"material":0}]}]}