{"asset":{"version":"2.0","generator":"Blockbench 4.11.2 glTF exporter"},"scenes":[{"nodes":[8],"name":"blockbench_export"}],"scene":0,"nodes":[{"translation":[0,0,-0.1875],"name":"ActionBase","mesh":0},{"translation":[0,-0.09999999999999987,-0.07499999999999984],"name":"Grip","mesh":1},{"translation":[-3.469446951953614e-18,0.0875,-0.26249999999999996],"name":"Barrel","mesh":2},{"rotation":[-0.7071067811865475,0,0,0.7071067811865476],"translation":[0,0.09375,0.07499999999999987],"name":"Cylinder","mesh":3},{"translation":[0,0.06875,-0.26875000000000004],"name":"BreakActionPivot","children":[2,3]},{"rotation":[-0.08715574274765817,0,0,0.9961946980917455],"translation":[7.129713486264677e-16,-0.00624999999999995,0],"name":"Trigger","mesh":4},{"rotation":[-0.02181488503456112,0,0,0.9997620270799091],"translation":[-9.020562075079397e-17,0.06249999999999997,-0.15624999999999994],"name":"Trigger","children":[5]},{"translation":[0,-0.1875,0.375],"name":"HammerGun","children":[0,1,4,6]},{"children":[7]}],"bufferViews":[{"buffer":0,"byteOffset":0,"byteLength":7056,"target":34962,"byteStride":12},{"buffer":0,"byteOffset":7056,"byteLength":7056,"target":34962,"byteStride":12},{"buffer":0,"byteOffset":14112,"byteLength":4704,"target":34962,"byteStride":8},{"buffer":0,"byteOffset":18816,"byteLength":1740,"target":34963},{"buffer":0,"byteOffset":20556,"byteLength":4512,"target":34962,"byteStride":12},{"buffer":0,"byteOffset":25068,"byteLength":4512,"target":34962,"byteStride":12},{"buffer":0,"byteOffset":29580,"byteLength":3008,"target":34962,"byteStride":8},{"buffer":0,"byteOffset":32588,"byteLength":1104,"target":34963},{"buffer":0,"byteOffset":33692,"byteLength":15384,"target":34962,"byteStride":12},{"buffer":0,"byteOffset":49076,"byteLength":15384,"target":34962,"byteStride":12},{"buffer":0,"byteOffset":64460,"byteLength":10256,"target":34962,"byteStride":8},{"buffer":0,"byteOffset":74716,"byteLength":3444,"target":34963},{"buffer":0,"byteOffset":78160,"byteLength":1584,"target":34962,"byteStride":12},{"buffer":0,"byteOffset":79744,"byteLength":1584,"target":34962,"byteStride":12},{"buffer":0,"byteOffset":81328,"byteLength":1056,"target":34962,"byteStride":8},{"buffer":0,"byteOffset":82384,"byteLength":360,"target":34963},{"buffer":0,"byteOffset":82744,"byteLength":672,"target":34962,"byteStride":12},{"buffer":0,"byteOffset":83416,"byteLength":672,"target":34962,"byteStride":12},{"buffer":0,"byteOffset":84088,"byteLength":448,"target":34962,"byteStride":8},{"buffer":0,"byteOffset":84536,"byteLength":168,"target":34963},{"buffer":0,"byteOffset":84704,"byteLength":108},{"buffer":0,"byteOffset":84812,"byteLength":432},{"buffer":0,"byteOffset":85244,"byteLength":100},{"buffer":0,"byteOffset":85344,"byteLength":300},{"buffer":0,"byteOffset":85644,"byteLength":56},{"buffer":0,"byteOffset":85700,"byteLength":224},{"buffer":0,"byteOffset":85924,"byteLength":32},{"buffer":0,"byteOffset":85956,"byteLength":128},{"buffer":0,"byteOffset":86084,"byteLength":32},{"buffer":0,"byteOffset":86116,"byteLength":96},{"buffer":0,"byteOffset":86212,"byteLength":20},{"buffer":0,"byteOffset":86232,"byteLength":80}],"buffers":[{"byteLength":86312,"uri":"data:application/octet-stream;base64,"}],"accessors":[{"bufferView":0,"componentType":5126,"count":588,"max":[0.03125,0.18125000596046448,0.10000000149011612],"min":[-0.03125,-0.022558527067303658,-0.08124999701976776],"type":"VEC3"},{"bufferView":1,"componentType":5126,"count":588,"max":[1,1,1],"min":[-1,-1,-1],"type":"VEC3"},{"bufferView":2,"componentType":5126,"count":588,"max":[0.9515625238418579,0.984375],"min":[0.004839062690734863,0],"type":"VEC2"},{"bufferView":3,"componentType":5123,"count":870,"max":[587],"min":[0],"type":"SCALAR"},{"bufferView":4,"componentType":5126,"count":376,"max":[0.03125,0.25,0.11874999850988388],"min":[-0.03125,0.03750000149011612,-0.03125],"type":"VEC3"},{"bufferView":5,"componentType":5126,"count":376,"max":[1,0.9972604513168335,1],"min":[-1,-1,-1],"type":"VEC3"},{"bufferView":6,"componentType":5126,"count":376,"max":[0.9581999778747559,0.9375],"min":[0.0016843749908730388,0.07522183656692505],"type":"VEC2"},{"bufferView":7,"componentType":5123,"count":552,"max":[375],"min":[0],"type":"SCALAR"},{"bufferView":8,"componentType":5126,"count":1282,"max":[0.046969905495643616,0.07500000298023224,0.2846340835094452],"min":[-0.046969905495643616,-0.10625000298023224,-0.44999998807907104],"type":"VEC3"},{"bufferView":9,"componentType":5126,"count":1282,"max":[1,1,1],"min":[-1,-1,-1],"type":"VEC3"},{"bufferView":10,"componentType":5126,"count":1282,"max":[0.9828125238418579,0.9801281094551086],"min":[0,0],"type":"VEC2"},{"bufferView":11,"componentType":5123,"count":1722,"max":[1281],"min":[0],"type":"SCALAR"},{"bufferView":12,"componentType":5126,"count":132,"max":[0.07216878235340118,0.07500000298023224,0.0625],"min":[-0.07216878235340118,-0.0625,-0.0625],"type":"VEC3"},{"bufferView":13,"componentType":5126,"count":132,"max":[0.8660253882408142,1,1],"min":[-0.8660253882408142,-1,-1],"type":"VEC3"},{"bufferView":14,"componentType":5126,"count":132,"max":[0.8996468782424927,0.75],"min":[0,0.1875],"type":"VEC2"},{"bufferView":15,"componentType":5123,"count":180,"max":[131],"min":[0],"type":"SCALAR"},{"bufferView":16,"componentType":5126,"count":56,"max":[0.0062500000931322575,0.0062500000931322575,0.009505903348326683],"min":[-0.0062500000931322575,-0.05307130515575409,-0.010036439634859562],"type":"VEC3"},{"bufferView":17,"componentType":5126,"count":56,"max":[1,1,0.9963079690933228],"min":[-1,-0.8612149953842163,-0.9963079690933228],"type":"VEC3"},{"bufferView":18,"componentType":5126,"count":56,"max":[0.948437511920929,0.9764719009399414],"min":[0.004687500186264515,0.0625],"type":"VEC2"},{"bufferView":19,"componentType":5123,"count":84,"max":[55],"min":[0],"type":"SCALAR"},{"bufferView":20,"componentType":5126,"count":27,"max":[1.5],"min":[0],"type":"SCALAR"},{"bufferView":21,"componentType":5126,"count":27,"max":[0.24183420836925507,0.11536777764558792,0.16823038458824158,1],"min":[-0.3139519989490509,0,-0.1735222339630127,0.9334240555763245],"type":"VEC4"},{"bufferView":22,"componentType":5126,"count":25,"max":[1.5],"min":[0],"type":"SCALAR"},{"bufferView":23,"componentType":5126,"count":25,"max":[0.06499999761581421,-0.11187499761581421,0.375],"min":[0,-0.21875,0.33125001192092896],"type":"VEC3"},{"bufferView":24,"componentType":5126,"count":14,"max":[1.1666666269302368],"min":[0],"type":"SCALAR"},{"bufferView":25,"componentType":5126,"count":14,"max":[0.015973703935742378,0,0,1],"min":[-0.39359283447265625,0,0,0.9192848801612854],"type":"VEC4"},{"bufferView":26,"componentType":5126,"count":8,"max":[0.3888888955116272],"min":[0],"type":"SCALAR"},{"bufferView":27,"componentType":5126,"count":8,"max":[0.11784041672945023,0,0,1],"min":[0,-0.04071502387523651,-0.026640646159648895,0.9918398261070251],"type":"VEC4"},{"bufferView":28,"componentType":5126,"count":8,"max":[0.3888888955116272],"min":[0],"type":"SCALAR"},{"bufferView":29,"componentType":5126,"count":8,"max":[0.03125,-0.1875,0.612500011920929],"min":[0,-0.1875,0.4437499940395355],"type":"VEC3"},{"bufferView":30,"componentType":5126,"count":5,"max":[0.2222222238779068],"min":[0],"type":"SCALAR"},{"bufferView":31,"componentType":5126,"count":5,"max":[-0.02181488461792469,0,0,0.9997619986534119],"min":[-0.19509032368659973,0,0,0.9807852506637573],"type":"VEC4"}],"materials":[{"pbrMetallicRoughness":{"metallicFactor":0,"roughnessFactor":1,"baseColorTexture":{"index":0}},"alphaMode":"MASK","alphaCutoff":0.05,"doubleSided":true}],"textures":[{"sampler":0,"source":0,"name":"HammerShotgun"}],"samplers":[{"magFilter":9728,"minFilter":9728,"wrapS":33071,"wrapT":33071}],"images":[{"mimeType":"image/png","uri":"data:image/png;base64,"}],"meshes":[{"primitives":[{"mode":4,"attributes":{"POSITION":0,"NORMAL":1,"TEXCOORD_0":2},"indices":3,"material":0}]},{"primitives":[{"mode":4,"attributes":{"POSITION":4,"NORMAL":5,"TEXCOORD_0":6},"indices":7,"material":0}]},{"primitives":[{"mode":4,"attributes":{"POSITION":8,"NORMAL":9,"TEXCOORD_0":10},"indices":11,"material":0}]},{"primitives":[{"mode":4,"attributes":{"POSITION":12,"NORMAL":13,"TEXCOORD_0":14},"indices":15,"material":0}]},{"primitives":[{"mode":4,"attributes":{"POSITION":16,"NORMAL":17,"TEXCOORD_0":18},"indices":19,"material":0}]}],"animations":[{"name":"reload","samplers":[{"input":20,"output":21,"interpolation":"LINEAR"},{"input":22,"output":23,"interpolation":"LINEAR"},{"input":24,"output":25,"interpolation":"LINEAR"}],"channels":[{"sampler":0,"target":{"node":7,"path":"rotation"}},{"sampler":1,"target":{"node":7,"path":"translation"}},{"sampler":2,"target":{"node":4,"path":"rotation"}}]},{"name":"shoot","samplers":[{"input":26,"output":27,"interpolation":"LINEAR"},{"input":28,"output":29,"interpolation":"LINEAR"},{"input":30,"output":31,"interpolation":"LINEAR"}],"channels":[{"sampler":0,"target":{"node":7,"path":"rotation"}},{"sampler":1,"target":{"node":7,"path":"translation"}},{"sampler":2,"target":{"node":6,"path":"rotation"}}]}]}