{"asset":{"version":"2.0","generator":"Blockbench 4.11.1 glTF exporter"},"scenes":[{"nodes":[3],"name":"blockbench_export"}],"scene":0,"nodes":[{"name":"KeyBody","mesh":0},{"rotation":[-0.7071067811865475,0,0,0.7071067811865476],"translation":[-0.0625,0.0625,0],"name":"KeyTeeth","mesh":1},{"name":"BigKey","children":[0,1]},{"children":[2]}],"bufferViews":[{"buffer":0,"byteOffset":0,"byteLength":1200,"target":34962,"byteStride":12},{"buffer":0,"byteOffset":1200,"byteLength":1200,"target":34962,"byteStride":12},{"buffer":0,"byteOffset":2400,"byteLength":800,"target":34962,"byteStride":8},{"buffer":0,"byteOffset":3200,"byteLength":264,"target":34963},{"buffer":0,"byteOffset":3464,"byteLength":48,"target":34962,"byteStride":12},{"buffer":0,"byteOffset":3512,"byteLength":48,"target":34962,"byteStride":12},{"buffer":0,"byteOffset":3560,"byteLength":32,"target":34962,"byteStride":8},{"buffer":0,"byteOffset":3592,"byteLength":12,"target":34963}],"buffers":[{"byteLength":3604,"uri":"data:application/octet-stream;base64,"}],"accessors":[{"bufferView":0,"componentType":5126,"count":100,"max":[0.09375,0.78125,0.05000000074505806],"min":[-0.09375,0,-0.05000000074505806],"type":"VEC3"},{"bufferView":1,"componentType":5126,"count":100,"max":[1,1,1],"min":[-1,-1,-1],"type":"VEC3"},{"bufferView":2,"componentType":5126,"count":100,"max":[0.40625,0.5653905868530273],"min":[0,0],"type":"VEC2"},{"bufferView":3,"componentType":5123,"count":132,"max":[99],"min":[0],"type":"SCALAR"},{"bufferView":4,"componentType":5126,"count":4,"max":[0.03125,8.326672684688674e-17,0.40625],"min":[-0.09375,0,-0.03125],"type":"VEC3"},{"bufferView":5,"componentType":5126,"count":4,"max":[0,1,-1.903239489692968e-16],"min":[0,1,-1.903239489692968e-16],"type":"VEC3"},{"bufferView":6,"componentType":5126,"count":4,"max":[0.3125,0.46875],"min":[0.25,0.25],"type":"VEC2"},{"bufferView":7,"componentType":5123,"count":6,"max":[3],"min":[0],"type":"SCALAR"}],"materials":[{"pbrMetallicRoughness":{"metallicFactor":0,"roughnessFactor":1,"baseColorTexture":{"index":0}},"alphaMode":"MASK","alphaCutoff":0.05,"doubleSided":true}],"textures":[{"sampler":0,"source":0,"name":"Key"}],"samplers":[{"magFilter":9728,"minFilter":9728,"wrapS":33071,"wrapT":33071}],"images":[{"mimeType":"image/png","uri":"data:image/png;base64,"}],"meshes":[{"primitives":[{"mode":4,"attributes":{"POSITION":0,"NORMAL":1,"TEXCOORD_0":2},"indices":3,"material":0}]},{"primitives":[{"mode":4,"attributes":{"POSITION":4,"NORMAL":5,"TEXCOORD_0":6},"indices":7,"material":0}]}]}