{"asset":{"version":"2.0","generator":"Blockbench 4.11.2 glTF exporter"},"scenes":[{"nodes":[3],"name":"blockbench_export"}],"scene":0,"nodes":[{"rotation":[0.7071067811865475,0,0,0.7071067811865476],"translation":[0,0.125,-0.20625],"name":"cone","mesh":0},{"rotation":[0.7071067811865475,0,0,0.7071067811865476],"translation":[0,0.125,-0.5187500000000002],"name":"cone","mesh":1},{"translation":[0,-0.12499999999999994,0.2312499999999993],"name":"MuzzleFlash","children":[0,1]},{"children":[2]}],"bufferViews":[{"buffer":0,"byteOffset":0,"byteLength":864,"target":34962,"byteStride":12},{"buffer":0,"byteOffset":864,"byteLength":864,"target":34962,"byteStride":12},{"buffer":0,"byteOffset":1728,"byteLength":576,"target":34962,"byteStride":8},{"buffer":0,"byteOffset":2304,"byteLength":144,"target":34963},{"buffer":0,"byteOffset":2448,"byteLength":864,"target":34962,"byteStride":12},{"buffer":0,"byteOffset":3312,"byteLength":864,"target":34962,"byteStride":12},{"buffer":0,"byteOffset":4176,"byteLength":576,"target":34962,"byteStride":8},{"buffer":0,"byteOffset":4752,"byteLength":144,"target":34963}],"buffers":[{"byteLength":4896,"uri":"data:application/octet-stream;base64,"}],"accessors":[{"bufferView":0,"componentType":5126,"count":72,"max":[0.09375,0,0.09375],"min":[-0.09375,-0.6739908456802368,-0.09375],"type":"VEC3"},{"bufferView":1,"componentType":5126,"count":72,"max":[0.9653375148773193,0.2610047161579132,0.9653375148773193],"min":[-0.9653375148773193,-0.27539825439453125,-0.9653375148773193],"type":"VEC3"},{"bufferView":2,"componentType":5126,"count":72,"max":[1,1],"min":[0.03125,0.34375],"type":"VEC2"},{"bufferView":3,"componentType":5123,"count":72,"max":[71],"min":[0],"type":"SCALAR"},{"bufferView":4,"componentType":5126,"count":72,"max":[0.375,0.3125,0.375],"min":[-0.375,0,-0.375],"type":"VEC3"},{"bufferView":5,"componentType":5126,"count":72,"max":[0.6401844024658203,0.7682212591171265,0.6401844024658203],"min":[-0.6401844024658203,-1,-0.6401844024658203],"type":"VEC3"},{"bufferView":6,"componentType":5126,"count":72,"max":[0.8433430194854736,0.9366860389709473],"min":[0,0],"type":"VEC2"},{"bufferView":7,"componentType":5123,"count":72,"max":[71],"min":[0],"type":"SCALAR"}],"materials":[{"pbrMetallicRoughness":{"metallicFactor":0,"roughnessFactor":1,"baseColorTexture":{"index":0}},"alphaMode":"MASK","alphaCutoff":0.05,"doubleSided":true}],"textures":[{"sampler":0,"source":0,"name":"MuzzleFlash"}],"samplers":[{"magFilter":9728,"minFilter":9728,"wrapS":33071,"wrapT":33071}],"images":[{"mimeType":"image/png","uri":"data:image/png;base64,"}],"meshes":[{"primitives":[{"mode":4,"attributes":{"POSITION":0,"NORMAL":1,"TEXCOORD_0":2},"indices":3,"material":0}]},{"primitives":[{"mode":4,"attributes":{"POSITION":4,"NORMAL":5,"TEXCOORD_0":6},"indices":7,"material":0}]}]}